<svg width="181" height="44" viewBox="0 0 181 44" fill="none" xmlns="http://www.w3.org/2000/svg">
<path fill-rule="evenodd" clip-rule="evenodd" d="M43.0186 5.51922C44.1461 5.55126 46.5749 5.90363 47.2708 7.05685C48.1405 8.49838 54.4221 23.0098 49.7834 32.3317C46.0724 39.7892 40.7959 42.3263 40.7959 42.3263C39.0564 42.9029 30.1656 44.2483 27.363 43.96C25.8157 43.8008 18.5688 40.8847 16.5394 37.8095C16.1379 37.2011 15.8196 36.698 15.5576 36.2838C14.4952 34.6047 14.358 34.3878 13.3503 34.542C12.094 34.7342 3.58967 35.2147 0.593843 27.6227C-2.40198 20.0306 6.68214 16.2826 11.2242 18.3969C11.2242 17.2437 11.3208 12.5347 12.6738 10.8048C14.0267 9.075 25.5268 2.15566 43.0186 5.51922ZM11.2242 21.8566C9.06592 21.4081 4.59472 21.4721 3.97623 25.3162C3.20311 30.1213 11.6108 33.7732 13.3503 31.7551C12.8671 30.4417 11.7654 26.6232 11.2242 21.8566Z" fill="url(#paint0_linear_110_171)"/>
<path d="M44.2245 6.27278C43.5274 6.19468 43.4823 5.65449 43.5468 5.39417C44.595 5.45925 46.8321 5.86276 47.3942 6.95615C47.1588 7.66971 46.99 8.42885 45.5894 9.31752C36.9735 14.7844 20.8681 14.7892 17.5766 14.4964C14.2851 14.2035 12.006 12.4277 12.1624 11.75C12.3978 10.7299 13.8102 9.39599 17.1058 8.06205C17.2027 9.33115 13.9233 13.3017 26.1212 12.6183C38.3191 11.9349 43.5468 7.93238 44.5149 7.44426C45.483 6.95614 45.0957 6.3704 44.2245 6.27278Z" fill="#3179AC"/>
<path d="M43.3231 6.21834C42.6695 6.14508 42.6271 5.63837 42.6876 5.39417C43.6707 5.45522 45.7685 5.83373 46.2956 6.85937C46.0749 7.52872 45.9166 8.24083 44.6032 9.07444C36.5233 14.2026 21.4201 14.2071 18.3334 13.9324C15.2467 13.6577 13.1825 11.4381 13.1825 11.0718C13.1825 10.7055 14.1811 9.97292 14.3627 9.78977C14.4535 10.9802 14.9074 12.8117 26.3463 12.1707C37.7852 11.5297 42.6876 7.77512 43.5955 7.31724C44.5033 6.85937 44.1402 6.30992 43.3231 6.21834Z" fill="#5D3B49"/>
<path d="M16.1872 8.74603C16.0419 8.96505 15.3741 8.0866 15.0945 8.54919C15.0896 8.55724 15.0837 8.56602 15.0777 8.57329C12.6188 11.5653 16.4467 12.5086 18.5315 12.0692C18.5578 12.0637 18.5844 12.0648 18.6102 12.0725L20.3824 12.6065C20.3971 12.6109 20.4123 12.6131 20.4277 12.6131H28.0894C28.1002 12.6131 28.1111 12.612 28.1217 12.6098L38.1762 10.4985C38.1857 10.4964 38.1951 10.4935 38.2041 10.4898L43.4737 8.29993C43.4963 8.29056 43.5163 8.27604 43.5323 8.25754L44.6795 6.92813C44.693 6.91257 44.7032 6.89453 44.7097 6.87503L44.8352 6.49671C44.862 6.41617 44.8199 6.32864 44.7437 6.29127C44.4072 6.12617 43.9471 5.79968 43.6914 5.79968C43.398 5.79968 43.5997 5.15517 43.508 4.87894C43.4164 4.60272 41.7661 4.23443 41.1243 3.40576C40.4826 2.5771 38.649 3.77405 38.1906 3.40576C37.7322 3.03748 36.4486 1.84051 35.5318 1.65636C34.615 1.47222 33.3315 2.85331 32.8731 2.85331C32.4147 2.85331 32.1397 0.827688 29.5726 1.01184C27.0055 1.19598 26.4555 2.85331 25.0803 2.85331C23.705 2.85331 23.155 3.12953 22.5132 3.77405C21.8714 4.41856 19.5794 5.7076 18.846 5.98382C18.1125 6.26004 16.3706 8.46981 16.1872 8.74603Z" fill="#F4F7F2"/>
<mask id="mask0_110_171" style="mask-type:alpha" maskUnits="userSpaceOnUse" x="14" y="1" width="31" height="12">
<path d="M16.1872 8.74603C16.0419 8.96505 15.3741 8.0866 15.0945 8.54919C15.0896 8.55724 15.0837 8.56602 15.0777 8.57329C12.6188 11.5653 16.4467 12.5086 18.5315 12.0692C18.5578 12.0637 18.5844 12.0648 18.6102 12.0725L20.3824 12.6065C20.3971 12.6109 20.4123 12.6131 20.4277 12.6131H28.0894C28.1002 12.6131 28.1111 12.612 28.1217 12.6098L38.1762 10.4985C38.1857 10.4964 38.1951 10.4935 38.2041 10.4898L43.4737 8.29993C43.4963 8.29056 43.5163 8.27604 43.5323 8.25754L44.6795 6.92813C44.693 6.91257 44.7032 6.89453 44.7097 6.87503L44.8352 6.49671C44.862 6.41617 44.8199 6.32864 44.7437 6.29127C44.4072 6.12617 43.9471 5.79968 43.6914 5.79968C43.398 5.79968 43.5997 5.15517 43.508 4.87894C43.4164 4.60272 41.7661 4.23443 41.1243 3.40576C40.4826 2.5771 38.649 3.77405 38.1906 3.40576C37.7322 3.03748 36.4486 1.84051 35.5318 1.65636C34.615 1.47222 33.3315 2.85331 32.8731 2.85331C32.4147 2.85331 32.1397 0.827688 29.5726 1.01184C27.0055 1.19598 26.4555 2.85331 25.0803 2.85331C23.705 2.85331 23.155 3.12953 22.5132 3.77405C21.8714 4.41856 19.5794 5.7076 18.846 5.98382C18.1125 6.26004 16.3706 8.46981 16.1872 8.74603Z" fill="#F4F7F2"/>
</mask>
<g mask="url(#mask0_110_171)">
<path opacity="0.37" fill-rule="evenodd" clip-rule="evenodd" d="M42.5829 6.7543C43.7481 6.75439 44.5698 7.61176 44.835 8.04044C44.1358 9.43862 42.6869 9.99174 42.0498 10.0935C41.6875 9.92935 41.141 9.69498 40.564 9.47089C39.734 9.14858 38.8407 8.84756 38.3412 8.80729C37.2826 8.72195 35.2576 9.46781 34.8242 9.87276C34.4775 10.1967 34.1255 10.3345 33.9929 10.3629C33.3298 10.0195 31.9624 9.23738 31.7976 8.85655C31.5916 8.38051 32.6788 6.17099 33.9719 5.894L33.6097 4.20302C33.4819 3.60621 34.5973 3.4713 35.9899 3.173C37.3085 2.89053 39.8948 3.73573 40.2019 3.99518C39.4012 3.00118 36.98 2.39208 35.6719 2.1762C35.7716 2.25452 35.7623 2.42291 35.6418 2.51932C35.4641 2.6614 35.2865 2.8035 34.9881 2.86742C34.6897 2.93134 33.6737 3.04494 33.2971 3.22964C32.9959 3.3774 31.9116 4.53209 31.4071 5.09097C31.3077 5.11228 30.0643 4.65037 29.6239 4.53666C29.1834 4.42296 27.4783 3.74786 26.9383 3.65545C26.3983 3.56304 26.5689 2.90231 26.7039 2.56129C26.3036 2.95913 25.4718 3.80312 25.3468 3.99637C25.1905 4.23793 25.3823 5.13318 24.7499 5.58072C24.1175 6.02825 23.1797 6.02111 22.867 6.50421C22.6169 6.89069 22.7154 7.09152 22.7959 7.14362C22.5544 6.9873 21.9704 6.59224 21.5669 6.26255C21.0625 5.85043 21.5101 5.02628 21.8228 4.54318C22.0729 4.1567 22.6612 3.60067 22.9241 3.37096C22.1639 3.7072 20.5809 4.47629 20.3308 4.86278C20.0181 5.3459 19.7268 5.92851 19.5705 6.17004C19.4141 6.41157 18.9736 6.29788 18.4763 6.40442C17.979 6.51095 16.8848 6.74533 16.4371 7.56946C15.9895 8.39359 15.3713 8.42194 15.2363 8.76296C15.1013 9.10398 15.0871 9.52317 14.7531 9.9068C14.4192 10.2904 13.4032 10.404 13.3676 10.7238C13.3321 11.0435 13.9573 11.5337 14.618 11.7043C15.2787 11.8749 19.5202 12.7349 19.7405 12.7917C19.9607 12.8486 23.4776 13.2396 23.8968 13.2538C24.3159 13.2681 25.3319 13.1545 25.6303 13.0906C25.9288 13.0266 27.7975 11.0658 28.2948 10.9593C28.7922 10.8528 29.794 9.7019 30.5542 9.85113C31.3144 10.0004 32.9271 11.2154 33.0905 11.4925C33.2212 11.7142 33.2491 12.3948 33.2467 12.7074L35.4351 12.2387C35.3972 11.9 35.5034 11.1005 36.2309 10.6117C37.1404 10.0008 40.6573 10.3918 41.4814 10.8395C42.3055 11.2871 44.707 10.3566 44.9628 10.0937C45.2186 9.83086 46.6193 8.59911 46.5757 8.39578C46.5321 8.19245 45.8297 7.82736 45.6663 7.55026C45.503 7.27316 43.9471 5.83783 43.4853 5.62468C43.0235 5.41152 42.1496 5.70275 41.5457 5.31195C40.9418 4.92114 40.7927 4.22488 40.2314 4.03299C40.274 4.23193 40.139 4.57295 40.2455 5.07029C40.3308 5.46817 40.5415 5.80448 40.6362 5.9229C40.3781 6.01288 39.795 6.26955 39.5278 6.57646C39.2607 6.88337 39.3352 7.41531 39.4059 7.64292C39.7966 8.20226 40.2847 8.9979 40.564 9.47089C41.141 9.69498 41.6875 9.92935 42.0498 10.0935C41.6804 9.82589 40.879 9.09593 40.629 8.31722C40.3164 7.34384 41.1264 6.7542 42.5829 6.7543ZM31.9399 6.12121C31.542 6.69193 30.732 7.96127 30.6751 8.47281C30.604 9.11224 30.4051 9.15485 30.0072 9.24008C29.6093 9.32531 27.4636 9.99301 26.9094 10.3198C26.6541 10.4703 26.5577 10.5684 26.5359 10.6282C26.5497 10.6543 26.5629 10.6794 26.5754 10.7034C26.5443 10.6954 26.5199 10.6722 26.5359 10.6282C26.2279 10.0435 25.633 8.95961 25.4317 8.76372C25.1689 8.50793 24.4442 8.03896 24.4585 7.61978C24.4727 7.20059 24.4017 6.38354 25.1548 6.01414C25.908 5.64475 27.8121 4.82073 28.6718 4.94868C29.5315 5.07662 31.8973 5.92227 31.9399 6.12121ZM21.7159 8.4153C21.1404 8.64259 19.8898 10.575 19.7122 10.7171C20.0461 11.79 22.8311 12.6498 23.0087 12.5078C23.1863 12.3657 25.0764 10.5044 24.6714 10.071C24.2665 9.63753 22.2914 8.18801 21.7159 8.4153ZM18.2631 6.8662C19.0375 6.59625 20.0038 7.22156 20.1032 7.20026C19.7692 9.04037 17.9431 11.2001 17.7584 10.8236C17.5737 10.447 16.3446 9.56589 16.4939 8.80568C16.6431 8.04548 17.4887 7.13615 18.2631 6.8662Z" fill="#F4A898"/>
<path opacity="0.37" d="M31.073 5.23723C32.0078 4.92563 32.5559 3.5056 32.7173 2.81966C32.7197 2.80947 32.7229 2.80003 32.7273 2.79054C32.8601 2.50415 33.1132 2.12553 33.1132 2.80474C33.1132 3.66788 31.5438 5.55109 31.3084 5.62956C31.1608 5.67878 30.4246 6.11714 29.8488 6.46805C29.7178 6.54786 29.5858 6.42438 29.6753 6.29981C29.9503 5.91686 30.4162 5.45615 31.073 5.23723Z" fill="#F4A898"/>
</g>
<path fill-rule="evenodd" clip-rule="evenodd" d="M35.6799 24.8499C36.5177 24.1109 37.0461 23.0295 37.0461 21.8246C37.0461 19.5974 35.2407 17.792 33.0135 17.792C31.0947 17.792 29.4889 19.1322 29.0811 20.9275C28.3781 20.3314 27.4682 19.9718 26.4742 19.9718C24.2471 19.9718 22.4416 21.7772 22.4416 24.0043C22.4416 25.9962 23.8858 27.6508 25.7842 27.9781V34.9859H37.991V31.4982L41.5876 34.9859V25.3948L37.991 28.5555V24.8499H36.4651H35.6799ZM34.8663 21.9336C34.8663 23.017 33.988 23.8954 32.9045 23.8954C31.8211 23.8954 30.9427 23.017 30.9427 21.9336C30.9427 20.8501 31.8211 19.9718 32.9045 19.9718C33.988 19.9718 34.8663 20.8501 34.8663 21.9336ZM28.327 23.8954C28.327 24.9788 27.4487 25.8572 26.3652 25.8572C25.2817 25.8572 24.4034 24.9788 24.4034 23.8954C24.4034 22.8119 25.2817 21.9336 26.3652 21.9336C27.4487 21.9336 28.327 22.8119 28.327 23.8954Z" fill="white"/>
<path d="M102.458 28.4505L104.868 28.0823L105.188 27.7847C104.994 27.5764 104.802 27.5416 104.793 27.5401C104.792 27.5399 104.791 27.5397 104.791 27.5397C104.791 27.5394 104.851 27.5465 104.981 27.5276C105.267 27.4862 105.696 27.3484 106.169 27.0773C107.12 26.5315 107.974 25.613 108.226 24.4166C108.661 22.3537 108.272 21.8211 108.193 21.7372C108.101 21.638 107.905 21.5376 107.439 21.4851C107.108 21.6763 106.751 21.7626 106.49 21.8096C106.069 21.8857 105.573 21.9135 105.069 21.9159C104.415 22.378 103.762 23.1684 103.243 24.2018C102.652 25.3785 102.313 26.7206 102.313 27.9123C102.313 28.7053 102.378 29.6737 102.812 30.4245C103.016 30.7784 103.351 31.1678 103.992 31.4268C103.723 31.1551 103.508 30.8666 103.342 30.6122C103.093 30.2298 102.906 29.8491 102.776 29.5522C102.56 29.2166 102.458 28.8335 102.458 28.4505Z" fill="white"/>
<path d="M116.121 22.8181C117.058 22.9079 117.564 23.6071 117.79 24.0831C117.859 24.2291 117.913 24.3765 117.955 24.5235C118.005 24.3449 118.015 24.1405 117.976 23.8984C117.86 23.1602 117.728 22.7101 117.608 22.4432C117.562 22.3394 117.525 22.2795 117.502 22.2478C117.473 22.2454 117.427 22.2441 117.358 22.2486C117.129 22.2634 116.811 22.3283 116.313 22.4595C116.307 22.461 116.286 22.4663 116.246 22.501C116.2 22.54 116.132 22.6133 116.053 22.7404C116.039 22.763 116.025 22.7864 116.012 22.8107C116.048 22.8121 116.084 22.8146 116.121 22.8181Z" fill="white"/>
<path d="M112.7 31.5363C112.71 31.7759 112.721 31.9851 112.735 32.1626C112.759 32.1588 112.784 32.1546 112.808 32.1501C112.761 31.5533 112.722 30.8724 112.705 30.1792C112.675 28.9608 112.71 27.5554 112.959 26.504C112.962 26.4914 112.965 26.4788 112.968 26.4663C112.866 26.3827 112.788 26.2973 112.733 26.2261C112.709 27.0253 112.691 27.8361 112.681 28.6088C112.666 29.7298 112.67 30.752 112.7 31.5363Z" fill="white"/>
<path d="M105.346 28.0092C105.303 27.9259 105.249 27.8503 105.188 27.7847L104.868 28.0823L105.346 28.0092Z" fill="white"/>
<path d="M99.9624 18.2525L99.1763 18.3353L100.029 18.4636C101.194 18.639 102.92 18.8449 104.316 18.9012C104.42 18.8542 104.526 18.8107 104.633 18.7702C104.535 18.7158 104.399 18.6554 104.22 18.5948C103.859 18.4723 103.397 18.374 102.873 18.306C101.819 18.1692 100.687 18.1762 99.9624 18.2525Z" fill="white"/>
<path d="M97.7778 18.2608H96.2778H94.7588C94.7707 18.2784 94.7814 18.2939 94.7909 18.3074C94.8856 18.3378 95.0273 18.3688 95.2139 18.3934C95.6093 18.4455 96.0236 18.4469 96.2778 18.4469C97.175 18.4469 97.5735 19.1414 97.6524 19.2945C97.765 19.5127 97.807 19.7172 97.8242 19.8093C97.8639 20.022 97.8754 20.2524 97.8798 20.4386C97.8891 20.8364 97.8704 21.3664 97.8386 21.9531C97.8242 22.2184 97.8067 22.5036 97.7866 22.8043C97.9732 21.6284 98.1723 20.5062 98.3315 19.6672L98.5722 18.399L98.3052 18.4271V16.7608V14.4944C98.1949 14.5263 98.0906 14.5607 97.9975 14.5959C97.9841 14.601 97.9712 14.606 97.9588 14.6109C97.9263 14.7569 97.895 14.9467 97.868 15.173C97.8013 15.7316 97.7778 16.3602 97.7778 16.7608V18.2608Z" fill="white"/>
<path d="M97.4385 29.6093C97.3786 29.4816 97.3345 29.3492 97.3019 29.2202C97.2643 29.7732 97.2323 30.2968 97.2091 30.7731C97.1801 31.3709 97.1661 31.8709 97.1703 32.2492C97.1742 32.2497 97.1781 32.2503 97.182 32.2508C97.3822 32.2782 97.6105 32.2945 97.8509 32.2997C97.6198 31.827 97.5301 31.365 97.493 30.9746C97.465 30.6792 97.4646 30.3027 97.4643 30.0676C97.4643 29.9915 97.4642 29.9303 97.4632 29.8913C97.4583 29.6942 97.4416 29.6226 97.4387 29.6105L97.4385 29.6093Z" fill="white"/>
<path d="M92.2348 26.2734V26.3192C92.2348 26.9433 92.1622 27.6835 92.084 28.3921C92.0617 28.5945 92.0387 28.7955 92.0159 28.9953C91.9552 29.5273 91.8956 30.05 91.8513 30.5636C91.7901 31.2722 91.7678 31.8684 91.8046 32.321C91.8102 32.3897 91.8168 32.4496 91.8237 32.5015C91.918 32.4783 92.0312 32.4445 92.1635 32.3965C92.3281 32.3368 92.4977 32.2644 92.6661 32.1846C92.4149 31.4885 92.2582 30.6039 92.2582 29.5054C92.2582 28.9534 92.2984 28.3087 92.3371 27.6884C92.3489 27.4989 92.3606 27.3116 92.3709 27.13C92.4177 26.3086 92.4433 25.5323 92.3889 24.8444C92.3331 24.139 92.2022 23.6722 92.039 23.3937C91.9171 23.1858 91.7792 23.0694 91.4831 23.0174C91.2257 22.9722 91.0419 22.9577 90.9164 22.9557C90.9141 22.9812 90.9118 23.0086 90.9092 23.0394C90.9061 23.0761 90.9026 23.1176 90.8982 23.1664C90.8908 23.2497 90.8799 23.3689 90.8589 23.5026C91.4156 23.5689 91.779 23.9224 91.9526 24.1914C92.108 24.4319 92.1588 24.6601 92.1751 24.7365C92.2136 24.9166 92.2218 25.0983 92.2257 25.1979C92.2348 25.4278 92.2348 25.7845 92.2348 26.2734Z" fill="white"/>
<path d="M87.4692 28.617L86.2904 28.2793C86.3274 29.3161 86.376 30.2626 86.4376 30.996C86.4559 31.213 86.4747 31.4048 86.4939 31.5702C86.5368 31.4673 86.5825 31.352 86.6308 31.2241C86.9 30.5109 87.1852 29.5811 87.4692 28.617C87.4692 28.6171 87.4693 28.6169 87.4692 28.617Z" fill="white"/>
<path d="M86.1909 23.0955C86.1954 23.863 86.2049 24.7347 86.2211 25.6316C86.316 25.0615 86.4001 24.4876 86.4603 23.959C86.4987 23.6221 86.525 23.3221 86.5396 23.0649C86.4199 23.0725 86.3032 23.0825 86.1909 23.0955Z" fill="white"/>
<path d="M75.3165 28.2913C75.6082 27.0606 75.8706 25.8153 76.1109 24.6749C76.1292 24.5882 76.1473 24.5021 76.1653 24.4166C76.6599 22.0713 77.1571 19.0593 77.4674 16.5749C77.6093 15.4386 77.709 14.4357 77.7533 13.6685C77.6779 13.6979 77.6009 13.7291 77.5228 13.762C77.1543 13.9174 76.8169 14.0876 76.5713 14.2348C76.5403 14.6287 76.4947 15.1625 76.4425 15.7665C76.34 16.9533 76.1981 18.5516 76.0405 20.3067C75.8082 22.8958 75.5416 25.829 75.3165 28.2913Z" fill="white"/>
<path d="M68.4268 19.2187L71.057 19.3693C70.8647 17.5206 70.6772 15.8743 70.5143 14.6921C70.4807 14.4483 70.4487 14.2288 70.4186 14.0345C70.2017 14.0435 69.9749 14.0562 69.7546 14.074C69.6285 14.0843 69.5126 14.0956 69.408 14.1077C69.407 14.1134 69.406 14.1192 69.4049 14.125C69.3207 14.592 69.2013 15.2251 69.0594 15.9648C68.8786 16.907 68.6595 18.0305 68.4268 19.2187Z" fill="white"/>
<path d="M74.6905 30.703L72.1069 30.6926C71.8578 27.7176 71.4609 23.2718 71.0753 19.5456C71.1636 22.257 71.4122 26.2412 71.8753 29.6062C72.1131 31.3347 72.3993 32.8365 72.7283 33.9044C72.8299 34.2341 72.9273 34.4947 73.0156 34.6934C73.0399 34.663 73.0658 34.6292 73.0934 34.5916C73.4678 34.0818 73.8657 33.2271 74.2614 32.0725C74.4105 31.6375 74.5533 31.1782 74.6905 30.703Z" fill="white"/>
<path d="M62.9333 14.0777C62.5983 14.1905 62.3014 14.2968 62.0553 14.3927C62.0581 14.4307 62.0609 14.47 62.0639 14.5107C62.1078 15.1109 62.1724 15.944 62.2547 16.9353C62.4194 18.9187 62.6545 21.5284 62.9364 24.1686C63.2188 26.814 63.5458 29.468 63.8929 31.5486C64.0669 32.5923 64.2411 33.4612 64.4099 34.1012C64.4947 34.4225 64.5705 34.6568 64.6332 34.8137C64.6493 34.8539 64.6625 34.8838 64.6723 34.9049C64.68 34.9119 64.6872 34.9181 64.6938 34.9237C64.7152 34.9112 64.7421 34.8937 64.7747 34.8697C64.9264 34.7577 65.1066 34.5699 65.2882 34.3212C65.4592 34.0868 65.5973 33.8454 65.6864 33.6611C65.6802 33.6733 65.6824 33.6655 65.6921 33.6297C65.7067 33.5764 65.7383 33.4609 65.7849 33.2567C65.8582 32.9358 65.9463 32.5015 66.0461 31.9721C66.2453 30.9159 66.4824 29.5294 66.7295 28.0158C66.7581 27.8401 66.7869 27.6628 66.8158 27.4842C66.7471 27.848 66.6883 28.1651 66.6413 28.4253C66.6006 28.6512 66.5701 28.8272 66.5503 28.9511C66.54 29.0155 66.5349 29.0523 66.5327 29.0684C66.5315 29.0893 66.5287 29.1324 66.5216 29.1855C66.5173 29.2151 66.5044 29.2875 66.495 29.3303C66.4772 29.3989 66.4097 29.5871 66.3529 29.7034C66.1981 29.9347 65.5228 30.4065 64.976 30.4871C64.4965 30.3885 63.9117 29.9831 63.7745 29.8026C63.7183 29.7083 63.6446 29.5531 63.6223 29.4951C63.6094 29.4576 63.5899 29.3938 63.5827 29.3673C63.5612 29.2853 63.551 29.2161 63.5492 29.204L63.549 29.2027C63.5396 29.1399 63.5332 29.0695 63.5303 29.0379L63.5302 29.0361C63.5217 28.9431 63.5104 28.7997 63.497 28.6197C63.47 28.2556 63.4322 27.7091 63.3888 27.0385C63.3018 25.6968 63.1911 23.8472 63.0962 21.9467C63.0014 20.0492 62.9216 18.0875 62.8976 16.5266C62.8857 15.7487 62.8872 15.0505 62.9095 14.5019C62.9155 14.3554 62.9232 14.2129 62.9333 14.0777Z" fill="white"/>
<path d="M66.4526 13.5926C66.46 13.5516 66.467 13.5124 66.4737 13.4747C66.222 13.728 66.0428 13.951 65.9422 14.116C65.929 14.2269 65.9164 14.3941 65.907 14.6241C65.8881 15.0899 65.8856 15.7233 65.8973 16.4805C65.8974 16.4918 65.8976 16.5032 65.8978 16.5147C65.9741 16.1217 66.0463 15.748 66.1132 15.3994C66.2546 14.6622 66.3715 14.0425 66.4526 13.5926Z" fill="white"/>
<path fill-rule="evenodd" clip-rule="evenodd" d="M62.9333 14.0777C62.5983 14.1905 62.3014 14.2968 62.0553 14.3927L62.0639 14.5107C62.1078 15.1109 62.1724 15.944 62.2547 16.9353C62.4194 18.9187 62.6545 21.5284 62.9364 24.1686C63.2188 26.814 63.5458 29.468 63.8929 31.5486C64.0669 32.5923 64.2411 33.4612 64.4099 34.1012C64.4947 34.4225 64.5705 34.6568 64.6332 34.8137C64.6493 34.8539 64.6625 34.8838 64.6723 34.9049C64.68 34.9119 64.6872 34.9181 64.6938 34.9237C64.7152 34.9112 64.7421 34.8937 64.7747 34.8697C64.9264 34.7577 65.1066 34.5699 65.2882 34.3212C65.4592 34.0868 65.5973 33.8454 65.6864 33.6611C65.6802 33.6733 65.6824 33.6655 65.6921 33.6297C65.7067 33.5764 65.7383 33.4609 65.7849 33.2567C65.8582 32.9358 65.9463 32.5015 66.0461 31.9721C66.2453 30.9159 66.4824 29.5294 66.7295 28.0158C66.7581 27.8401 66.7869 27.6628 66.8158 27.4842C66.7471 27.848 66.6883 28.1651 66.6413 28.4253C66.6006 28.6512 66.5701 28.8272 66.5503 28.9511C66.54 29.0155 66.5349 29.0523 66.5327 29.0684C66.5315 29.0893 66.5287 29.1324 66.5216 29.1855C66.5173 29.2151 66.5044 29.2875 66.495 29.3303C66.4772 29.3989 66.4097 29.5871 66.3529 29.7034C66.1981 29.9347 65.5228 30.4065 64.976 30.4871C64.4965 30.3885 63.9117 29.9831 63.7745 29.8026C63.7183 29.7083 63.6446 29.5531 63.6223 29.4951C63.6094 29.4576 63.5899 29.3938 63.5827 29.3673C63.5612 29.2853 63.551 29.2161 63.5492 29.204L63.549 29.2027C63.5396 29.1399 63.5332 29.0695 63.5303 29.0379L63.5302 29.0361C63.5217 28.9431 63.5104 28.7997 63.497 28.6197C63.47 28.2556 63.4322 27.7091 63.3888 27.0385C63.3018 25.6968 63.1911 23.8472 63.0962 21.9467C63.0014 20.0492 62.9216 18.0875 62.8976 16.5266C62.8857 15.7487 62.8872 15.0505 62.9095 14.5019C62.9155 14.3554 62.9232 14.2129 62.9333 14.0777ZM69.1543 31.6549C69.099 31.9638 69.0455 32.2559 68.9941 32.5281C68.8914 33.0729 68.7952 33.5496 68.7097 33.9243C68.6396 34.2315 68.5406 34.644 68.4061 34.9276C68.1059 35.5603 67.4703 36.6091 66.5555 37.2839C66.0805 37.6343 65.4139 37.9683 64.6072 37.9498C63.7606 37.9304 63.0238 37.5302 62.4354 36.9102C62.1369 36.5956 61.9573 36.2019 61.8476 35.9273C61.7221 35.6134 61.6104 35.2502 61.5091 34.8663C61.3059 34.0957 61.114 33.1226 60.9337 32.0422C60.5722 29.8746 60.2378 27.1519 59.9533 24.4871C59.3888 19.1995 59 13.9362 59 13.5746C59 12.9703 59.3369 12.5829 59.4514 12.4607C59.6009 12.3013 59.7597 12.19 59.8641 12.1226C60.0816 11.9823 60.3354 11.8614 60.5646 11.762C61.0394 11.5561 61.6594 11.3364 62.3018 11.1265C63.5991 10.7027 65.1411 10.2697 66.1648 10L67.0391 11.8814C67.1834 11.7344 67.3259 11.6379 67.4108 11.5863C67.6819 11.4216 67.9693 11.3341 68.1665 11.2836C68.585 11.1763 69.0816 11.1187 69.5122 11.0838C70.3918 11.0125 71.3213 11.0126 71.5805 11.0126H71.5861C72.082 11.0126 72.4261 11.2462 72.5932 11.3924C72.7601 11.5384 72.8597 11.6891 72.9081 11.7689C73.007 11.9318 73.0631 12.0877 73.0902 12.1676C73.1513 12.3479 73.199 12.5539 73.2372 12.7403C73.3172 13.1306 73.4009 13.6636 73.4862 14.2825C73.5008 14.3883 73.5155 14.4974 73.5304 14.6097C73.5472 14.4097 73.5618 14.2328 73.574 14.0812C73.592 13.858 73.6022 13.7181 73.6078 13.6425C73.6121 13.5832 73.6135 13.5636 73.6135 13.5746C73.6135 13.1405 73.7855 12.8183 73.8884 12.6569C74.0013 12.4799 74.1298 12.3432 74.2283 12.2487C74.4267 12.0587 74.6584 11.8945 74.8664 11.762C75.2941 11.4894 75.8301 11.2199 76.3575 10.9976C76.8812 10.7768 77.4677 10.5725 77.9987 10.4628C78.2584 10.4091 78.5728 10.3634 78.8913 10.3771C79.1466 10.3881 79.7576 10.4482 80.2328 10.949C80.5523 11.2856 80.6498 11.6797 80.6816 11.8144C80.7277 12.0092 80.7498 12.2075 80.7621 12.3794C80.7868 12.7286 80.782 13.1484 80.7612 13.5945C80.7533 13.7643 80.7429 13.9436 80.73 14.1313C81.338 14.0029 81.9942 14.0477 82.6654 14.2835C83.5869 14.6072 84.4886 15.1343 85.0956 15.8806C85.7419 16.6752 86.0984 17.818 85.5391 18.9968L85.5156 19.0465C85.3302 19.4372 85.1139 19.893 84.883 20.3017C85.2053 20.2071 85.5361 20.1517 85.8361 20.1165C86.4906 20.0399 87.1928 20.04 87.6792 20.04L87.7113 20.04C88.2742 20.04 88.667 20.2832 88.9293 20.5579C89.1178 20.408 89.3388 20.2778 89.5967 20.1767C90.3077 19.8979 91.1316 19.9097 92.0021 20.0626C92.1501 20.0886 92.2929 20.1215 92.4306 20.1609C92.1467 19.7828 91.8676 19.2918 91.6611 18.9142C91.3589 18.3616 91.0687 17.7776 90.8913 17.4038L89.8745 15.2608H92.2465H94.8438C94.8566 15.1128 94.8717 14.964 94.8892 14.8172C94.9311 14.4661 94.9917 14.0873 95.083 13.7428C95.155 13.4713 95.3114 12.9449 95.6936 12.5421C96.0723 12.143 96.6095 11.9135 96.936 11.79C97.3333 11.6397 97.7797 11.5182 98.2002 11.4376C98.6023 11.3606 99.0767 11.3022 99.5054 11.3313C99.7019 11.3447 100.037 11.3842 100.372 11.553C100.758 11.748 101.305 12.2266 101.305 13.0436V15.1993C101.934 15.2057 102.607 15.2463 103.259 15.3309C103.906 15.4148 104.575 15.5474 105.183 15.7535C105.766 15.9511 106.43 16.2613 106.932 16.7813L106.958 16.8091C107.237 17.0975 107.618 17.4919 107.897 17.998C107.996 18.1777 108.078 18.3629 108.145 18.555C108.894 18.6862 109.732 18.9873 110.388 19.6923C110.584 19.9019 110.749 20.1307 110.887 20.3777C111.474 19.8932 112.318 19.509 113.411 19.509C113.89 19.509 114.336 19.652 114.705 19.9212C114.953 19.7674 115.233 19.6414 115.548 19.5584C116.058 19.4241 116.621 19.2899 117.165 19.2549C117.727 19.2186 118.389 19.2792 119.019 19.6481C119.652 20.0187 120.066 20.5904 120.347 21.2176C120.621 21.8302 120.804 22.5748 120.939 23.4298C121.244 25.3532 120.371 26.7487 119.264 27.6006C118.232 28.3955 116.975 28.7566 116.126 28.8684L115.703 28.9241C115.693 29.2955 115.694 29.6938 115.704 30.106C115.732 31.2574 115.829 32.3787 115.908 33.0458L116.041 34.1664L115.001 34.6048C114.499 34.8166 113.694 35.0838 112.897 35.166C112.503 35.2067 112.003 35.2143 111.508 35.0733C110.983 34.9236 110.376 34.5727 110.04 33.8655C109.906 33.5836 109.842 33.2541 109.807 33.0001C108.882 33.9673 107.564 34.7225 105.819 34.7225C104.266 34.7225 103.029 34.3855 102.071 33.8133C101.859 34.2635 101.483 34.54 101.318 34.643C100.97 34.8614 100.567 34.9861 100.247 35.0639C99.899 35.1484 99.5172 35.2078 99.1361 35.2461C98.3823 35.3217 97.5212 35.3252 96.7752 35.2231C96.4069 35.1727 96.0018 35.0881 95.6322 34.9382C95.4294 34.8559 95.1109 34.7041 94.8275 34.431C94.3393 34.7165 93.7663 35.0065 93.1861 35.2168C92.7181 35.3865 92.1556 35.538 91.5828 35.5455C91.0043 35.5531 90.2388 35.41 89.6467 34.7861C89.2629 34.3816 89.0571 33.8803 88.9433 33.4082C88.9363 33.4212 88.9294 33.434 88.9224 33.4468C88.8287 33.6184 88.7141 33.8056 88.5755 33.9797C88.4488 34.1388 88.231 34.3787 87.9066 34.5496C87.4284 34.8016 86.6026 35.2122 85.7012 35.0222C84.8967 34.8526 84.3984 34.309 84.0771 33.7832C84.0736 33.7776 84.0702 33.772 84.0669 33.7664C83.977 33.6177 83.9012 33.4708 83.8365 33.3345C83.681 33.0067 83.6116 32.6079 83.5719 32.3509C83.5231 32.0347 83.4826 31.6568 83.4482 31.2473C83.379 30.4251 83.3276 29.3948 83.2895 28.3101C83.2131 26.1365 83.1878 23.6752 83.1878 22.071V21.9061C83.1709 21.9109 83.1537 21.9156 83.1364 21.92C82.994 21.9562 82.8391 21.9779 82.6722 21.9779M82.6722 21.976V21.54H82.18C82.18 21.8666 82.4285 22.0013 82.4277 22.0028C82.4275 22.0031 82.4206 21.9997 82.4045 21.9929C82.3711 21.9789 82.3341 21.9688 82.275 21.955L82.2397 21.9466C82.2364 21.9458 82.2307 21.9444 82.2233 21.9426C82.2103 21.9393 82.1918 21.9345 82.171 21.9287C82.1667 21.9275 82.1623 21.9262 82.1578 21.9249C82.1389 21.9193 82.1 21.9077 82.0524 21.8901L82.0502 21.8893C82.0205 21.8783 81.8939 21.8315 81.7522 21.7394C81.7112 21.7127 81.6259 21.6553 81.5291 21.562C81.5277 21.5646 81.5263 21.5671 81.5249 21.5697C81.3113 21.9619 80.9721 22.2552 80.8312 22.377C80.8271 22.3806 80.8232 22.384 80.8194 22.3872C80.7476 22.4494 80.6915 22.497 80.6459 22.5355C80.6502 23.4797 80.6707 25.6645 80.7692 27.8446C80.8316 29.2263 80.9239 30.5693 81.0572 31.5834C81.103 31.9321 81.1507 32.2181 81.1977 32.4407C81.2608 32.4188 81.324 32.3874 81.3828 32.351C81.3878 32.3479 81.3928 32.3448 81.3978 32.3416C81.4697 32.2956 81.5345 32.2423 81.5841 32.19L83.7602 34.2551C83.0351 35.0191 81.3171 36.0626 79.4534 35.0806C78.9765 34.8294 78.7403 34.4183 78.6427 34.2295C78.5222 33.9964 78.4381 33.7475 78.3762 33.5278C78.2507 33.0827 78.157 32.5393 78.0827 31.9742C78.0156 31.4635 77.9592 30.8926 77.9117 30.2919C77.6639 31.2482 77.3939 32.1857 77.0994 33.045C76.6762 34.28 76.1607 35.4831 75.5115 36.3672C74.8903 37.2132 73.802 38.1963 72.2845 37.8764C71.4079 37.6917 70.8879 37.0157 70.6117 36.5629C70.302 36.0552 70.0596 35.4316 69.8612 34.7876C69.5862 33.8948 69.3529 32.8182 69.1543 31.6549M81.3652 19.5859C81.5254 19.371 81.7055 19.2506 81.7889 19.1997C81.9431 19.1057 82.079 19.0616 82.1383 19.0437C82.1391 19.0435 82.1399 19.0432 82.1407 19.043C82.147 19.0333 82.1536 19.023 82.1604 19.0122C82.3432 18.7233 82.5418 18.3147 82.7873 17.798C82.7818 17.7906 82.7755 17.7825 82.7683 17.7736C82.6194 17.5906 82.2613 17.3212 81.6711 17.1139C81.4938 17.0517 81.3994 17.0584 81.3631 17.0641C81.3286 17.0696 81.2805 17.0843 81.2087 17.141C81.0345 17.2787 80.7811 17.6233 80.5749 18.2752C80.5192 18.4514 80.54 18.6126 80.6393 18.8034C80.7542 19.0243 80.9343 19.1939 81.0149 19.2505L81.1024 19.3121L81.1803 19.3854C81.2438 19.4451 81.3062 19.512 81.3652 19.5859ZM82.6722 21.976C82.6713 21.9761 82.6705 21.9762 82.6697 21.9762C82.6535 21.9771 82.6413 21.9775 82.6354 21.9777M87.4692 28.617L86.2904 28.2793C86.3274 29.3161 86.376 30.2626 86.4376 30.996C86.4559 31.213 86.4747 31.4048 86.4939 31.5702C86.5368 31.4673 86.5825 31.352 86.6308 31.2241C86.9 30.5109 87.1852 29.5811 87.4692 28.617C87.4692 28.6171 87.4693 28.6169 87.4692 28.617ZM86.0996 32.078C86.0996 32.078 86.1005 32.0778 86.1023 32.0774ZM97.1703 32.2492L97.182 32.2508C97.3822 32.2782 97.6105 32.2945 97.8509 32.2997C97.6198 31.827 97.5301 31.365 97.493 30.9746C97.465 30.6792 97.4646 30.3027 97.4643 30.0676C97.4643 29.9915 97.4642 29.9303 97.4632 29.8913C97.4583 29.6942 97.4416 29.6226 97.4387 29.6105L97.4385 29.6093C97.3786 29.4816 97.3345 29.3492 97.3019 29.2202C97.2643 29.7732 97.2323 30.2968 97.2091 30.7731C97.1801 31.3709 97.1661 31.8709 97.1703 32.2492ZM97.7866 22.8043C97.9732 21.6284 98.1723 20.5062 98.3315 19.6672L98.5722 18.399L98.3052 18.4271V16.7608V14.4944C98.1949 14.5263 98.0906 14.5607 97.9975 14.5959L97.9588 14.6109C97.9263 14.7569 97.895 14.9467 97.868 15.173C97.8013 15.7316 97.7778 16.3602 97.7778 16.7608V18.2608H96.2778H94.7588C94.7707 18.2784 94.7814 18.2939 94.7909 18.3074C94.8856 18.3378 95.0273 18.3688 95.2139 18.3934C95.6093 18.4455 96.0236 18.4469 96.2778 18.4469C97.175 18.4469 97.5735 19.1414 97.6524 19.2945C97.765 19.5127 97.807 19.7172 97.8242 19.8093C97.8639 20.022 97.8754 20.2524 97.8798 20.4386C97.8891 20.8364 97.8704 21.3664 97.8386 21.9531C97.8242 22.2184 97.8067 22.5036 97.7866 22.8043ZM99.3019 14.3244C99.3165 14.3254 99.3139 14.3263 99.2977 14.3241C99.2992 14.3242 99.3006 14.3243 99.3019 14.3244ZM99.1763 18.3353L100.029 18.4636C101.194 18.639 102.92 18.8449 104.316 18.9012C104.42 18.8542 104.526 18.8107 104.633 18.7702C104.535 18.7158 104.399 18.6554 104.22 18.5948C103.859 18.4723 103.397 18.374 102.873 18.306C101.819 18.1692 100.687 18.1762 99.9624 18.2525L99.1763 18.3353ZM101.261 21.6535C101.182 21.6442 101.103 21.6348 101.025 21.6254C100.993 21.8065 100.961 21.9925 100.929 22.1823C101.034 22.0032 101.145 21.8266 101.261 21.6535ZM107.439 21.4851C107.905 21.5376 108.101 21.638 108.193 21.7372C108.272 21.8211 108.661 22.3537 108.226 24.4166C107.974 25.613 107.12 26.5315 106.169 27.0773C105.696 27.3484 105.267 27.4862 104.981 27.5276C104.851 27.5465 104.791 27.5394 104.791 27.5397C104.791 27.5397 104.792 27.5399 104.793 27.5401C104.802 27.5416 104.994 27.5764 105.188 27.7847C105.249 27.8503 105.303 27.9259 105.346 28.0092L104.868 28.0823L102.458 28.4505C102.458 28.8335 102.56 29.2166 102.776 29.5522C102.906 29.8491 103.093 30.2298 103.342 30.6122C103.508 30.8666 103.723 31.1551 103.992 31.4268C103.351 31.1678 103.016 30.7784 102.812 30.4245C102.378 29.6737 102.313 28.7053 102.313 27.9123C102.313 26.7206 102.652 25.3785 103.243 24.2018C103.762 23.1684 104.415 22.378 105.069 21.9159C105.573 21.9135 106.069 21.8857 106.49 21.8096C106.751 21.7626 107.108 21.6763 107.439 21.4851ZM108.544 29.1201C108.541 29.0985 108.541 29.0879 108.542 29.0914C108.542 29.0935 108.543 29.1013 108.544 29.1153C108.544 29.1167 108.544 29.1183 108.544 29.1201ZM94.8169 22.2381C94.7594 22.1153 94.6963 21.9946 94.6272 21.8767C94.4953 21.6516 94.3436 21.4409 94.1719 21.2478C94.3989 21.3036 94.6213 21.3412 94.8221 21.3677C94.8359 21.3695 94.8498 21.3713 94.8635 21.373C94.8579 21.5025 94.8511 21.6418 94.843 21.7907C94.8353 21.9338 94.8265 22.0831 94.8169 22.2381ZM92.6661 32.1846C92.4149 31.4885 92.2582 30.6039 92.2582 29.5054C92.2582 28.9534 92.2984 28.3087 92.3371 27.6884C92.3489 27.4989 92.3606 27.3116 92.3709 27.13C92.4177 26.3086 92.4433 25.5323 92.3889 24.8444C92.3331 24.139 92.2022 23.6722 92.039 23.3937C91.9171 23.1858 91.7792 23.0694 91.4831 23.0174C91.2257 22.9722 91.0419 22.9577 90.9164 22.9557C90.9141 22.9812 90.9118 23.0086 90.9092 23.0394C90.9061 23.0761 90.9026 23.1176 90.8982 23.1664C90.8908 23.2497 90.8799 23.3689 90.8589 23.5026C91.4156 23.5689 91.779 23.9224 91.9526 24.1914C92.108 24.4319 92.1588 24.6601 92.1751 24.7365C92.2136 24.9166 92.2218 25.0983 92.2257 25.1979C92.2348 25.4278 92.2348 25.7845 92.2348 26.2734V26.3192C92.2348 26.9433 92.1622 27.6835 92.084 28.3921C92.0617 28.5945 92.0387 28.7955 92.0159 28.9953C91.9552 29.5273 91.8956 30.05 91.8513 30.5636C91.7901 31.2722 91.7678 31.8684 91.8046 32.321C91.8102 32.3897 91.8168 32.4496 91.8237 32.5015C91.918 32.4783 92.0312 32.4445 92.1635 32.3965C92.3281 32.3368 92.4977 32.2644 92.6661 32.1846ZM112.808 32.1501C112.761 31.5533 112.722 30.8724 112.705 30.1792C112.675 28.9608 112.71 27.5554 112.959 26.504L112.968 26.4663C112.866 26.3827 112.788 26.2973 112.733 26.2261C112.709 27.0253 112.691 27.8361 112.681 28.6088C112.666 29.7298 112.67 30.752 112.7 31.5363C112.71 31.7759 112.721 31.9851 112.735 32.1626C112.759 32.1588 112.784 32.1546 112.808 32.1501ZM115.849 27.3299C115.849 27.3299 115.849 27.3298 115.849 27.3299ZM117.955 24.5235C118.005 24.3449 118.015 24.1405 117.976 23.8984C117.86 23.1602 117.728 22.7101 117.608 22.4432C117.562 22.3394 117.525 22.2795 117.502 22.2478C117.473 22.2454 117.427 22.2441 117.358 22.2486C117.129 22.2634 116.811 22.3283 116.313 22.4595C116.307 22.461 116.286 22.4663 116.246 22.501C116.2 22.54 116.132 22.6133 116.053 22.7404C116.039 22.763 116.025 22.7864 116.012 22.8107C116.048 22.8121 116.084 22.8146 116.121 22.8181C117.058 22.9079 117.564 23.6071 117.79 24.0831C117.859 24.2291 117.913 24.3765 117.955 24.5235ZM116.516 25.6246C116.524 25.6163 116.528 25.6129 116.528 25.6132C116.528 25.6136 116.524 25.6177 116.516 25.6246ZM74.6905 30.703L72.1069 30.6926C71.8578 27.7176 71.4609 23.2718 71.0753 19.5456C71.1636 22.257 71.4122 26.2412 71.8753 29.6062C72.1131 31.3347 72.3993 32.8365 72.7283 33.9044C72.8299 34.2341 72.9273 34.4947 73.0156 34.6934C73.0399 34.663 73.0658 34.6292 73.0934 34.5916C73.4678 34.0818 73.8657 33.2271 74.2614 32.0725C74.4105 31.6375 74.5533 31.1782 74.6905 30.703ZM72.7429 34.9526C72.743 34.9506 72.7533 34.944 72.7735 34.9389C72.7529 34.9522 72.7428 34.9547 72.7429 34.9526ZM73.24 35.0995C73.2503 35.1093 73.2552 35.1155 73.2551 35.1161C73.255 35.1168 73.2498 35.1119 73.24 35.0995ZM71.057 19.3693L68.4268 19.2187C68.6595 18.0305 68.8786 16.907 69.0594 15.9648C69.2013 15.2251 69.3207 14.592 69.4049 14.125L69.408 14.1077C69.5126 14.0956 69.6285 14.0843 69.7546 14.074C69.9749 14.0562 70.2017 14.0435 70.4186 14.0345C70.4487 14.2288 70.4807 14.4483 70.5143 14.6921C70.6772 15.8743 70.8647 17.5206 71.057 19.3693ZM69.5587 13.0436C69.5587 13.0767 69.5576 13.1091 69.5556 13.1406C69.5576 13.1075 69.5587 13.0748 69.5587 13.0436ZM64.6314 34.9539C64.6305 34.9542 64.6301 34.9543 64.6301 34.9543ZM64.7461 34.9619C64.7518 34.964 64.7546 34.9656 64.7546 34.9659C64.7546 34.9661 64.7518 34.9651 64.7461 34.9619ZM126.609 26.6288C126.611 26.6407 126.612 26.6535 126.614 26.6675C126.641 26.8808 126.662 27.2011 126.678 27.6217C126.708 28.456 126.708 29.535 126.708 30.638V30.667C126.708 31.7405 126.708 32.8398 126.74 33.6728C126.756 34.0848 126.782 34.4879 126.83 34.8077C126.852 34.9538 126.891 35.1747 126.975 35.3921C127.014 35.4949 127.101 35.6979 127.273 35.8996C127.453 36.1115 127.849 36.4505 128.458 36.4505C129.702 36.4505 130.701 36.1375 131.418 35.5403C132.124 34.952 132.458 34.1597 132.458 33.4505V26.4319C132.793 26.3798 133.24 26.3835 133.808 26.4795C134.765 26.6415 135.724 27.0104 136.287 27.2921L137.254 27.7756L137.691 27.3392C137.785 29.1929 137.889 31.1781 137.96 32.5293L138.018 33.6368L139.094 33.9057C139.515 34.0108 140.208 34.127 140.872 34.054C141.197 34.0183 141.679 33.9208 142.115 33.6073C142.631 33.236 142.958 32.6467 142.958 31.9505C142.958 31.7992 142.971 31.4135 142.994 30.8681C143.051 31.2169 143.163 31.5401 143.237 31.7431C143.347 32.0414 143.473 32.3267 143.573 32.533C143.796 33.136 144.184 33.6639 144.781 33.9837C145.379 34.304 145.981 34.3031 146.394 34.2514C146.795 34.2013 147.165 34.0825 147.375 34.0149L147.386 34.0114L147.402 34.0063C147.497 33.9755 147.553 33.9576 147.595 33.9452C147.836 33.9267 148.202 33.8493 148.538 33.5625C148.642 33.4744 148.727 33.3799 148.797 33.2826C149.118 33.5963 149.493 33.7884 149.858 33.8928C150.331 34.0278 150.774 34.0134 151.045 33.9933C151.184 33.983 151.318 33.9672 151.392 33.9591C151.442 33.9536 151.467 33.9514 151.476 33.9506C151.477 33.9505 151.478 33.9504 151.478 33.9504C152.027 33.9436 152.403 33.6652 152.585 33.4929C152.77 33.3166 152.888 33.1275 152.955 33.008C153.092 32.7633 153.193 32.4862 153.266 32.2604C153.416 31.8019 153.568 31.1953 153.716 30.6039L153.726 30.5643C154.053 29.256 154.39 27.9411 154.799 27.1213C154.842 27.0361 154.884 26.9525 154.926 26.8706C154.958 27.9773 154.958 29.2381 154.958 30.4505C154.958 32.0059 155.321 33.5597 156.679 34.1417C157.328 34.4197 157.958 34.3441 158.409 34.1938C158.852 34.046 159.238 33.792 159.519 33.5112C159.771 33.2593 159.89 32.9793 159.946 32.8307C160.01 32.6603 160.049 32.4922 160.077 32.3541C160.131 32.0783 160.163 31.7632 160.187 31.4624C160.212 31.1537 160.233 30.8034 160.254 30.4477L160.261 30.3288C160.281 30.003 160.301 29.6644 160.329 29.3155C160.402 28.368 160.513 27.4596 160.697 26.6858C160.708 27.2245 160.708 27.8261 160.708 28.4505C160.708 29.3154 160.708 30.2263 160.741 30.9844C160.757 31.3635 160.783 31.7345 160.827 32.0604C160.864 32.3391 160.934 32.7572 161.116 33.1213C161.776 34.4415 163.181 34.4367 163.785 34.3651C164.505 34.2796 165.202 34.0058 165.629 33.7921L166.134 33.5393C167.061 34.1746 168.372 34.4505 169.958 34.4505C172.061 34.4505 173.765 33.6935 174.791 32.4819C175.8 31.2887 176.163 29.5542 175.206 28.1185C174.926 27.6979 174.549 27.3955 174.223 27.1794C173.888 26.9568 173.517 26.7676 173.167 26.6052C172.814 26.4416 172.438 26.2855 172.089 26.1409C172.006 26.1065 171.924 26.0726 171.843 26.0391C172.183 26.0777 172.564 26.0922 172.947 26.0565C173.572 25.9983 174.736 25.7477 175.3 24.6213C175.716 23.7882 175.908 22.4561 175.405 21.2486C175.137 20.6047 174.67 20.0014 173.96 19.5727C173.26 19.1504 172.414 18.9505 171.458 18.9505C169.573 18.9505 167.707 19.7235 166.432 20.9187C166.005 21.3192 165.62 21.7951 165.328 22.3265C165.15 21.8468 164.897 21.4171 164.534 21.0697C164.126 20.6796 163.68 20.4896 163.308 20.3832C163.069 20.3149 162.767 20.2621 162.592 20.2315C162.547 20.2235 162.51 20.2171 162.485 20.2122C162.295 20.1753 162.199 20.1442 162.129 20.1089C161.085 19.5868 160.16 20.1993 159.831 20.4524C159.624 20.6114 159.428 20.7993 159.245 20.9978C158.867 20.5871 158.408 20.3525 157.995 20.215C157.195 19.9483 156.229 19.9496 155.564 19.9504C155.528 19.9505 155.492 19.9505 155.458 19.9505C154.552 19.9505 153.868 20.5091 153.478 20.8963C153.327 20.6928 153.171 20.5398 153.068 20.4385C153.05 20.4207 153.033 20.4044 153.019 20.3898C152.453 19.8246 151.701 19.8106 151.424 19.8131C151.037 19.8165 150.636 19.885 150.293 19.9617C149.71 20.0921 149.105 20.2908 148.651 20.461C148.702 20.0166 148.76 19.5283 148.822 19.0192C149.029 17.3141 149.279 15.3951 149.445 14.1488L149.506 13.6919L149.299 13.2797C148.91 12.5 148.191 12.2041 147.626 12.1327C147.108 12.0672 146.603 12.1629 146.226 12.2659C145.449 12.4776 144.668 12.8749 144.186 13.1643L143.592 13.5207L143.478 14.2039C143.388 14.7449 143.31 15.3114 143.242 15.8948C142.851 15.4962 142.405 15.247 142.129 15.1089C141.75 14.9198 141.364 14.8317 140.987 14.8199C141.026 14.6415 141.057 14.461 141.075 14.2832C141.099 14.0519 141.108 13.7684 141.058 13.4744C141.011 13.1954 140.887 12.758 140.519 12.3898C140.232 12.1031 139.901 11.9924 139.788 11.9558C139.626 11.9033 139.465 11.8708 139.33 11.8487C139.058 11.8039 138.739 11.7774 138.414 11.7604C137.755 11.7259 136.915 11.7234 136.033 11.7382C134.683 11.7608 133.172 11.825 131.934 11.8915C131.817 11.7199 131.68 11.551 131.519 11.3898C131.076 10.9469 130.426 10.6936 129.719 10.8703C129.183 11.0044 128.817 11.3453 128.647 11.5148C128.462 11.7003 128.291 11.9141 128.179 12.0545L128.162 12.076C128.124 12.1234 128.091 12.1644 128.062 12.1999C128.016 12.2004 127.962 12.2005 127.895 12.2005C127.879 12.2005 127.861 12.2005 127.843 12.2004C127.415 12.1996 126.609 12.1981 125.787 12.6089C124.483 13.2606 124.304 14.5629 124.407 15.3866C124.505 16.1739 124.882 16.996 125.397 17.5112C125.729 17.8426 126.105 18.0155 126.458 18.0998V22.3087C126.031 22.5504 125.458 23.0435 125.458 23.9505C125.458 24.3648 125.603 24.7432 125.677 24.9245C125.773 25.1616 125.894 25.405 126.012 25.6233C126.208 25.9887 126.432 26.3555 126.609 26.6288ZM137.498 17.9003C137.499 17.9003 137.498 17.9003 137.498 17.9003C137.378 17.8929 137.252 17.8851 137.125 17.8775C136.481 17.8386 135.666 17.7926 134.84 17.762C134.008 17.7312 133.19 17.717 132.531 17.7388C132.506 17.7396 132.482 17.7404 132.458 17.7413V21.214C133.052 21.1539 133.687 21.1171 134.304 21.1257C134.964 21.1349 135.674 21.1966 136.315 21.3729C136.665 21.4692 137.077 21.622 137.458 21.8777V21.8292L137.897 21.3898C138.088 21.1987 138.341 20.9708 138.636 20.7451C138.008 20.2898 137.458 19.5399 137.458 18.4505C137.458 18.2621 137.472 18.0785 137.498 17.9003ZM142.859 20.2429C142.88 20.2215 142.899 20.2001 142.919 20.1786C142.917 20.2161 142.916 20.2535 142.914 20.2909C142.896 20.2745 142.878 20.2585 142.859 20.2429ZM140.498 18.3656C140.714 18.1592 140.851 17.9947 140.934 17.8727C140.912 17.8591 140.887 17.8448 140.859 17.8298C140.83 17.8403 140.785 17.8612 140.733 17.9005C140.596 18.0034 140.492 18.1628 140.465 18.3521C140.475 18.3566 140.486 18.3611 140.498 18.3656ZM150.823 24.2271C150.908 23.6523 150.958 23.188 150.958 22.9505C150.958 22.9285 150.958 22.9074 150.958 22.8871C150.955 22.8878 150.951 22.8886 150.948 22.8893C150.873 22.906 150.797 22.9247 150.719 22.9449C150.726 23.009 150.733 23.0737 150.74 23.1388C150.772 23.4688 150.8 23.8366 150.823 24.2271ZM151.468 22.8133C151.468 22.8133 151.467 22.8132 151.464 22.813ZM150.908 26.2814C150.936 27.3235 150.948 28.3886 150.954 29.2838C151.171 28.425 151.442 27.4182 151.783 26.5415L150.908 26.2814ZM157.846 25.1602C157.857 25.3086 157.868 25.4606 157.876 25.6151C157.915 25.4746 157.957 25.335 158.001 25.1968L157.846 25.1602ZM161.832 24.3741C161.832 24.3743 161.831 24.3752 161.829 24.3766C161.832 24.3742 161.832 24.3734 161.832 24.3741ZM165.708 27.2681C165.708 27.3082 165.708 27.3481 165.708 27.388C165.708 27.8861 165.708 28.3659 165.713 28.8107C165.917 28.5323 166.131 28.2808 166.335 28.0773C166.338 28.0741 166.341 28.0709 166.345 28.0676C166.114 27.8318 165.902 27.5663 165.708 27.2681ZM147.644 33.9324C147.644 33.9326 147.639 33.9337 147.632 33.9352C147.64 33.933 147.644 33.9323 147.644 33.9324ZM129.176 25.0729C129.151 25.0351 129.124 24.9941 129.096 24.9505H129.458V25.4505V25.6356C129.416 25.5017 129.333 25.2856 129.176 25.0729ZM129.458 15.0472V15.5235L130.287 15.1089C130.395 15.055 130.507 15.0109 130.62 14.9746L129.458 15.0472ZM134.966 14.7646C135.822 14.7965 136.658 14.8439 137.306 14.8829C137.467 14.8926 137.613 14.9016 137.745 14.9097C137.766 14.911 137.786 14.9122 137.806 14.9135C137.831 14.8597 137.855 14.802 137.879 14.7412C137.377 14.7264 136.761 14.7264 136.083 14.7378C135.721 14.7439 135.345 14.7531 134.966 14.7646ZM127.074 15.1714C127.072 15.1715 127.071 15.1715 127.071 15.1715ZM76.1109 24.6749C76.1292 24.5882 76.1473 24.5021 76.1653 24.4166C76.6599 22.0713 77.1571 19.0593 77.4674 16.5749C77.6093 15.4386 77.709 14.4357 77.7533 13.6685C77.6779 13.6979 77.6009 13.7291 77.5228 13.762C77.1543 13.9174 76.8169 14.0876 76.5713 14.2348C76.5403 14.6287 76.4947 15.1625 76.4425 15.7665C76.34 16.9533 76.1981 18.5516 76.0405 20.3067C75.8082 22.8958 75.5416 25.829 75.3165 28.2913C75.6082 27.0606 75.8706 25.8153 76.1109 24.6749ZM76.6135 13.5746C76.6135 13.6013 76.6128 13.6274 76.6113 13.6528C76.6128 13.6201 76.6135 13.5939 76.6135 13.5746ZM66.4526 13.5926L66.4737 13.4747C66.222 13.728 66.0428 13.951 65.9422 14.116C65.929 14.2269 65.9164 14.3941 65.907 14.6241C65.8881 15.0899 65.8856 15.7233 65.8973 16.4805L65.8978 16.5147C65.9741 16.1217 66.0463 15.748 66.1132 15.3994C66.2546 14.6622 66.3715 14.0425 66.4526 13.5926ZM86.1909 23.0955C86.1954 23.863 86.2049 24.7347 86.2211 25.6316C86.316 25.0615 86.4001 24.4876 86.4603 23.959C86.4987 23.6221 86.525 23.3221 86.5396 23.0649C86.4199 23.0725 86.3032 23.0825 86.1909 23.0955Z" fill="white"/>
<path fill-rule="evenodd" clip-rule="evenodd" d="M82.275 21.955L82.2397 21.9466L82.2233 21.9426C82.2103 21.9393 82.1918 21.9345 82.171 21.9287C82.1394 22.8842 82.0277 25.186 81.8686 27.4765C81.7747 28.8299 81.6662 30.1484 81.5518 31.1527C81.4942 31.6586 81.4381 32.0583 81.3861 32.3337L81.3828 32.351L81.3978 32.3416C81.4697 32.2956 81.5345 32.2423 81.5841 32.19L83.7602 34.2551C83.9334 34.0725 84.0305 33.8837 84.0771 33.7832L84.0669 33.7664C83.977 33.6177 83.9012 33.4708 83.8365 33.3345C83.681 33.0067 83.6116 32.6079 83.5719 32.3509C83.5231 32.0347 83.4826 31.6568 83.4482 31.2473C83.379 30.4251 83.3276 29.3948 83.2895 28.3101C83.2131 26.1365 83.1878 23.6752 83.1878 22.071V21.9061C83.1709 21.9109 83.1537 21.9156 83.1364 21.92C82.994 21.9562 82.8391 21.9779 82.6722 21.9779C82.6558 21.9779 82.6448 21.9776 82.6354 21.9777C82.6413 21.9775 82.6535 21.9771 82.6697 21.9762C82.6705 21.9762 82.6713 21.9761 82.6722 21.976V21.54H82.18C82.18 21.8666 82.4285 22.0013 82.4277 22.0028C82.4275 22.0031 82.4206 21.9997 82.4045 21.9929C82.3711 21.9789 82.3341 21.9688 82.275 21.955ZM82.6697 21.9762C82.6535 21.9771 82.6413 21.9775 82.6354 21.9777L82.6238 21.978C82.6224 21.978 82.6255 21.9777 82.6354 21.9777C82.6448 21.9776 82.6558 21.9779 82.6722 21.9779V21.976C82.6713 21.9761 82.6705 21.9762 82.6697 21.9762Z" fill="white"/>
<path d="M82.1578 21.9249C82.1389 21.9193 82.1 21.9077 82.0524 21.8901L82.0502 21.8893C82.0205 21.8783 81.8939 21.8315 81.7522 21.7394C81.7112 21.7127 81.6259 21.6553 81.5291 21.562L81.5249 21.5697C81.3113 21.9619 80.9721 22.2552 80.8312 22.377L80.8194 22.3872C80.7476 22.4494 80.6915 22.497 80.6459 22.5355C80.6502 23.4797 80.6707 25.6645 80.7692 27.8446C80.8316 29.2263 80.9239 30.5693 81.0572 31.5834C81.103 31.9321 81.1507 32.2181 81.1977 32.4407C81.2608 32.4188 81.324 32.3874 81.3828 32.351L81.3861 32.3337C81.4381 32.0583 81.4942 31.6586 81.5518 31.1527C81.6662 30.1484 81.7747 28.8299 81.8686 27.4765C82.0277 25.186 82.1394 22.8842 82.171 21.9287L82.1578 21.9249Z" fill="white"/>
<path d="M81.1024 19.3121L81.1803 19.3854C81.2438 19.4451 81.3062 19.512 81.3652 19.5859C81.5254 19.371 81.7055 19.2506 81.7889 19.1997C81.9431 19.1057 82.079 19.0616 82.1383 19.0437C82.1391 19.0435 82.1399 19.0432 82.1407 19.043L82.1604 19.0122C82.3432 18.7233 82.5418 18.3147 82.7873 17.798C82.7818 17.7906 82.7755 17.7825 82.7683 17.7736C82.6194 17.5906 82.2613 17.3212 81.6711 17.1139C81.4938 17.0517 81.3994 17.0584 81.3631 17.0641C81.3286 17.0696 81.2805 17.0843 81.2087 17.141C81.0345 17.2787 80.7811 17.6233 80.5749 18.2752C80.5192 18.4514 80.54 18.6126 80.6393 18.8034C80.7542 19.0243 80.9343 19.1939 81.0149 19.2505L81.1024 19.3121Z" fill="white"/>
<path d="M94.6272 21.8767C94.6963 21.9946 94.7594 22.1153 94.8169 22.2381C94.8265 22.0831 94.8353 21.9338 94.843 21.7907C94.8511 21.6418 94.8579 21.5025 94.8635 21.373L94.8221 21.3677C94.6213 21.3412 94.3989 21.3036 94.1719 21.2478C94.3436 21.4409 94.4953 21.6516 94.6272 21.8767Z" fill="white"/>
<path d="M101.261 21.6535C101.182 21.6442 101.103 21.6348 101.025 21.6254C100.993 21.8065 100.961 21.9925 100.929 22.1823C101.034 22.0032 101.145 21.8266 101.261 21.6535Z" fill="white"/>
<path d="M129.458 15.0472V15.5235L130.287 15.1089C130.395 15.055 130.507 15.0109 130.62 14.9746L129.458 15.0472Z" fill="white"/>
<path d="M134.966 14.7646C135.822 14.7965 136.658 14.8439 137.306 14.8829C137.467 14.8926 137.613 14.9016 137.745 14.9097L137.806 14.9135C137.831 14.8597 137.855 14.802 137.879 14.7412C137.377 14.7264 136.761 14.7264 136.083 14.7378C135.721 14.7439 135.345 14.7531 134.966 14.7646Z" fill="white"/>
<path d="M140.498 18.3656C140.714 18.1592 140.851 17.9947 140.934 17.8727C140.912 17.8591 140.887 17.8448 140.859 17.8298C140.83 17.8403 140.785 17.8612 140.733 17.9005C140.596 18.0034 140.492 18.1628 140.465 18.3521C140.475 18.3566 140.486 18.3611 140.498 18.3656Z" fill="white"/>
<path d="M129.458 25.4505V24.9505H129.096C129.124 24.9941 129.151 25.0351 129.176 25.0729C129.333 25.2856 129.416 25.5017 129.458 25.6356V25.4505Z" fill="white"/>
<path d="M66.5223 33.2987H66.4934L66.5223 33.3275C66.3491 33.5392 66.176 33.7027 66.0028 33.8182C65.8489 33.9336 65.695 34.0298 65.541 34.1068C65.3679 34.1837 65.214 34.2414 65.0793 34.2799C64.9639 34.2991 64.8484 34.3088 64.733 34.3088C64.6175 34.3088 64.4829 34.2991 64.3289 34.2799C64.1943 34.2799 64.05 34.2607 63.896 34.2222C63.5305 33.0678 63.213 31.8653 62.9437 30.6147C62.6743 29.3449 62.4434 28.1809 62.251 27.1227C62.0394 25.8914 61.8566 24.6697 61.7027 23.4576C61.5488 22.2839 61.4237 21.1103 61.3275 19.9367C61.2891 19.4365 61.241 18.917 61.1832 18.3783C61.1448 17.8396 61.1063 17.3008 61.0678 16.7621C61.0486 16.2042 61.0293 15.6655 61.0101 15.146C61.0101 14.6073 61.0197 14.107 61.0389 13.6453C61.4237 13.3759 61.8085 13.1739 62.1933 13.0392C62.5974 12.9046 62.9533 12.7987 63.2611 12.7218C63.6075 12.6448 63.9441 12.5967 64.2712 12.5775C64.1365 12.7314 64.0307 12.9911 63.9538 13.3567C63.896 13.703 63.8672 14.2032 63.8672 14.8574C63.8672 15.5115 63.896 16.3485 63.9538 17.3682C64.0115 18.3879 64.1077 19.6288 64.2424 21.0911C64.3001 21.6105 64.3578 22.1781 64.4155 22.7938C64.4925 23.4095 64.5694 24.054 64.6464 24.7274C64.7234 25.3815 64.8003 26.0453 64.8773 26.7187C64.9735 27.3728 65.0601 27.9981 65.137 28.5946C65.3102 27.5556 65.5218 26.3435 65.7719 24.9583C66.0413 23.573 66.3684 22.1396 66.7531 20.6582C67.0225 19.5807 67.2726 18.5803 67.5035 17.6568C67.7151 16.8487 67.9172 16.0695 68.1095 15.3191C68.3212 14.5496 68.4847 13.982 68.6002 13.6164C68.9657 13.4625 69.2832 13.3567 69.5525 13.299C69.7064 13.2605 69.8411 13.2316 69.9566 13.2124H70.3606C70.4953 13.2124 70.6396 13.222 70.7935 13.2413C70.9474 13.2605 71.1109 13.299 71.2841 13.3567C71.438 14.9921 71.6016 16.5505 71.7747 18.0319C71.9479 19.4942 72.1114 20.8025 72.2653 21.9569C72.4577 23.3036 72.6405 24.5446 72.8137 25.6797C72.9099 26.4493 73.0157 27.1516 73.1311 27.7865C73.2658 28.4214 73.3812 29.0082 73.4774 29.5469C73.5736 29.0275 73.6987 28.3925 73.8526 27.6422C74.0258 26.8726 74.1797 25.9395 74.3144 24.8428C74.5068 23.6692 74.6799 22.4571 74.8338 21.2065C74.9685 20.1291 75.0936 18.9362 75.209 17.6279C75.3437 16.3004 75.4495 14.9728 75.5265 13.6453C75.6804 13.5106 75.8343 13.3952 75.9882 13.299C76.1614 13.2028 76.3249 13.1162 76.4788 13.0392C76.652 12.9623 76.8252 12.8949 76.9983 12.8372C77.1715 12.7795 77.3542 12.7314 77.5466 12.6929C77.7006 12.6544 77.8737 12.6256 78.0661 12.6063C78.2585 12.5871 78.4317 12.5871 78.5856 12.6063C78.4894 13.626 78.3547 14.7516 78.1816 15.9829C78.0084 17.195 77.8352 18.3302 77.6621 19.3884C77.4504 20.6389 77.2388 21.8799 77.0272 23.1112C76.7963 24.3426 76.5366 25.5932 76.248 26.863C75.9978 27.9597 75.7092 29.1429 75.3822 30.4127C75.0743 31.6633 74.7376 32.8465 74.3721 33.9625C74.2566 34.0779 74.122 34.1549 73.9681 34.1933C73.8141 34.251 73.6602 34.2991 73.5063 34.3376C73.3331 34.3761 73.1696 34.3953 73.0157 34.3953C72.7078 34.3953 72.4674 34.3569 72.2942 34.2799C72.121 34.2222 71.9864 34.126 71.8902 33.9913C71.8132 33.8759 71.7555 33.7316 71.717 33.5584C71.6785 33.3853 71.64 33.1929 71.6016 32.9812L69.5525 18.4071L66.5223 33.2987ZM79.6823 21.7837C79.6823 21.6683 79.8362 21.5432 80.144 21.4085C80.4518 21.2738 80.7885 21.168 81.1541 21.0911C81.5389 20.9949 81.8852 20.9468 82.193 20.9468C82.5201 20.9275 82.6837 20.9949 82.6837 21.1488C82.6837 21.4374 82.6644 21.851 82.6259 22.3898C82.5875 22.9092 82.5394 23.4672 82.4816 24.0636C82.4239 24.6408 82.3662 25.2276 82.3085 25.824C82.2508 26.4012 82.2123 26.8918 82.193 27.2959C82.1546 27.7192 82.1161 28.1809 82.0776 28.6811C82.0391 29.1044 82.0103 29.5758 81.991 30.0953C81.9718 30.6147 81.9718 31.1438 81.991 31.6825C81.991 31.7787 81.8948 31.8749 81.7024 31.9711C81.51 32.0673 81.2984 32.1347 81.0675 32.1732C80.8366 32.2309 80.6154 32.2597 80.4037 32.2597C80.1921 32.2597 80.0767 32.2213 80.0574 32.1443C80.0189 32.0673 79.9805 31.9327 79.942 31.7403C79.9035 31.5479 79.865 31.2785 79.8265 30.9322C79.7881 30.5666 79.7592 30.1049 79.74 29.5469C79.7207 28.9697 79.7304 28.2771 79.7688 27.469C79.8458 25.8721 79.8554 24.6408 79.7977 23.775C79.74 22.89 79.7015 22.2262 79.6823 21.7837ZM81.7024 16.0406C82.0872 16.0406 82.4528 16.1561 82.7991 16.387C83.1454 16.6178 83.3186 16.9257 83.3186 17.3105C83.3186 17.5991 83.2416 17.878 83.0877 18.1474C82.953 18.4167 82.7798 18.6572 82.5682 18.8689C82.3566 19.0805 82.1161 19.2537 81.8467 19.3884C81.5774 19.5038 81.3272 19.5615 81.0964 19.5615C80.7885 19.5615 80.5384 19.5134 80.346 19.4172C80.1536 19.3018 79.9997 19.1767 79.8843 19.042C79.7881 18.8881 79.7207 18.7246 79.6823 18.5514C79.6438 18.3783 79.6245 18.2147 79.6245 18.0608C79.6245 17.8684 79.6534 17.6568 79.7111 17.4259C79.7688 17.1758 79.8746 16.9545 80.0286 16.7621C80.1825 16.5505 80.3941 16.3773 80.6635 16.2427C80.9328 16.108 81.2791 16.0406 81.7024 16.0406ZM80.9809 18.7246C81.0964 18.7246 81.2214 18.6861 81.3561 18.6091C81.51 18.5129 81.6447 18.4071 81.7601 18.2917C81.8948 18.1762 82.0006 18.0512 82.0776 17.9165C82.1738 17.7818 82.2219 17.6664 82.2219 17.5702C82.2219 17.4163 82.1449 17.3393 81.991 17.3393C81.8948 17.3393 81.7698 17.3778 81.6158 17.4548C81.4812 17.5317 81.3465 17.6279 81.2118 17.7434C81.0771 17.8396 80.9617 17.955 80.8655 18.0897C80.7885 18.2051 80.7501 18.3205 80.7501 18.436C80.7501 18.6284 80.827 18.7246 80.9809 18.7246ZM87.6764 31.2208C87.6571 31.3362 87.5513 31.4613 87.3589 31.596C87.1858 31.7114 86.9741 31.8172 86.724 31.9134C86.4931 32.0096 86.2719 32.0673 86.0602 32.0866C85.8486 32.1251 85.7043 32.1058 85.6273 32.0289C85.5504 31.9519 85.4253 31.8076 85.2522 31.596C85.079 31.3843 84.9732 31.038 84.9347 30.557C84.8962 30.0568 84.877 29.4315 84.877 28.6811C84.877 27.9116 84.8674 27.065 84.8481 26.1415V24.9871C84.8481 24.6408 84.8385 24.2368 84.8193 23.775C84.8193 23.3133 84.8096 22.8323 84.7904 22.332C84.9636 22.2358 85.1367 22.1493 85.3099 22.0723C85.5023 21.9761 85.6754 21.8991 85.8293 21.8414C86.0025 21.7645 86.166 21.7067 86.32 21.6683C86.724 21.5528 87.0318 21.4855 87.2435 21.4662C87.4551 21.447 87.5802 21.5143 87.6186 21.6683C87.6379 21.7837 87.6283 22.0627 87.5898 22.5052C87.5513 22.89 87.5032 23.4768 87.4455 24.2656C87.3878 25.0352 87.2916 26.1126 87.1569 27.4979C87.407 26.8822 87.609 26.3531 87.7629 25.9106C87.9361 25.4681 88.0804 25.1122 88.1958 24.8428C88.3113 24.5157 88.4171 24.256 88.5133 24.0636C88.6095 23.8135 88.7345 23.5345 88.8885 23.2267C89.0424 22.9188 89.1963 22.6302 89.3502 22.3609C89.5234 22.0915 89.6773 21.851 89.812 21.6394C89.9659 21.4278 90.0813 21.3027 90.1583 21.2642C90.216 21.2257 90.3892 21.2257 90.6778 21.2642C90.9664 21.3027 91.2742 21.3989 91.6013 21.5528C91.9283 21.6875 92.2458 21.8895 92.5536 22.1589C92.8615 22.409 93.0635 22.7168 93.1597 23.0824C93.2751 23.5057 93.3136 24.0636 93.2751 24.7562C93.2559 25.4489 93.2078 26.1607 93.1308 26.8918C93.0731 27.623 93.025 28.3156 92.9865 28.9697C92.9481 29.6239 92.9865 30.1241 93.102 30.4704C93.1404 30.6628 93.1982 30.836 93.2751 30.9899C93.3136 31.1438 93.3617 31.2881 93.4194 31.4228C93.4964 31.5382 93.5733 31.6248 93.6503 31.6825C93.1885 31.8942 92.8134 32.0481 92.5248 32.1443C92.2362 32.2405 92.0149 32.3078 91.861 32.3463C91.6686 32.404 91.5339 32.4233 91.457 32.404C91.2838 32.3463 91.1299 32.202 90.9952 31.9711C90.8798 31.7403 90.774 31.3747 90.6778 30.8745C90.6393 30.7206 90.62 30.4704 90.62 30.1241C90.6393 29.7586 90.6681 29.3545 90.7066 28.912C90.7451 28.4503 90.7836 27.9789 90.8221 27.4979C90.8798 26.9977 90.9183 26.5359 90.9375 26.1126C90.976 25.6701 91.0048 25.295 91.0241 24.9871C91.0433 24.66 91.0433 24.4388 91.0241 24.3233C90.9279 23.977 90.7932 23.7365 90.62 23.6019C90.4469 23.4479 90.3122 23.4287 90.216 23.5441C89.9659 23.8327 89.6965 24.3041 89.4079 24.9583C89.1386 25.5932 88.8788 26.2954 88.6287 27.065C88.3786 27.8154 88.167 28.5657 87.9938 29.3161C87.8207 30.0664 87.7148 30.7013 87.6764 31.2208ZM106.175 19.1575C105.964 19.119 105.675 19.0805 105.31 19.042C104.963 19.0036 104.607 18.9747 104.242 18.9555C103.819 18.9362 103.366 18.9266 102.885 18.9266C102.404 18.8881 101.798 18.8881 101.067 18.9266C100.355 18.9458 99.605 18.9555 98.8162 18.9555C98.7969 19.4557 98.7585 19.9655 98.7007 20.485C98.6623 21.0045 98.6238 21.5143 98.5853 22.0146C98.4891 22.9381 98.4025 23.8808 98.3256 24.8428C98.2678 25.8048 98.239 26.7187 98.239 27.5845C98.239 28.4503 98.2871 29.2391 98.3833 29.951C98.4987 30.6436 98.7007 31.1919 98.9893 31.596C98.7585 31.7691 98.5083 31.9038 98.239 32C97.9696 32.077 97.7291 32.1347 97.5175 32.1732C97.2674 32.2309 97.0173 32.2597 96.7671 32.2597C96.5363 32.2597 96.3439 32.1828 96.1899 32.0289C96.036 31.8749 95.9494 31.6056 95.9302 31.2208C95.8917 30.5666 95.8821 29.9125 95.9013 29.2583C95.9398 28.5849 95.9783 27.8827 96.0168 27.1516C96.0745 26.4205 96.1322 25.6413 96.1899 24.814C96.2477 23.9674 96.3054 23.0439 96.3631 22.0434C96.4208 21.0045 96.4497 19.9944 96.4497 19.0132C95.7186 19.0324 95.1029 19.042 94.6027 19.042C94.1024 19.042 93.8235 19.0324 93.7657 19.0132C93.708 18.9747 93.6407 18.8881 93.5637 18.7534C93.4868 18.638 93.3906 18.4648 93.2751 18.234C93.1404 18.0031 92.9769 17.676 92.7845 17.2527C93.1501 17.2527 93.5541 17.2527 93.9966 17.2527C94.4199 17.2527 94.8143 17.2431 95.1799 17.2239C95.6031 17.2046 96.0264 17.1854 96.4497 17.1662C96.4304 16.8583 96.4208 16.5313 96.4208 16.1849C96.4016 15.9156 96.392 15.6174 96.392 15.2903C96.392 14.944 96.3823 14.6265 96.3631 14.3379C96.3631 14.2225 96.4978 14.0878 96.7671 13.9339C97.0557 13.7607 97.3636 13.6068 97.6906 13.4721C98.0177 13.3375 98.3159 13.2509 98.5853 13.2124C98.8739 13.1739 99.0182 13.2413 99.0182 13.4144C99.0182 13.5876 99.0086 14.0108 98.9893 14.6842C98.9893 15.3384 98.9701 16.1368 98.9316 17.0796C99.124 17.0796 99.2683 17.07 99.3645 17.0507C100.384 17.0122 101.202 16.9738 101.818 16.9353C102.452 16.8776 102.972 16.8679 103.376 16.9064C103.78 16.9449 104.136 17.0411 104.444 17.195C104.752 17.3489 105.098 17.5991 105.483 17.9454C105.617 18.0608 105.733 18.1859 105.829 18.3205C105.925 18.436 106.002 18.5707 106.06 18.7246C106.137 18.8593 106.175 19.0036 106.175 19.1575ZM105.194 32.3175C103.847 32.3175 102.808 31.8653 102.077 30.9611C101.346 30.0568 100.981 28.8735 100.981 27.4113C100.981 26.3916 101.125 25.4392 101.414 24.5542C101.721 23.65 102.125 22.8707 102.626 22.2166C103.126 21.5624 103.703 21.0526 104.357 20.687C105.031 20.3022 105.733 20.1098 106.464 20.1098C107.176 20.1098 107.782 20.3696 108.282 20.8891C108.782 21.3893 109.032 22.1108 109.032 23.0535C109.032 23.6692 108.898 24.2849 108.628 24.9005C108.359 25.497 108.003 26.0357 107.561 26.5167C107.137 26.9784 106.666 27.3536 106.147 27.6422C105.627 27.9308 105.127 28.0751 104.646 28.0751C104.338 28.0751 104.078 28.0366 103.867 27.9597C103.655 27.8827 103.463 27.7673 103.289 27.6133C103.347 28.71 103.588 29.4796 104.011 29.9221C104.434 30.3454 104.983 30.557 105.656 30.557C106.118 30.557 106.522 30.4608 106.868 30.2684C107.234 30.076 107.541 29.8548 107.792 29.6047C108.042 29.3545 108.244 29.1044 108.398 28.8543C108.551 28.5849 108.657 28.3829 108.715 28.2483C108.773 28.1328 108.869 28.0751 109.004 28.0751C109.158 28.0751 109.234 28.1905 109.234 28.4214C109.234 28.633 109.158 28.9601 109.004 29.4026C108.869 29.8259 108.638 30.2588 108.311 30.7013C107.984 31.1246 107.561 31.4998 107.041 31.8268C106.541 32.1539 105.925 32.3175 105.194 32.3175ZM106.522 21.3508C106.406 21.3508 106.185 21.4759 105.858 21.726C105.55 21.9569 105.213 22.3032 104.848 22.7649C104.502 23.2267 104.174 23.7846 103.867 24.4388C103.578 25.0737 103.395 25.7952 103.318 26.6033C104.473 26.3339 105.387 25.9106 106.06 25.3334C106.733 24.7562 107.07 23.9097 107.07 22.7938C107.07 22.2358 107.003 21.8607 106.868 21.6683C106.733 21.4566 106.618 21.3508 106.522 21.3508ZM118.729 23.1401C118.729 23.4095 118.652 23.6884 118.498 23.977C118.364 24.2464 118.191 24.5061 117.979 24.7562C117.767 25.0064 117.527 25.2276 117.257 25.42C117.007 25.5932 116.767 25.699 116.536 25.7375C116.69 25.141 116.738 24.6793 116.68 24.3522C116.623 24.0251 116.526 23.7846 116.392 23.6307C116.238 23.4576 116.045 23.3614 115.814 23.3421C115.468 23.3421 115.131 23.5441 114.804 23.9482C114.497 24.333 114.227 24.814 113.996 25.3911C113.765 25.9491 113.583 26.5552 113.448 27.2093C113.313 27.8442 113.246 28.4214 113.246 28.9409C113.227 29.3064 113.236 29.6624 113.275 30.0087C113.294 30.2973 113.323 30.5955 113.361 30.9033C113.419 31.2112 113.496 31.4517 113.592 31.6248C113.477 31.721 113.284 31.8365 113.015 31.9711C112.765 32.1058 112.496 32.1924 112.207 32.2309C111.938 32.2694 111.688 32.2213 111.457 32.0866C111.245 31.9519 111.13 31.6633 111.11 31.2208C111.072 30.7975 111.043 30.3261 111.024 29.8067C111.024 29.268 111.024 28.7389 111.024 28.2194C111.043 27.6807 111.062 27.1516 111.082 26.6321C111.101 26.1126 111.13 25.6316 111.168 25.1891C111.207 24.3426 111.226 23.6884 111.226 23.2267C111.226 22.7649 111.216 22.3224 111.197 21.8991C111.197 21.8222 111.322 21.7164 111.572 21.5817C111.841 21.4278 112.13 21.2931 112.438 21.1776C112.765 21.0622 113.063 20.9949 113.333 20.9756C113.602 20.9564 113.737 21.0141 113.737 21.1488C113.737 21.3604 113.708 21.7837 113.65 22.4186C113.612 23.0343 113.554 23.6788 113.477 24.3522C113.612 23.9866 113.785 23.5922 113.996 23.169C114.227 22.7457 114.487 22.3513 114.776 21.9857C115.064 21.6202 115.391 21.3219 115.757 21.0911C116.122 20.841 116.526 20.7159 116.969 20.7159C117.315 20.7159 117.594 20.8217 117.806 21.0333C118.037 21.245 118.219 21.4855 118.354 21.7548C118.489 22.0242 118.585 22.2936 118.643 22.5629C118.7 22.8323 118.729 23.0247 118.729 23.1401ZM126.618 16.0406C126.503 15.9252 126.416 15.8001 126.359 15.6655C126.301 15.5115 126.253 15.3576 126.214 15.2037C126.176 15.0306 126.147 14.8574 126.128 14.6842C126.109 14.5303 126.109 14.3764 126.128 14.2225C126.128 13.9339 126.185 13.7126 126.301 13.5587C126.513 13.5202 126.743 13.4818 126.994 13.4433C127.244 13.3856 127.484 13.3375 127.715 13.299C127.984 13.2605 128.263 13.222 128.552 13.1835C128.706 13.0296 128.908 12.8661 129.158 12.6929C129.427 12.5005 129.726 12.3274 130.053 12.1734C130.303 12.058 130.476 12.058 130.572 12.1734C130.668 12.2889 130.736 12.5294 130.774 12.8949C131.255 12.8565 131.755 12.818 132.275 12.7795C132.794 12.741 133.333 12.7218 133.891 12.7218C134.641 12.7025 135.344 12.6833 135.998 12.6641C136.556 12.6448 137.114 12.6448 137.672 12.6641C138.249 12.6641 138.691 12.6737 138.999 12.6929C139.153 12.7122 139.268 12.8276 139.345 13.0392C139.442 13.2316 139.471 13.4914 139.432 13.8184C139.413 14.1263 139.317 14.463 139.143 14.8285C138.97 15.1941 138.711 15.55 138.364 15.8963C137.902 15.8001 137.412 15.7232 136.892 15.6655C136.392 15.6077 135.93 15.5596 135.507 15.5212C135.007 15.4827 134.526 15.4731 134.064 15.4923C133.506 15.4923 132.948 15.5115 132.39 15.55C131.832 15.5693 131.303 15.5981 130.803 15.6366C130.784 16.5024 130.765 17.5125 130.745 18.6669C130.745 19.802 130.736 21.0622 130.716 22.4475C130.986 22.409 131.246 22.3898 131.496 22.3898C131.746 22.3705 132.005 22.3513 132.275 22.332C132.967 22.2936 133.641 22.2551 134.295 22.2166C134.949 22.1781 135.517 22.1974 135.998 22.2743C136.498 22.332 136.873 22.4763 137.123 22.7072C137.373 22.9381 137.431 23.3036 137.296 23.8039L136.892 25.1891C136.854 25.0929 136.748 25.016 136.575 24.9583C136.421 24.8813 136.238 24.8236 136.027 24.7851C135.796 24.7274 135.536 24.6793 135.247 24.6408C134.574 24.5638 133.833 24.5542 133.025 24.6119C132.217 24.6697 131.438 24.7562 130.688 24.8717C130.688 25.8337 130.697 26.7476 130.716 27.6133C130.755 28.4599 130.793 29.2295 130.832 29.9221C130.89 30.6147 130.938 31.2112 130.976 31.7114C131.015 32.2116 131.044 32.5868 131.063 32.8369C131.082 33.0101 131.063 33.1448 131.005 33.241C130.909 33.3564 130.793 33.4911 130.659 33.645C130.524 33.7989 130.351 33.9528 130.139 34.1068C129.928 34.2607 129.668 34.3857 129.36 34.4819C129.071 34.5974 128.735 34.6647 128.35 34.6839C128.177 34.6839 128.09 34.5974 128.09 34.4242V25.4777C127.763 25.4585 127.465 25.2084 127.196 24.7274C126.926 24.2464 126.801 23.7077 126.82 23.1112C126.955 23.0728 127.09 23.0439 127.224 23.0247C127.378 23.0054 127.523 22.9766 127.657 22.9381C127.811 22.8996 127.956 22.8707 128.09 22.8515C128.09 21.4662 128.1 20.1772 128.119 18.9843C128.138 17.7722 128.167 16.7333 128.206 15.8675C128.032 15.8867 127.85 15.906 127.657 15.9252C127.503 15.9444 127.33 15.9637 127.138 15.9829C126.945 16.0022 126.772 16.0214 126.618 16.0406ZM139.057 21.7837C139.057 21.6683 139.211 21.5432 139.519 21.4085C139.826 21.2738 140.163 21.168 140.529 21.0911C140.913 20.9949 141.26 20.9468 141.568 20.9468C141.895 20.9275 142.058 20.9949 142.058 21.1488C142.058 21.4374 142.039 21.851 142.001 22.3898C141.962 22.9092 141.914 23.4672 141.856 24.0636C141.799 24.6408 141.741 25.2276 141.683 25.824C141.625 26.4012 141.587 26.8918 141.568 27.2959C141.529 27.7192 141.491 28.1809 141.452 28.6811C141.414 29.1044 141.385 29.5758 141.366 30.0953C141.346 30.6147 141.346 31.1438 141.366 31.6825C141.366 31.7787 141.269 31.8749 141.077 31.9711C140.885 32.0673 140.673 32.1347 140.442 32.1732C140.211 32.2309 139.99 32.2597 139.778 32.2597C139.567 32.2597 139.451 32.2213 139.432 32.1443C139.394 32.0673 139.355 31.9327 139.317 31.7403C139.278 31.5479 139.24 31.2785 139.201 30.9322C139.163 30.5666 139.134 30.1049 139.115 29.5469C139.095 28.9697 139.105 28.2771 139.143 27.469C139.22 25.8721 139.23 24.6408 139.172 23.775C139.115 22.89 139.076 22.2262 139.057 21.7837ZM141.077 16.0406C141.462 16.0406 141.827 16.1561 142.174 16.387C142.52 16.6178 142.693 16.9257 142.693 17.3105C142.693 17.5991 142.616 17.878 142.462 18.1474C142.328 18.4167 142.154 18.6572 141.943 18.8689C141.731 19.0805 141.491 19.2537 141.221 19.3884C140.952 19.5038 140.702 19.5615 140.471 19.5615C140.163 19.5615 139.913 19.5134 139.721 19.4172C139.528 19.3018 139.374 19.1767 139.259 19.042C139.163 18.8881 139.095 18.7246 139.057 18.5514C139.018 18.3783 138.999 18.2147 138.999 18.0608C138.999 17.8684 139.028 17.6568 139.086 17.4259C139.143 17.1758 139.249 16.9545 139.403 16.7621C139.557 16.5505 139.769 16.3773 140.038 16.2427C140.307 16.108 140.654 16.0406 141.077 16.0406ZM140.356 18.7246C140.471 18.7246 140.596 18.6861 140.731 18.6091C140.885 18.5129 141.019 18.4071 141.135 18.2917C141.269 18.1762 141.375 18.0512 141.452 17.9165C141.548 17.7818 141.597 17.6664 141.597 17.5702C141.597 17.4163 141.52 17.3393 141.366 17.3393C141.269 17.3393 141.144 17.3778 140.99 17.4548C140.856 17.5317 140.721 17.6279 140.586 17.7434C140.452 17.8396 140.336 17.955 140.24 18.0897C140.163 18.2051 140.125 18.3205 140.125 18.436C140.125 18.6284 140.202 18.7246 140.356 18.7246ZM147.801 13.299C147.763 13.9916 147.695 14.7901 147.599 15.6943C147.503 16.5986 147.397 17.5702 147.282 18.6091C147.186 19.6481 147.08 20.7351 146.964 21.8703C146.868 23.0054 146.782 24.1502 146.705 25.3046C146.628 26.459 146.589 27.4017 146.589 28.1328C146.608 28.8447 146.657 29.4315 146.734 29.8932C146.81 30.355 146.916 30.7206 147.051 30.9899C147.186 31.2593 147.359 31.519 147.57 31.7691C147.32 31.923 147.089 32.0385 146.878 32.1154C146.666 32.1924 146.483 32.2501 146.329 32.2886C146.137 32.3463 145.964 32.3752 145.81 32.3752C145.521 32.3752 145.271 32.2405 145.06 31.9711C144.848 31.6825 144.675 31.317 144.54 30.8745C144.425 30.432 144.329 29.9413 144.252 29.4026C144.194 28.8447 144.165 28.2964 144.165 27.7576C144.165 27.1804 144.184 26.5167 144.223 25.7663C144.261 24.9967 144.3 24.1887 144.338 23.3421C144.396 22.4763 144.454 21.5817 144.511 20.6582C144.569 19.7154 144.617 18.7823 144.656 17.8588C144.694 17.1469 144.733 16.5024 144.771 15.9252C144.81 15.425 144.838 14.9728 144.858 14.5688C144.877 14.1455 144.867 13.8954 144.829 13.8184C144.944 13.6645 145.089 13.5491 145.262 13.4721C145.435 13.3952 145.598 13.3278 145.752 13.2701C145.945 13.2124 146.137 13.1643 146.329 13.1258H146.878C147.032 13.1258 147.195 13.1451 147.368 13.1835C147.542 13.2028 147.686 13.2413 147.801 13.299ZM155.536 22.9958C155.382 22.9958 155.209 23.0824 155.016 23.2555C154.843 23.4095 154.67 23.6307 154.497 23.9193C154.324 24.1887 154.15 24.4965 153.977 24.8428C153.804 25.1699 153.65 25.5066 153.516 25.8529C153.188 26.661 152.871 27.4883 152.563 28.3348C152.255 29.1814 152.073 29.9125 152.015 30.5282C151.996 30.5859 151.986 30.6436 151.986 30.7013C151.986 30.7398 151.986 30.7783 151.986 30.8168C151.967 30.8552 151.957 30.913 151.957 30.9899C151.919 31.2593 151.861 31.4805 151.784 31.6537C151.726 31.8076 151.592 31.9134 151.38 31.9711C151.149 32.0096 150.918 32.0385 150.687 32.0577C150.456 32.077 150.235 32.0577 150.024 32C149.889 31.9615 149.783 31.8942 149.706 31.798C149.648 31.6825 149.6 31.5575 149.562 31.4228C149.543 31.2689 149.523 31.1246 149.504 30.9899C149.504 30.8552 149.504 30.7398 149.504 30.6436C149.504 30.5282 149.514 30.1722 149.533 29.5758C149.552 28.9601 149.571 28.2675 149.591 27.4979C149.61 26.7283 149.619 25.978 149.619 25.2469C149.619 24.4965 149.61 23.9289 149.591 23.5441C149.552 23.2748 149.514 23.0247 149.475 22.7938C149.437 22.5821 149.389 22.3705 149.331 22.1589C149.292 21.9472 149.225 21.7645 149.129 21.6105C149.34 21.4951 149.552 21.3989 149.764 21.3219C149.975 21.245 150.168 21.1873 150.341 21.1488C150.553 21.0911 150.745 21.0526 150.918 21.0333C151.38 20.9949 151.736 20.9949 151.986 21.0333C152.255 21.0718 152.39 21.2738 152.39 21.6394C152.39 21.9665 152.361 22.4763 152.303 23.169C152.265 23.8424 152.217 24.7851 152.159 25.9972C152.371 25.5162 152.621 24.9775 152.909 24.3811C153.198 23.7654 153.506 23.1978 153.833 22.6783C154.16 22.1396 154.497 21.6971 154.843 21.3508C155.189 20.9852 155.516 20.8025 155.824 20.8025C156.036 20.8025 156.276 20.8506 156.546 20.9468C156.834 21.0237 157.104 21.1392 157.354 21.2931C157.604 21.4278 157.825 21.5817 158.018 21.7548C158.229 21.928 158.374 22.1012 158.451 22.2743C158.527 22.4667 158.576 22.7649 158.595 23.169C158.614 23.573 158.614 24.0251 158.595 24.5254C158.749 24.1598 158.922 23.8039 159.114 23.4576C159.307 23.1112 159.499 22.7938 159.691 22.5052C159.903 22.1974 160.115 21.9376 160.326 21.726C160.538 21.5143 160.73 21.37 160.904 21.2931C161.134 21.1969 161.413 21.1776 161.741 21.2354C162.068 21.2931 162.385 21.3989 162.693 21.5528C163.02 21.6875 163.299 21.851 163.53 22.0434C163.78 22.2358 163.934 22.4186 163.992 22.5918C164.049 22.7842 164.097 23.0824 164.136 23.4864C164.174 23.8905 164.203 24.333 164.222 24.814C164.242 25.295 164.251 25.7952 164.251 26.3147C164.251 26.8149 164.242 27.2574 164.222 27.6422C164.184 28.7581 164.194 29.6431 164.251 30.2973C164.309 30.9322 164.54 31.4036 164.944 31.7114C164.675 31.8846 164.424 32.0096 164.194 32.0866C163.963 32.1828 163.761 32.2501 163.588 32.2886C163.376 32.3463 163.193 32.3752 163.039 32.3752C162.828 32.3752 162.654 32.3175 162.52 32.202C162.385 32.1058 162.279 31.9711 162.202 31.798C162.125 31.6248 162.077 31.4324 162.058 31.2208C162.039 31.0092 162.029 30.7975 162.029 30.5859C162.029 30.3935 162.039 30.076 162.058 29.6335C162.096 29.1718 162.125 28.6523 162.145 28.0751C162.164 27.4979 162.164 26.9111 162.145 26.3147C162.125 25.699 162.077 25.141 162 24.6408C161.943 24.1213 161.837 23.6981 161.683 23.371C161.529 23.0439 161.317 22.8804 161.048 22.8804C160.817 22.8804 160.596 23.0247 160.384 23.3133C160.172 23.5826 159.97 23.9482 159.778 24.4099C159.586 24.8524 159.412 25.3527 159.259 25.9106C159.124 26.4493 158.999 26.988 158.883 27.5268C158.768 28.0655 158.681 28.5657 158.624 29.0275C158.566 29.47 158.537 29.8259 158.537 30.0953L158.508 29.8355C158.508 30.2011 158.508 30.5378 158.508 30.8456C158.527 31.1535 158.547 31.4613 158.566 31.7691C158.585 31.8846 158.479 31.9808 158.248 32.0577C158.018 32.1539 157.758 32.1924 157.469 32.1732C157.2 32.1732 156.95 32.1154 156.719 32C156.488 31.8846 156.373 31.6922 156.373 31.4228C156.373 31.2304 156.373 30.9418 156.373 30.557C156.373 30.1722 156.363 29.7393 156.344 29.2583C156.344 28.7773 156.334 28.2771 156.315 27.7576C156.315 27.2189 156.305 26.7091 156.286 26.2281C156.286 25.8625 156.276 25.4873 156.257 25.1026C156.257 24.7178 156.238 24.3714 156.199 24.0636C156.161 23.7365 156.084 23.4768 155.969 23.2844C155.872 23.092 155.728 22.9958 155.536 22.9958ZM171.004 26.5167C171.428 26.6706 171.832 26.8149 172.217 26.9496C172.601 27.0842 172.938 27.2478 173.227 27.4402C173.515 27.6326 173.746 27.8635 173.919 28.1328C174.092 28.3829 174.179 28.7004 174.179 29.0852C174.179 29.5469 174.073 29.9798 173.862 30.3839C173.669 30.7879 173.381 31.1438 172.996 31.4517C172.611 31.7595 172.14 32 171.582 32.1732C171.043 32.3656 170.437 32.4618 169.763 32.4618C169.013 32.4618 168.407 32.3848 167.945 32.2309C167.484 32.0962 167.128 31.9327 166.878 31.7403C166.627 31.5479 166.464 31.3555 166.387 31.1631C166.31 30.9707 166.271 30.8168 166.271 30.7013C166.271 30.4704 166.32 30.2203 166.416 29.951C166.512 29.6624 166.695 29.3545 166.964 29.0275C167.08 28.8928 167.205 28.7677 167.339 28.6523C167.609 28.4214 167.878 28.2771 168.147 28.2194C168.109 28.6619 168.157 29.0275 168.292 29.3161C168.446 29.5854 168.638 29.797 168.869 29.951C169.119 30.1049 169.388 30.2107 169.677 30.2684C169.985 30.3261 170.273 30.355 170.543 30.355C170.812 30.355 171.081 30.3165 171.351 30.2396C171.639 30.1626 171.899 30.0664 172.13 29.951C172.361 29.8163 172.544 29.672 172.678 29.5181C172.832 29.3449 172.909 29.1621 172.909 28.9697C172.909 28.7581 172.823 28.5849 172.649 28.4503C172.476 28.3156 172.255 28.2098 171.986 28.1328C171.736 28.0366 171.457 27.9693 171.149 27.9308C170.86 27.8731 170.581 27.8154 170.312 27.7576C170.042 27.6999 169.677 27.623 169.215 27.5268C168.773 27.4113 168.33 27.2382 167.888 27.0073C167.464 26.7764 167.089 26.4686 166.762 26.0838C166.454 25.699 166.3 25.1891 166.3 24.5542C166.3 23.8231 166.483 23.1882 166.849 22.6495C167.233 22.0915 167.695 21.6298 168.234 21.2642C168.792 20.8794 169.379 20.5908 169.994 20.3984C170.61 20.206 171.158 20.1098 171.639 20.1098C171.889 20.1098 172.159 20.1483 172.447 20.2253C172.736 20.283 173.005 20.3984 173.255 20.5716C173.506 20.7255 173.708 20.9372 173.862 21.2065C174.035 21.4759 174.121 21.8222 174.121 22.2455C174.121 22.6687 174.083 23.015 174.006 23.2844C173.948 23.5345 173.852 23.7365 173.717 23.8905C173.602 24.0251 173.458 24.1117 173.284 24.1502C173.111 24.1887 172.909 24.2079 172.678 24.2079C172.524 24.2079 172.38 24.1887 172.245 24.1502C172.13 24.1117 172.005 24.0732 171.87 24.0347C171.736 23.9963 171.61 23.9289 171.495 23.8327C171.687 23.6019 171.832 23.3806 171.928 23.169C172.043 22.9573 172.101 22.6976 172.101 22.3898C172.101 22.1204 172.024 21.8799 171.87 21.6683C171.736 21.4566 171.505 21.3508 171.178 21.3508C170.831 21.3508 170.495 21.4181 170.168 21.5528C169.86 21.6875 169.581 21.8703 169.331 22.1012C169.1 22.332 168.907 22.6014 168.753 22.9092C168.619 23.1978 168.551 23.5153 168.551 23.8616C168.551 24.3811 168.744 24.8717 169.129 25.3334C169.533 25.7952 170.158 26.1896 171.004 26.5167Z" fill="#090720"/>
<defs>
<linearGradient id="paint0_linear_110_171" x1="25.7372" y1="4.60948" x2="25.7372" y2="44" gradientUnits="userSpaceOnUse">
<stop stop-color="#4CB6CE"/>
<stop offset="1" stop-color="#3D9FCA"/>
</linearGradient>
</defs>
</svg>
