<svg width="181" height="44" viewBox="0 0 181 44" fill="none" xmlns="http://www.w3.org/2000/svg">
<path d="M72.5223 34.2987H72.4934L72.5223 34.3275C72.3491 34.5392 72.176 34.7027 72.0028 34.8182C71.8489 34.9336 71.695 35.0298 71.541 35.1068C71.3679 35.1837 71.214 35.2414 71.0793 35.2799C70.9639 35.2991 70.8484 35.3088 70.733 35.3088C70.6175 35.3088 70.4829 35.2991 70.3289 35.2799C70.1943 35.2799 70.05 35.2607 69.896 35.2222C69.5305 34.0678 69.213 32.8653 68.9437 31.6147C68.6743 30.3449 68.4434 29.1809 68.251 28.1227C68.0394 26.8914 67.8566 25.6697 67.7027 24.4576C67.5488 23.2839 67.4237 22.1103 67.3275 20.9367C67.2891 20.4365 67.241 19.917 67.1832 19.3783C67.1448 18.8396 67.1063 18.3008 67.0678 17.7621C67.0486 17.2042 67.0293 16.6655 67.0101 16.146C67.0101 15.6073 67.0197 15.107 67.0389 14.6453C67.4237 14.3759 67.8085 14.1739 68.1933 14.0392C68.5974 13.9046 68.9533 13.7987 69.2611 13.7218C69.6075 13.6448 69.9441 13.5967 70.2712 13.5775C70.1365 13.7314 70.0307 13.9911 69.9538 14.3567C69.896 14.703 69.8672 15.2032 69.8672 15.8574C69.8672 16.5115 69.896 17.3485 69.9538 18.3682C70.0115 19.3879 70.1077 20.6288 70.2424 22.0911C70.3001 22.6105 70.3578 23.1781 70.4155 23.7938C70.4925 24.4095 70.5694 25.054 70.6464 25.7274C70.7234 26.3815 70.8003 27.0453 70.8773 27.7187C70.9735 28.3728 71.0601 28.9981 71.137 29.5946C71.3102 28.5556 71.5218 27.3435 71.7719 25.9583C72.0413 24.573 72.3684 23.1396 72.7531 21.6582C73.0225 20.5807 73.2726 19.5803 73.5035 18.6568C73.7151 17.8487 73.9172 17.0695 74.1095 16.3191C74.3212 15.5496 74.4847 14.982 74.6002 14.6164C74.9657 14.4625 75.2832 14.3567 75.5525 14.299C75.7064 14.2605 75.8411 14.2316 75.9566 14.2124H76.3606C76.4953 14.2124 76.6396 14.222 76.7935 14.2413C76.9474 14.2605 77.1109 14.299 77.2841 14.3567C77.438 15.9921 77.6016 17.5505 77.7747 19.0319C77.9479 20.4942 78.1114 21.8025 78.2653 22.9569C78.4577 24.3036 78.6405 25.5446 78.8137 26.6797C78.9099 27.4493 79.0157 28.1516 79.1311 28.7865C79.2658 29.4214 79.3812 30.0082 79.4774 30.5469C79.5736 30.0275 79.6987 29.3925 79.8526 28.6422C80.0258 27.8726 80.1797 26.9395 80.3144 25.8428C80.5068 24.6692 80.6799 23.4571 80.8338 22.2065C80.9685 21.1291 81.0936 19.9362 81.209 18.6279C81.3437 17.3004 81.4495 15.9728 81.5265 14.6453C81.6804 14.5106 81.8343 14.3952 81.9882 14.299C82.1614 14.2028 82.3249 14.1162 82.4788 14.0392C82.652 13.9623 82.8252 13.8949 82.9983 13.8372C83.1715 13.7795 83.3542 13.7314 83.5466 13.6929C83.7006 13.6544 83.8737 13.6256 84.0661 13.6063C84.2585 13.5871 84.4317 13.5871 84.5856 13.6063C84.4894 14.626 84.3547 15.7516 84.1816 16.9829C84.0084 18.195 83.8352 19.3302 83.6621 20.3884C83.4504 21.6389 83.2388 22.8799 83.0272 24.1112C82.7963 25.3426 82.5366 26.5932 82.248 27.863C81.9978 28.9597 81.7092 30.1429 81.3822 31.4127C81.0743 32.6633 80.7376 33.8465 80.3721 34.9625C80.2566 35.0779 80.122 35.1549 79.9681 35.1933C79.8141 35.251 79.6602 35.2991 79.5063 35.3376C79.3331 35.3761 79.1696 35.3953 79.0157 35.3953C78.7078 35.3953 78.4674 35.3569 78.2942 35.2799C78.121 35.2222 77.9864 35.126 77.8902 34.9913C77.8132 34.8759 77.7555 34.7316 77.717 34.5584C77.6785 34.3853 77.64 34.1929 77.6016 33.9812L75.5525 19.4071L72.5223 34.2987ZM85.6823 22.7837C85.6823 22.6683 85.8362 22.5432 86.144 22.4085C86.4518 22.2738 86.7885 22.168 87.1541 22.0911C87.5389 21.9949 87.8852 21.9468 88.193 21.9468C88.5201 21.9275 88.6837 21.9949 88.6837 22.1488C88.6837 22.4374 88.6644 22.851 88.6259 23.3898C88.5875 23.9092 88.5394 24.4672 88.4816 25.0636C88.4239 25.6408 88.3662 26.2276 88.3085 26.824C88.2508 27.4012 88.2123 27.8918 88.193 28.2959C88.1546 28.7192 88.1161 29.1809 88.0776 29.6811C88.0391 30.1044 88.0103 30.5758 87.991 31.0953C87.9718 31.6147 87.9718 32.1438 87.991 32.6825C87.991 32.7787 87.8948 32.8749 87.7024 32.9711C87.51 33.0673 87.2984 33.1347 87.0675 33.1732C86.8366 33.2309 86.6154 33.2597 86.4037 33.2597C86.1921 33.2597 86.0767 33.2213 86.0574 33.1443C86.0189 33.0673 85.9805 32.9327 85.942 32.7403C85.9035 32.5479 85.865 32.2785 85.8265 31.9322C85.7881 31.5666 85.7592 31.1049 85.74 30.5469C85.7207 29.9697 85.7304 29.2771 85.7688 28.469C85.8458 26.8721 85.8554 25.6408 85.7977 24.775C85.74 23.89 85.7015 23.2262 85.6823 22.7837ZM87.7024 17.0406C88.0872 17.0406 88.4528 17.1561 88.7991 17.387C89.1454 17.6178 89.3186 17.9257 89.3186 18.3105C89.3186 18.5991 89.2416 18.878 89.0877 19.1474C88.953 19.4167 88.7798 19.6572 88.5682 19.8689C88.3566 20.0805 88.1161 20.2537 87.8467 20.3884C87.5774 20.5038 87.3272 20.5615 87.0964 20.5615C86.7885 20.5615 86.5384 20.5134 86.346 20.4172C86.1536 20.3018 85.9997 20.1767 85.8843 20.042C85.7881 19.8881 85.7207 19.7246 85.6823 19.5514C85.6438 19.3783 85.6245 19.2147 85.6245 19.0608C85.6245 18.8684 85.6534 18.6568 85.7111 18.4259C85.7688 18.1758 85.8746 17.9545 86.0286 17.7621C86.1825 17.5505 86.3941 17.3773 86.6635 17.2427C86.9328 17.108 87.2791 17.0406 87.7024 17.0406ZM86.9809 19.7246C87.0964 19.7246 87.2214 19.6861 87.3561 19.6091C87.51 19.5129 87.6447 19.4071 87.7601 19.2917C87.8948 19.1762 88.0006 19.0512 88.0776 18.9165C88.1738 18.7818 88.2219 18.6664 88.2219 18.5702C88.2219 18.4163 88.1449 18.3393 87.991 18.3393C87.8948 18.3393 87.7698 18.3778 87.6158 18.4548C87.4812 18.5317 87.3465 18.6279 87.2118 18.7434C87.0771 18.8396 86.9617 18.955 86.8655 19.0897C86.7885 19.2051 86.7501 19.3205 86.7501 19.436C86.7501 19.6284 86.827 19.7246 86.9809 19.7246ZM93.6764 32.2208C93.6571 32.3362 93.5513 32.4613 93.3589 32.596C93.1858 32.7114 92.9741 32.8172 92.724 32.9134C92.4931 33.0096 92.2719 33.0673 92.0602 33.0866C91.8486 33.1251 91.7043 33.1058 91.6273 33.0289C91.5504 32.9519 91.4253 32.8076 91.2522 32.596C91.079 32.3843 90.9732 32.038 90.9347 31.557C90.8962 31.0568 90.877 30.4315 90.877 29.6811C90.877 28.9116 90.8674 28.065 90.8481 27.1415V25.9871C90.8481 25.6408 90.8385 25.2368 90.8193 24.775C90.8193 24.3133 90.8096 23.8323 90.7904 23.332C90.9636 23.2358 91.1367 23.1493 91.3099 23.0723C91.5023 22.9761 91.6754 22.8991 91.8293 22.8414C92.0025 22.7645 92.166 22.7067 92.32 22.6683C92.724 22.5528 93.0318 22.4855 93.2435 22.4662C93.4551 22.447 93.5802 22.5143 93.6186 22.6683C93.6379 22.7837 93.6283 23.0627 93.5898 23.5052C93.5513 23.89 93.5032 24.4768 93.4455 25.2656C93.3878 26.0352 93.2916 27.1126 93.1569 28.4979C93.407 27.8822 93.609 27.3531 93.7629 26.9106C93.9361 26.4681 94.0804 26.1122 94.1958 25.8428C94.3113 25.5157 94.4171 25.256 94.5133 25.0636C94.6095 24.8135 94.7345 24.5345 94.8885 24.2267C95.0424 23.9188 95.1963 23.6302 95.3502 23.3609C95.5234 23.0915 95.6773 22.851 95.812 22.6394C95.9659 22.4278 96.0813 22.3027 96.1583 22.2642C96.216 22.2257 96.3892 22.2257 96.6778 22.2642C96.9664 22.3027 97.2742 22.3989 97.6013 22.5528C97.9283 22.6875 98.2458 22.8895 98.5536 23.1589C98.8615 23.409 99.0635 23.7168 99.1597 24.0824C99.2751 24.5057 99.3136 25.0636 99.2751 25.7562C99.2559 26.4489 99.2078 27.1607 99.1308 27.8918C99.0731 28.623 99.025 29.3156 98.9865 29.9697C98.9481 30.6239 98.9865 31.1241 99.102 31.4704C99.1404 31.6628 99.1982 31.836 99.2751 31.9899C99.3136 32.1438 99.3617 32.2881 99.4194 32.4228C99.4964 32.5382 99.5733 32.6248 99.6503 32.6825C99.1885 32.8942 98.8134 33.0481 98.5248 33.1443C98.2362 33.2405 98.0149 33.3078 97.861 33.3463C97.6686 33.404 97.5339 33.4233 97.457 33.404C97.2838 33.3463 97.1299 33.202 96.9952 32.9711C96.8798 32.7403 96.774 32.3747 96.6778 31.8745C96.6393 31.7206 96.62 31.4704 96.62 31.1241C96.6393 30.7586 96.6681 30.3545 96.7066 29.912C96.7451 29.4503 96.7836 28.9789 96.8221 28.4979C96.8798 27.9977 96.9183 27.5359 96.9375 27.1126C96.976 26.6701 97.0048 26.295 97.0241 25.9871C97.0433 25.66 97.0433 25.4388 97.0241 25.3233C96.9279 24.977 96.7932 24.7365 96.62 24.6019C96.4469 24.4479 96.3122 24.4287 96.216 24.5441C95.9659 24.8327 95.6965 25.3041 95.4079 25.9583C95.1386 26.5932 94.8788 27.2954 94.6287 28.065C94.3786 28.8154 94.167 29.5657 93.9938 30.3161C93.8207 31.0664 93.7148 31.7013 93.6764 32.2208ZM112.175 20.1575C111.964 20.119 111.675 20.0805 111.31 20.042C110.963 20.0036 110.607 19.9747 110.242 19.9555C109.819 19.9362 109.366 19.9266 108.885 19.9266C108.404 19.8881 107.798 19.8881 107.067 19.9266C106.355 19.9458 105.605 19.9555 104.816 19.9555C104.797 20.4557 104.758 20.9655 104.701 21.485C104.662 22.0045 104.624 22.5143 104.585 23.0146C104.489 23.9381 104.403 24.8808 104.326 25.8428C104.268 26.8048 104.239 27.7187 104.239 28.5845C104.239 29.4503 104.287 30.2391 104.383 30.951C104.499 31.6436 104.701 32.1919 104.989 32.596C104.758 32.7691 104.508 32.9038 104.239 33C103.97 33.077 103.729 33.1347 103.517 33.1732C103.267 33.2309 103.017 33.2597 102.767 33.2597C102.536 33.2597 102.344 33.1828 102.19 33.0289C102.036 32.8749 101.949 32.6056 101.93 32.2208C101.892 31.5666 101.882 30.9125 101.901 30.2583C101.94 29.5849 101.978 28.8827 102.017 28.1516C102.075 27.4205 102.132 26.6413 102.19 25.814C102.248 24.9674 102.305 24.0439 102.363 23.0434C102.421 22.0045 102.45 20.9944 102.45 20.0132C101.719 20.0324 101.103 20.042 100.603 20.042C100.102 20.042 99.8235 20.0324 99.7657 20.0132C99.708 19.9747 99.6407 19.8881 99.5637 19.7534C99.4868 19.638 99.3906 19.4648 99.2751 19.234C99.1404 19.0031 98.9769 18.676 98.7845 18.2527C99.1501 18.2527 99.5541 18.2527 99.9966 18.2527C100.42 18.2527 100.814 18.2431 101.18 18.2239C101.603 18.2046 102.026 18.1854 102.45 18.1662C102.43 17.8583 102.421 17.5313 102.421 17.1849C102.402 16.9156 102.392 16.6174 102.392 16.2903C102.392 15.944 102.382 15.6265 102.363 15.3379C102.363 15.2225 102.498 15.0878 102.767 14.9339C103.056 14.7607 103.364 14.6068 103.691 14.4721C104.018 14.3375 104.316 14.2509 104.585 14.2124C104.874 14.1739 105.018 14.2413 105.018 14.4144C105.018 14.5876 105.009 15.0108 104.989 15.6842C104.989 16.3384 104.97 17.1368 104.932 18.0796C105.124 18.0796 105.268 18.07 105.365 18.0507C106.384 18.0122 107.202 17.9738 107.818 17.9353C108.452 17.8776 108.972 17.8679 109.376 17.9064C109.78 17.9449 110.136 18.0411 110.444 18.195C110.752 18.3489 111.098 18.5991 111.483 18.9454C111.617 19.0608 111.733 19.1859 111.829 19.3205C111.925 19.436 112.002 19.5707 112.06 19.7246C112.137 19.8593 112.175 20.0036 112.175 20.1575ZM111.194 33.3175C109.847 33.3175 108.808 32.8653 108.077 31.9611C107.346 31.0568 106.981 29.8735 106.981 28.4113C106.981 27.3916 107.125 26.4392 107.414 25.5542C107.721 24.65 108.125 23.8707 108.626 23.2166C109.126 22.5624 109.703 22.0526 110.357 21.687C111.031 21.3022 111.733 21.1098 112.464 21.1098C113.176 21.1098 113.782 21.3696 114.282 21.8891C114.782 22.3893 115.032 23.1108 115.032 24.0535C115.032 24.6692 114.898 25.2849 114.628 25.9005C114.359 26.497 114.003 27.0357 113.561 27.5167C113.137 27.9784 112.666 28.3536 112.147 28.6422C111.627 28.9308 111.127 29.0751 110.646 29.0751C110.338 29.0751 110.078 29.0366 109.867 28.9597C109.655 28.8827 109.463 28.7673 109.289 28.6133C109.347 29.71 109.588 30.4796 110.011 30.9221C110.434 31.3454 110.983 31.557 111.656 31.557C112.118 31.557 112.522 31.4608 112.868 31.2684C113.234 31.076 113.541 30.8548 113.792 30.6047C114.042 30.3545 114.244 30.1044 114.398 29.8543C114.551 29.5849 114.657 29.3829 114.715 29.2483C114.773 29.1328 114.869 29.0751 115.004 29.0751C115.158 29.0751 115.234 29.1905 115.234 29.4214C115.234 29.633 115.158 29.9601 115.004 30.4026C114.869 30.8259 114.638 31.2588 114.311 31.7013C113.984 32.1246 113.561 32.4998 113.041 32.8268C112.541 33.1539 111.925 33.3175 111.194 33.3175ZM112.522 22.3508C112.406 22.3508 112.185 22.4759 111.858 22.726C111.55 22.9569 111.213 23.3032 110.848 23.7649C110.502 24.2267 110.174 24.7846 109.867 25.4388C109.578 26.0737 109.395 26.7952 109.318 27.6033C110.473 27.3339 111.387 26.9106 112.06 26.3334C112.733 25.7562 113.07 24.9097 113.07 23.7938C113.07 23.2358 113.003 22.8607 112.868 22.6683C112.733 22.4566 112.618 22.3508 112.522 22.3508ZM124.729 24.1401C124.729 24.4095 124.652 24.6884 124.498 24.977C124.364 25.2464 124.191 25.5061 123.979 25.7562C123.767 26.0064 123.527 26.2276 123.257 26.42C123.007 26.5932 122.767 26.699 122.536 26.7375C122.69 26.141 122.738 25.6793 122.68 25.3522C122.623 25.0251 122.526 24.7846 122.392 24.6307C122.238 24.4576 122.045 24.3614 121.814 24.3421C121.468 24.3421 121.131 24.5441 120.804 24.9482C120.497 25.333 120.227 25.814 119.996 26.3911C119.765 26.9491 119.583 27.5552 119.448 28.2093C119.313 28.8442 119.246 29.4214 119.246 29.9409C119.227 30.3064 119.236 30.6624 119.275 31.0087C119.294 31.2973 119.323 31.5955 119.361 31.9033C119.419 32.2112 119.496 32.4517 119.592 32.6248C119.477 32.721 119.284 32.8365 119.015 32.9711C118.765 33.1058 118.496 33.1924 118.207 33.2309C117.938 33.2694 117.688 33.2213 117.457 33.0866C117.245 32.9519 117.13 32.6633 117.11 32.2208C117.072 31.7975 117.043 31.3261 117.024 30.8067C117.024 30.268 117.024 29.7389 117.024 29.2194C117.043 28.6807 117.062 28.1516 117.082 27.6321C117.101 27.1126 117.13 26.6316 117.168 26.1891C117.207 25.3426 117.226 24.6884 117.226 24.2267C117.226 23.7649 117.216 23.3224 117.197 22.8991C117.197 22.8222 117.322 22.7164 117.572 22.5817C117.841 22.4278 118.13 22.2931 118.438 22.1776C118.765 22.0622 119.063 21.9949 119.333 21.9756C119.602 21.9564 119.737 22.0141 119.737 22.1488C119.737 22.3604 119.708 22.7837 119.65 23.4186C119.612 24.0343 119.554 24.6788 119.477 25.3522C119.612 24.9866 119.785 24.5922 119.996 24.169C120.227 23.7457 120.487 23.3513 120.776 22.9857C121.064 22.6202 121.391 22.3219 121.757 22.0911C122.122 21.841 122.526 21.7159 122.969 21.7159C123.315 21.7159 123.594 21.8217 123.806 22.0333C124.037 22.245 124.219 22.4855 124.354 22.7548C124.489 23.0242 124.585 23.2936 124.643 23.5629C124.7 23.8323 124.729 24.0247 124.729 24.1401ZM132.175 17.0406C132.06 16.9252 131.973 16.8001 131.915 16.6655C131.858 16.5115 131.81 16.3576 131.771 16.2037C131.733 16.0306 131.704 15.8574 131.684 15.6842C131.665 15.5303 131.665 15.3764 131.684 15.2225C131.684 14.9339 131.742 14.7126 131.858 14.5587C132.069 14.5202 132.3 14.4818 132.55 14.4433C132.8 14.3856 133.041 14.3375 133.272 14.299C133.541 14.2605 133.82 14.222 134.109 14.1835C134.263 14.0296 134.465 13.8661 134.715 13.6929C134.984 13.5005 135.282 13.3274 135.609 13.1734C135.859 13.058 136.033 13.058 136.129 13.1734C136.225 13.2889 136.292 13.5294 136.331 13.8949C136.812 13.8565 137.312 13.818 137.832 13.7795C138.351 13.741 138.89 13.7218 139.448 13.7218C140.198 13.7025 140.9 13.6833 141.554 13.6641C142.112 13.6448 142.67 13.6448 143.228 13.6641C143.806 13.6641 144.248 13.6737 144.556 13.6929C144.71 13.7122 144.825 13.8276 144.902 14.0392C144.998 14.2316 145.027 14.4914 144.989 14.8184C144.97 15.1263 144.873 15.463 144.7 15.8285C144.527 16.1941 144.267 16.55 143.921 16.8963C143.459 16.8001 142.969 16.7232 142.449 16.6655C141.949 16.6077 141.487 16.5596 141.064 16.5212C140.564 16.4827 140.083 16.4731 139.621 16.4923C139.063 16.4923 138.505 16.5115 137.947 16.55C137.389 16.5693 136.86 16.5981 136.36 16.6366C136.34 17.5024 136.321 18.5125 136.302 19.6669C136.302 20.802 136.292 22.0622 136.273 23.4475C136.543 23.409 136.802 23.3898 137.052 23.3898C137.302 23.3705 137.562 23.3513 137.832 23.332C138.524 23.2936 139.198 23.2551 139.852 23.2166C140.506 23.1781 141.073 23.1974 141.554 23.2743C142.055 23.332 142.43 23.4763 142.68 23.7072C142.93 23.9381 142.988 24.3036 142.853 24.8039L142.449 26.1891C142.411 26.0929 142.305 26.016 142.132 25.9583C141.978 25.8813 141.795 25.8236 141.583 25.7851C141.352 25.7274 141.093 25.6793 140.804 25.6408C140.131 25.5638 139.39 25.5542 138.582 25.6119C137.774 25.6697 136.995 25.7562 136.244 25.8717C136.244 26.8337 136.254 27.7476 136.273 28.6133C136.312 29.4599 136.35 30.2295 136.389 30.9221C136.446 31.6147 136.494 32.2112 136.533 32.7114C136.571 33.2116 136.6 33.5868 136.619 33.8369C136.639 34.0101 136.619 34.1448 136.562 34.241C136.466 34.3564 136.35 34.4911 136.215 34.645C136.081 34.7989 135.908 34.9528 135.696 35.1068C135.484 35.2607 135.225 35.3857 134.917 35.4819C134.628 35.5974 134.291 35.6647 133.907 35.6839C133.734 35.6839 133.647 35.5974 133.647 35.4242V26.4777C133.32 26.4585 133.022 26.2084 132.752 25.7274C132.483 25.2464 132.358 24.7077 132.377 24.1112C132.512 24.0728 132.646 24.0439 132.781 24.0247C132.935 24.0054 133.079 23.9766 133.214 23.9381C133.368 23.8996 133.512 23.8707 133.647 23.8515C133.647 22.4662 133.657 21.1772 133.676 19.9843C133.695 18.7722 133.724 17.7333 133.762 16.8675C133.589 16.8867 133.406 16.906 133.214 16.9252C133.06 16.9444 132.887 16.9637 132.695 16.9829C132.502 17.0022 132.329 17.0214 132.175 17.0406ZM144.614 22.7837C144.614 22.6683 144.767 22.5432 145.075 22.4085C145.383 22.2738 145.72 22.168 146.085 22.0911C146.47 21.9949 146.817 21.9468 147.124 21.9468C147.451 21.9275 147.615 21.9949 147.615 22.1488C147.615 22.4374 147.596 22.851 147.557 23.3898C147.519 23.9092 147.471 24.4672 147.413 25.0636C147.355 25.6408 147.298 26.2276 147.24 26.824C147.182 27.4012 147.144 27.8918 147.124 28.2959C147.086 28.7192 147.047 29.1809 147.009 29.6811C146.97 30.1044 146.942 30.5758 146.922 31.0953C146.903 31.6147 146.903 32.1438 146.922 32.6825C146.922 32.7787 146.826 32.8749 146.634 32.9711C146.441 33.0673 146.23 33.1347 145.999 33.1732C145.768 33.2309 145.547 33.2597 145.335 33.2597C145.123 33.2597 145.008 33.2213 144.989 33.1443C144.95 33.0673 144.912 32.9327 144.873 32.7403C144.835 32.5479 144.796 32.2785 144.758 31.9322C144.719 31.5666 144.691 31.1049 144.671 30.5469C144.652 29.9697 144.662 29.2771 144.7 28.469C144.777 26.8721 144.787 25.6408 144.729 24.775C144.671 23.89 144.633 23.2262 144.614 22.7837ZM146.634 17.0406C147.019 17.0406 147.384 17.1561 147.73 17.387C148.077 17.6178 148.25 17.9257 148.25 18.3105C148.25 18.5991 148.173 18.878 148.019 19.1474C147.884 19.4167 147.711 19.6572 147.5 19.8689C147.288 20.0805 147.047 20.2537 146.778 20.3884C146.509 20.5038 146.259 20.5615 146.028 20.5615C145.72 20.5615 145.47 20.5134 145.277 20.4172C145.085 20.3018 144.931 20.1767 144.816 20.042C144.719 19.8881 144.652 19.7246 144.614 19.5514C144.575 19.3783 144.556 19.2147 144.556 19.0608C144.556 18.8684 144.585 18.6568 144.642 18.4259C144.7 18.1758 144.806 17.9545 144.96 17.7621C145.114 17.5505 145.325 17.3773 145.595 17.2427C145.864 17.108 146.21 17.0406 146.634 17.0406ZM145.912 19.7246C146.028 19.7246 146.153 19.6861 146.287 19.6091C146.441 19.5129 146.576 19.4071 146.691 19.2917C146.826 19.1762 146.932 19.0512 147.009 18.9165C147.105 18.7818 147.153 18.6664 147.153 18.5702C147.153 18.4163 147.076 18.3393 146.922 18.3393C146.826 18.3393 146.701 18.3778 146.547 18.4548C146.412 18.5317 146.278 18.6279 146.143 18.7434C146.008 18.8396 145.893 18.955 145.797 19.0897C145.72 19.2051 145.681 19.3205 145.681 19.436C145.681 19.6284 145.758 19.7246 145.912 19.7246ZM153.358 14.299C153.32 14.9916 153.252 15.7901 153.156 16.6943C153.06 17.5986 152.954 18.5702 152.839 19.6091C152.742 20.6481 152.637 21.7351 152.521 22.8703C152.425 24.0054 152.338 25.1502 152.261 26.3046C152.184 27.459 152.146 28.4017 152.146 29.1328C152.165 29.8447 152.213 30.4315 152.29 30.8932C152.367 31.355 152.473 31.7206 152.608 31.9899C152.742 32.2593 152.916 32.519 153.127 32.7691C152.877 32.923 152.646 33.0385 152.435 33.1154C152.223 33.1924 152.04 33.2501 151.886 33.2886C151.694 33.3463 151.521 33.3752 151.367 33.3752C151.078 33.3752 150.828 33.2405 150.616 32.9711C150.405 32.6825 150.232 32.317 150.097 31.8745C149.981 31.432 149.885 30.9413 149.808 30.4026C149.751 29.8447 149.722 29.2964 149.722 28.7576C149.722 28.1804 149.741 27.5167 149.779 26.7663C149.818 25.9967 149.856 25.1887 149.895 24.3421C149.953 23.4763 150.01 22.5817 150.068 21.6582C150.126 20.7154 150.174 19.7823 150.212 18.8588C150.251 18.1469 150.289 17.5024 150.328 16.9252C150.366 16.425 150.395 15.9728 150.414 15.5688C150.434 15.1455 150.424 14.8954 150.385 14.8184C150.501 14.6645 150.645 14.5491 150.818 14.4721C150.992 14.3952 151.155 14.3278 151.309 14.2701C151.501 14.2124 151.694 14.1643 151.886 14.1258H152.435C152.588 14.1258 152.752 14.1451 152.925 14.1835C153.098 14.2028 153.243 14.2413 153.358 14.299ZM161.092 23.9958C160.938 23.9958 160.765 24.0824 160.573 24.2555C160.4 24.4095 160.227 24.6307 160.053 24.9193C159.88 25.1887 159.707 25.4965 159.534 25.8428C159.361 26.1699 159.207 26.5066 159.072 26.8529C158.745 27.661 158.428 28.4883 158.12 29.3348C157.812 30.1814 157.629 30.9125 157.572 31.5282C157.552 31.5859 157.543 31.6436 157.543 31.7013C157.543 31.7398 157.543 31.7783 157.543 31.8168C157.523 31.8552 157.514 31.913 157.514 31.9899C157.475 32.2593 157.418 32.4805 157.341 32.6537C157.283 32.8076 157.148 32.9134 156.937 32.9711C156.706 33.0096 156.475 33.0385 156.244 33.0577C156.013 33.077 155.792 33.0577 155.58 33C155.446 32.9615 155.34 32.8942 155.263 32.798C155.205 32.6825 155.157 32.5575 155.118 32.4228C155.099 32.2689 155.08 32.1246 155.061 31.9899C155.061 31.8552 155.061 31.7398 155.061 31.6436C155.061 31.5282 155.07 31.1722 155.09 30.5758C155.109 29.9601 155.128 29.2675 155.147 28.4979C155.167 27.7283 155.176 26.978 155.176 26.2469C155.176 25.4965 155.167 24.9289 155.147 24.5441C155.109 24.2748 155.07 24.0247 155.032 23.7938C154.993 23.5821 154.945 23.3705 154.888 23.1589C154.849 22.9472 154.782 22.7645 154.686 22.6105C154.897 22.4951 155.109 22.3989 155.32 22.3219C155.532 22.245 155.725 22.1873 155.898 22.1488C156.109 22.0911 156.302 22.0526 156.475 22.0333C156.937 21.9949 157.293 21.9949 157.543 22.0333C157.812 22.0718 157.947 22.2738 157.947 22.6394C157.947 22.9665 157.918 23.4763 157.86 24.169C157.822 24.8424 157.774 25.7851 157.716 26.9972C157.927 26.5162 158.178 25.9775 158.466 25.3811C158.755 24.7654 159.063 24.1978 159.39 23.6783C159.717 23.1396 160.053 22.6971 160.4 22.3508C160.746 21.9852 161.073 21.8025 161.381 21.8025C161.593 21.8025 161.833 21.8506 162.102 21.9468C162.391 22.0237 162.66 22.1392 162.911 22.2931C163.161 22.4278 163.382 22.5817 163.574 22.7548C163.786 22.928 163.93 23.1012 164.007 23.2743C164.084 23.4667 164.132 23.7649 164.152 24.169C164.171 24.573 164.171 25.0251 164.152 25.5254C164.305 25.1598 164.479 24.8039 164.671 24.4576C164.863 24.1112 165.056 23.7938 165.248 23.5052C165.46 23.1974 165.671 22.9376 165.883 22.726C166.095 22.5143 166.287 22.37 166.46 22.2931C166.691 22.1969 166.97 22.1776 167.297 22.2354C167.624 22.2931 167.942 22.3989 168.25 22.5528C168.577 22.6875 168.856 22.851 169.087 23.0434C169.337 23.2358 169.491 23.4186 169.548 23.5918C169.606 23.7842 169.654 24.0824 169.693 24.4864C169.731 24.8905 169.76 25.333 169.779 25.814C169.798 26.295 169.808 26.7952 169.808 27.3147C169.808 27.8149 169.798 28.2574 169.779 28.6422C169.741 29.7581 169.75 30.6431 169.808 31.2973C169.866 31.9322 170.097 32.4036 170.501 32.7114C170.231 32.8846 169.981 33.0096 169.75 33.0866C169.519 33.1828 169.317 33.2501 169.144 33.2886C168.933 33.3463 168.75 33.3752 168.596 33.3752C168.384 33.3752 168.211 33.3175 168.076 33.202C167.942 33.1058 167.836 32.9711 167.759 32.798C167.682 32.6248 167.634 32.4324 167.615 32.2208C167.595 32.0092 167.586 31.7975 167.586 31.5859C167.586 31.3935 167.595 31.076 167.615 30.6335C167.653 30.1718 167.682 29.6523 167.701 29.0751C167.72 28.4979 167.72 27.9111 167.701 27.3147C167.682 26.699 167.634 26.141 167.557 25.6408C167.499 25.1213 167.393 24.6981 167.24 24.371C167.086 24.0439 166.874 23.8804 166.605 23.8804C166.374 23.8804 166.152 24.0247 165.941 24.3133C165.729 24.5826 165.527 24.9482 165.335 25.4099C165.142 25.8524 164.969 26.3527 164.815 26.9106C164.681 27.4493 164.556 27.988 164.44 28.5268C164.325 29.0655 164.238 29.5657 164.18 30.0275C164.123 30.47 164.094 30.8259 164.094 31.0953L164.065 30.8355C164.065 31.2011 164.065 31.5378 164.065 31.8456C164.084 32.1535 164.103 32.4613 164.123 32.7691C164.142 32.8846 164.036 32.9808 163.805 33.0577C163.574 33.1539 163.315 33.1924 163.026 33.1732C162.757 33.1732 162.507 33.1154 162.276 33C162.045 32.8846 161.929 32.6922 161.929 32.4228C161.929 32.2304 161.929 31.9418 161.929 31.557C161.929 31.1722 161.92 30.7393 161.9 30.2583C161.9 29.7773 161.891 29.2771 161.872 28.7576C161.872 28.2189 161.862 27.7091 161.843 27.2281C161.843 26.8625 161.833 26.4873 161.814 26.1026C161.814 25.7178 161.795 25.3714 161.756 25.0636C161.718 24.7365 161.641 24.4768 161.525 24.2844C161.429 24.092 161.285 23.9958 161.092 23.9958ZM176.561 27.5167C176.984 27.6706 177.388 27.8149 177.773 27.9496C178.158 28.0842 178.495 28.2478 178.783 28.4402C179.072 28.6326 179.303 28.8635 179.476 29.1328C179.649 29.3829 179.736 29.7004 179.736 30.0852C179.736 30.5469 179.63 30.9798 179.418 31.3839C179.226 31.7879 178.937 32.1438 178.552 32.4517C178.168 32.7595 177.696 33 177.138 33.1732C176.6 33.3656 175.994 33.4618 175.32 33.4618C174.57 33.4618 173.964 33.3848 173.502 33.2309C173.04 33.0962 172.684 32.9327 172.434 32.7403C172.184 32.5479 172.021 32.3555 171.944 32.1631C171.867 31.9707 171.828 31.8168 171.828 31.7013C171.828 31.4704 171.876 31.2203 171.972 30.951C172.069 30.6624 172.251 30.3545 172.521 30.0275C172.636 29.8928 172.761 29.7677 172.896 29.6523C173.165 29.4214 173.435 29.2771 173.704 29.2194C173.666 29.6619 173.714 30.0275 173.848 30.3161C174.002 30.5854 174.195 30.797 174.426 30.951C174.676 31.1049 174.945 31.2107 175.234 31.2684C175.541 31.3261 175.83 31.355 176.099 31.355C176.369 31.355 176.638 31.3165 176.907 31.2396C177.196 31.1626 177.456 31.0664 177.687 30.951C177.918 30.8163 178.1 30.672 178.235 30.5181C178.389 30.3449 178.466 30.1621 178.466 29.9697C178.466 29.7581 178.379 29.5849 178.206 29.4503C178.033 29.3156 177.812 29.2098 177.542 29.1328C177.292 29.0366 177.013 28.9693 176.705 28.9308C176.417 28.8731 176.138 28.8154 175.869 28.7576C175.599 28.6999 175.234 28.623 174.772 28.5268C174.329 28.4113 173.887 28.2382 173.444 28.0073C173.021 27.7764 172.646 27.4686 172.319 27.0838C172.011 26.699 171.857 26.1891 171.857 25.5542C171.857 24.8231 172.04 24.1882 172.405 23.6495C172.79 23.0915 173.252 22.6298 173.791 22.2642C174.349 21.8794 174.935 21.5908 175.551 21.3984C176.167 21.206 176.715 21.1098 177.196 21.1098C177.446 21.1098 177.716 21.1483 178.004 21.2253C178.293 21.283 178.562 21.3984 178.812 21.5716C179.062 21.7255 179.264 21.9372 179.418 22.2065C179.591 22.4759 179.678 22.8222 179.678 23.2455C179.678 23.6687 179.64 24.015 179.563 24.2844C179.505 24.5345 179.409 24.7365 179.274 24.8905C179.159 25.0251 179.014 25.1117 178.841 25.1502C178.668 25.1887 178.466 25.2079 178.235 25.2079C178.081 25.2079 177.937 25.1887 177.802 25.1502C177.687 25.1117 177.562 25.0732 177.427 25.0347C177.292 24.9963 177.167 24.9289 177.052 24.8327C177.244 24.6019 177.388 24.3806 177.485 24.169C177.6 23.9573 177.658 23.6976 177.658 23.3898C177.658 23.1204 177.581 22.8799 177.427 22.6683C177.292 22.4566 177.061 22.3508 176.734 22.3508C176.388 22.3508 176.051 22.4181 175.724 22.5528C175.416 22.6875 175.137 22.8703 174.887 23.1012C174.656 23.332 174.464 23.6014 174.31 23.9092C174.175 24.1978 174.108 24.5153 174.108 24.8616C174.108 25.3811 174.3 25.8717 174.685 26.3334C175.089 26.7952 175.715 27.1896 176.561 27.5167Z" fill="#090720"/>
<path fill-rule="evenodd" clip-rule="evenodd" d="M43.0186 4.51923C44.1461 4.55127 46.575 4.90364 47.2708 6.05686C48.1405 7.49839 54.4221 22.0098 49.7834 31.3317C46.0724 38.7892 40.7959 41.3263 40.7959 41.3263C39.0564 41.9029 30.1656 43.2483 27.363 42.96C25.8157 42.8008 18.5688 39.8847 16.5394 36.8095C16.1379 36.2011 15.8196 35.698 15.5576 35.2838C14.4952 33.6047 14.3581 33.3878 13.3503 33.542C12.094 33.7342 3.58969 34.2147 0.593857 26.6227C-2.40197 19.0306 6.68216 15.2826 11.2242 17.3969C11.2242 16.2437 11.3209 11.5347 12.6738 9.80484C14.0268 8.075 25.5268 1.15566 43.0186 4.51923ZM11.2242 20.8566C9.06593 20.4081 4.59474 20.4722 3.97625 24.3162C3.20313 29.1213 11.6108 32.7732 13.3503 30.7551C12.8671 29.4417 11.7654 25.6232 11.2242 20.8566Z" fill="url(#paint0_linear_18_372)"/>
<path d="M44.2245 5.27278C43.5274 5.19468 43.4823 4.65449 43.5468 4.39417C44.595 4.45925 46.8321 4.86276 47.3942 5.95615C47.1588 6.66971 46.99 7.42885 45.5894 8.31752C36.9735 13.7844 20.8681 13.7892 17.5766 13.4964C14.2851 13.2035 12.006 11.4277 12.1624 10.75C12.3978 9.72993 13.8102 8.39599 17.1058 7.06205C17.2027 8.33115 13.9233 12.3017 26.1212 11.6183C38.3191 10.9349 43.5468 6.93238 44.5149 6.44426C45.483 5.95614 45.0957 5.3704 44.2245 5.27278Z" fill="#3179AC"/>
<path d="M43.3231 5.21834C42.6695 5.14508 42.6271 4.63837 42.6876 4.39417C43.6707 4.45522 45.7685 4.83373 46.2956 5.85937C46.0749 6.52872 45.9166 7.24083 44.6032 8.07444C36.5233 13.2026 21.4201 13.2071 18.3334 12.9324C15.2467 12.6577 13.1825 10.4381 13.1825 10.0718C13.1825 9.70552 14.1811 8.97292 14.3627 8.78977C14.4535 9.98024 14.9074 11.8117 26.3463 11.1707C37.7852 10.5297 42.6876 6.77512 43.5955 6.31724C44.5033 5.85937 44.1402 5.30992 43.3231 5.21834Z" fill="#5D3B49"/>
<path d="M16.1872 7.74603C16.0418 7.96505 15.3741 7.0866 15.0945 7.54919C15.0896 7.55724 15.0837 7.56602 15.0777 7.57329C12.6187 10.5653 16.4467 11.5086 18.5315 11.0692C18.5578 11.0637 18.5844 11.0648 18.6101 11.0725L20.3824 11.6065C20.3971 11.6109 20.4123 11.6131 20.4277 11.6131H28.0894C28.1002 11.6131 28.111 11.612 28.1216 11.6098L38.1762 9.49846C38.1857 9.49644 38.1951 9.49354 38.2041 9.48979L43.4737 7.29993C43.4963 7.29056 43.5163 7.27604 43.5323 7.25754L44.6795 5.92813C44.693 5.91257 44.7032 5.89453 44.7097 5.87503L44.8352 5.49671C44.862 5.41617 44.8199 5.32864 44.7437 5.29127C44.4072 5.12617 43.9471 4.79968 43.6914 4.79968C43.398 4.79968 43.5997 4.15517 43.508 3.87894C43.4163 3.60272 41.7661 3.23443 41.1243 2.40576C40.4826 1.5771 38.649 2.77405 38.1905 2.40576C37.7321 2.03748 36.4486 0.84051 35.5318 0.656363C34.615 0.472215 33.3315 1.85331 32.8731 1.85331C32.4147 1.85331 32.1396 -0.172312 29.5726 0.0118356C27.0055 0.195983 26.4554 1.85331 25.0802 1.85331C23.705 1.85331 23.155 2.12953 22.5132 2.77405C21.8714 3.41856 19.5794 4.7076 18.846 4.98382C18.1125 5.26004 16.3706 7.46981 16.1872 7.74603Z" fill="#F4F7F2"/>
<mask id="mask0_18_372" style="mask-type:alpha" maskUnits="userSpaceOnUse" x="14" y="0" width="31" height="12">
<path d="M16.1872 7.74603C16.0418 7.96505 15.3741 7.0866 15.0945 7.54919C15.0896 7.55724 15.0837 7.56602 15.0777 7.57329C12.6187 10.5653 16.4467 11.5086 18.5315 11.0692C18.5578 11.0637 18.5844 11.0648 18.6101 11.0725L20.3824 11.6065C20.3971 11.6109 20.4123 11.6131 20.4277 11.6131H28.0894C28.1002 11.6131 28.111 11.612 28.1216 11.6098L38.1762 9.49846C38.1857 9.49644 38.1951 9.49354 38.2041 9.48979L43.4737 7.29993C43.4963 7.29056 43.5163 7.27604 43.5323 7.25754L44.6795 5.92813C44.693 5.91257 44.7032 5.89453 44.7097 5.87503L44.8352 5.49671C44.862 5.41617 44.8199 5.32864 44.7437 5.29127C44.4072 5.12617 43.9471 4.79968 43.6914 4.79968C43.398 4.79968 43.5997 4.15517 43.508 3.87894C43.4163 3.60272 41.7661 3.23443 41.1243 2.40576C40.4826 1.5771 38.649 2.77405 38.1905 2.40576C37.7321 2.03748 36.4486 0.84051 35.5318 0.656363C34.615 0.472215 33.3315 1.85331 32.8731 1.85331C32.4147 1.85331 32.1396 -0.172312 29.5726 0.0118356C27.0055 0.195983 26.4554 1.85331 25.0802 1.85331C23.705 1.85331 23.155 2.12953 22.5132 2.77405C21.8714 3.41856 19.5794 4.7076 18.846 4.98382C18.1125 5.26004 16.3706 7.46981 16.1872 7.74603Z" fill="#F4F7F2"/>
</mask>
<g mask="url(#mask0_18_372)">
<path opacity="0.37" fill-rule="evenodd" clip-rule="evenodd" d="M42.5829 5.75431C43.7481 5.75439 44.5698 6.61177 44.835 7.04044C44.1358 8.43863 42.6869 8.99175 42.0498 9.09354C41.6875 8.92936 41.141 8.69499 40.564 8.47089C39.734 8.14859 38.8407 7.84756 38.3412 7.8073C37.2826 7.72196 35.2576 8.46782 34.8242 8.87276C34.4775 9.19672 34.1255 9.33453 33.9929 9.36294C33.3298 9.01949 31.9624 8.23739 31.7976 7.85656C31.5916 7.38052 32.6788 5.171 33.9719 4.894L33.6097 3.20303C33.4819 2.60622 34.5973 2.47131 35.9899 2.17301C37.3085 1.89054 39.8948 2.73574 40.2019 2.99519C39.4012 2.00119 36.98 1.39209 35.6719 1.17621C35.7716 1.25453 35.7623 1.42292 35.6418 1.51933C35.4641 1.66141 35.2865 1.80351 34.9881 1.86743C34.6897 1.93135 33.6737 2.04495 33.2971 2.22965C32.9959 2.37741 31.9116 3.5321 31.4071 4.09098C31.3077 4.11228 30.0643 3.65038 29.6239 3.53667C29.1834 3.42296 27.4783 2.74787 26.9383 2.65546C26.3983 2.56304 26.5689 1.90232 26.7039 1.5613C26.3036 1.95914 25.4718 2.80312 25.3468 2.99637C25.1905 3.23794 25.3823 4.13319 24.7499 4.58072C24.1175 5.02826 23.1797 5.02111 22.867 5.50422C22.6169 5.8907 22.7154 6.09152 22.7959 6.14362C22.5544 5.98731 21.9704 5.59225 21.5669 5.26256C21.0625 4.85044 21.5101 4.02629 21.8228 3.54319C22.0729 3.15671 22.6612 2.60067 22.9241 2.37097C22.1639 2.7072 20.5809 3.4763 20.3308 3.86279C20.0181 4.34591 19.7268 4.92852 19.5705 5.17005C19.4141 5.41158 18.9736 5.29789 18.4763 5.40443C17.979 5.51096 16.8848 5.74534 16.4371 6.56947C15.9895 7.3936 15.3713 7.42195 15.2363 7.76297C15.1013 8.10399 15.0871 8.52317 14.7531 8.90681C14.4192 9.29045 13.4032 9.40405 13.3676 9.72376C13.3321 10.0435 13.9573 10.5338 14.618 10.7043C15.2787 10.8749 19.5202 11.7349 19.7405 11.7917C19.9607 11.8486 23.4776 12.2396 23.8968 12.2538C24.3159 12.2681 25.3319 12.1545 25.6303 12.0906C25.9288 12.0266 27.7975 10.0658 28.2948 9.9593C28.7922 9.85277 29.794 8.70191 30.5542 8.85114C31.3144 9.00037 32.9271 10.2154 33.0905 10.4925C33.2212 10.7142 33.2491 11.3948 33.2467 11.7074L35.4351 11.2387C35.3972 10.9 35.5034 10.1005 36.2309 9.61174C37.1404 9.0008 40.6573 9.39181 41.4814 9.83947C42.3055 10.2871 44.707 9.35658 44.9628 9.09372C45.2186 8.83086 46.6193 7.59912 46.5757 7.39579C46.5321 7.19245 45.8297 6.82737 45.6663 6.55027C45.503 6.27317 43.9471 4.83784 43.4853 4.62468C43.0235 4.41153 42.1496 4.70276 41.5457 4.31195C40.9418 3.92115 40.7927 3.22489 40.2314 3.033C40.274 3.23193 40.139 3.57296 40.2455 4.0703C40.3308 4.46818 40.5415 4.80449 40.6362 4.92291C40.3781 5.01288 39.795 5.26956 39.5278 5.57647C39.2607 5.88338 39.3352 6.41532 39.4059 6.64293C39.7966 7.20226 40.2847 7.99791 40.564 8.47089C41.141 8.69499 41.6875 8.92936 42.0498 9.09354C41.6804 8.82589 40.879 8.09594 40.629 7.31723C40.3164 6.34385 41.1264 5.7542 42.5829 5.75431ZM31.9399 5.12121C31.542 5.69194 30.732 6.96127 30.6751 7.47282C30.604 8.11225 30.4051 8.15486 30.0072 8.24009C29.6093 8.32532 27.4636 8.99302 26.9094 9.3198C26.6541 9.47035 26.5577 9.56845 26.5359 9.6282C26.5497 9.65431 26.5629 9.67943 26.5754 9.70343C26.5443 9.6954 26.5199 9.67219 26.5359 9.6282C26.2279 9.04352 25.633 7.95962 25.4317 7.76373C25.1689 7.50794 24.4442 7.03897 24.4585 6.61979C24.4727 6.2006 24.4017 5.38355 25.1548 5.01415C25.908 4.64475 27.8121 3.82073 28.6718 3.94868C29.5315 4.07663 31.8973 4.92228 31.9399 5.12121ZM21.7159 7.4153C21.1404 7.64259 19.8898 9.57504 19.7122 9.71712C20.0461 10.79 22.8311 11.6499 23.0087 11.5078C23.1863 11.3657 25.0764 9.50439 24.6714 9.07096C24.2665 8.63754 22.2914 7.18801 21.7159 7.4153ZM18.2631 5.8662C19.0375 5.59625 20.0038 6.22157 20.1032 6.20026C19.7692 8.04038 17.9431 10.2001 17.7584 9.82357C17.5737 9.44701 16.3446 8.5659 16.4939 7.80569C16.6431 7.04549 17.4887 6.13615 18.2631 5.8662Z" fill="#F4A898"/>
<path opacity="0.37" d="M31.073 4.23723C32.0078 3.92563 32.5559 2.5056 32.7173 1.81966C32.7197 1.80947 32.7229 1.80003 32.7273 1.79054C32.8601 1.50415 33.1132 1.12553 33.1132 1.80474C33.1132 2.66788 31.5438 4.55109 31.3084 4.62956C31.1608 4.67878 30.4246 5.11714 29.8488 5.46805C29.7178 5.54786 29.5858 5.42438 29.6753 5.29981C29.9503 4.91686 30.4162 4.45615 31.073 4.23723Z" fill="#F4A898"/>
</g>
<path fill-rule="evenodd" clip-rule="evenodd" d="M35.6799 23.8499C36.5177 23.1109 37.0461 22.0295 37.0461 20.8246C37.0461 18.5974 35.2407 16.792 33.0135 16.792C31.0947 16.792 29.4889 18.1322 29.0811 19.9275C28.3781 19.3313 27.4682 18.9718 26.4742 18.9718C24.2471 18.9718 22.4416 20.7772 22.4416 23.0043C22.4416 24.9962 23.8858 26.6508 25.7842 26.9781V33.9858H37.991V30.4982L41.5876 33.9858V24.3948L37.991 27.5555V23.8499H36.4651H35.6799ZM34.8663 20.9336C34.8663 22.017 33.988 22.8954 32.9045 22.8954C31.8211 22.8954 30.9427 22.017 30.9427 20.9336C30.9427 19.8501 31.8211 18.9718 32.9045 18.9718C33.988 18.9718 34.8663 19.8501 34.8663 20.9336ZM28.327 22.8953C28.327 23.9788 27.4487 24.8571 26.3652 24.8571C25.2817 24.8571 24.4034 23.9788 24.4034 22.8953C24.4034 21.8119 25.2817 20.9335 26.3652 20.9335C27.4487 20.9335 28.327 21.8119 28.327 22.8953Z" fill="white"/>
<defs>
<linearGradient id="paint0_linear_18_372" x1="25.7372" y1="3.60949" x2="25.7372" y2="43" gradientUnits="userSpaceOnUse">
<stop stop-color="#4CB6CE"/>
<stop offset="1" stop-color="#3D9FCA"/>
</linearGradient>
</defs>
</svg>
