<svg width="184" height="47" viewBox="0 0 184 47" fill="none" xmlns="http://www.w3.org/2000/svg">
<path d="M43.796 42.3263L44.2293 43.2275L44.1715 43.2553L44.1106 43.2755C43.1363 43.5984 40.3837 44.0886 37.6104 44.4587C34.8426 44.8281 31.7999 45.1131 30.2607 44.9548C29.7348 44.9007 28.8856 44.6458 27.9573 44.3021C26.9942 43.9455 25.846 43.4553 24.6836 42.8721C23.5228 42.2897 22.3302 41.6058 21.2869 40.8585C20.2561 40.1202 19.3098 39.2771 18.7048 38.3603C18.2981 37.7441 17.9758 37.2345 17.7138 36.8205L17.7125 36.8185C17.442 36.3909 17.2486 36.0857 17.0873 35.8554C16.9334 35.6358 16.847 35.5414 16.8016 35.5009C16.7622 35.5 16.6761 35.5038 16.5015 35.5305C15.7623 35.6436 13.1665 35.8162 10.3346 34.9585C7.46797 34.0904 4.30221 32.1421 2.66367 27.9897C1.83674 25.8941 1.81768 23.9836 2.4119 22.3408C3.00116 20.7117 4.1596 19.4381 5.53262 18.5346C7.78219 17.0542 10.7862 16.4589 13.2569 17.0208C13.2871 16.3487 13.3439 15.5322 13.4495 14.6924C13.5498 13.8945 13.6966 13.054 13.9145 12.2858C14.1278 11.5337 14.431 10.7707 14.8861 10.1888C15.1414 9.86237 15.5583 9.50015 16.06 9.13475C16.5791 8.75674 17.2456 8.33482 18.048 7.89791C19.6538 7.02363 21.8313 6.0745 24.5142 5.292C29.8682 3.73039 37.2498 2.82816 46.1303 4.52243C46.7588 4.5468 47.6885 4.65349 48.5788 4.90536C49.4434 5.14994 50.5661 5.61065 51.127 6.54025L50.2708 7.05685L51.127 6.54025C51.6327 7.37832 53.4535 11.4756 54.5692 16.5233C55.6816 21.5561 56.1555 27.7998 53.6787 32.7772C51.7579 36.6372 49.4251 39.2365 47.5581 40.8768C46.6251 41.6965 45.8087 42.2765 45.2182 42.6551C44.9228 42.8445 44.6838 42.9837 44.5145 43.0774C44.4299 43.1243 44.3626 43.1599 44.3146 43.1847C44.2905 43.1971 44.2712 43.2068 44.257 43.2139L44.2393 43.2226L44.2333 43.2255L44.2311 43.2266L44.2301 43.2271C44.2297 43.2273 44.2293 43.2275 43.796 42.3263ZM15.1381 31.2905C14.6058 29.6052 13.8036 26.4896 13.3219 22.7249C12.4148 22.6213 11.2949 22.6384 10.3108 22.9343C9.10723 23.2962 8.19621 24.0291 7.96356 25.4751C7.82255 26.3515 8.08728 27.2191 8.68313 28.0509C9.28485 28.8909 10.1944 29.6457 11.2146 30.2246C12.2352 30.8038 13.3025 31.1706 14.1728 31.2846C14.6018 31.3407 14.9154 31.3291 15.1381 31.2905Z" fill="url(#paint0_linear_103_226)" stroke="white" stroke-width="2"/>
<path d="M47.2245 6.27278C46.5274 6.19468 46.4823 5.65449 46.5468 5.39417C47.595 5.45925 49.8321 5.86276 50.3942 6.95615C50.1588 7.66971 49.99 8.42885 48.5894 9.31752C39.9735 14.7844 23.8681 14.7892 20.5766 14.4964C17.2851 14.2035 15.006 12.4277 15.1624 11.75C15.3978 10.7299 16.8102 9.39599 20.1058 8.06205C20.2027 9.33115 16.9233 13.3017 29.1212 12.6183C41.3191 11.9349 46.5468 7.93238 47.5149 7.44426C48.483 6.95614 48.0957 6.3704 47.2245 6.27278Z" fill="#3179AC"/>
<path d="M46.3232 6.21834C45.6695 6.14508 45.6271 5.63837 45.6877 5.39417C46.6707 5.45522 48.7685 5.83373 49.2957 6.85937C49.0749 7.52872 48.9166 8.24083 47.6032 9.07444C39.5234 14.2026 24.4201 14.2071 21.3334 13.9324C18.2468 13.6577 16.1825 11.4381 16.1825 11.0718C16.1825 10.7055 17.1811 9.97292 17.3627 9.78977C17.4535 10.9802 17.9074 12.8117 29.3463 12.1707C40.7853 11.5297 45.6877 7.77512 46.5955 7.31724C47.5034 6.85937 47.1402 6.30992 46.3232 6.21834Z" fill="#5D3B49"/>
<path d="M19.1872 8.74603C19.0418 8.96505 18.374 8.0866 18.0944 8.54919C18.0896 8.55724 18.0836 8.56602 18.0776 8.57329C15.6187 11.5653 19.4467 12.5086 21.5315 12.0692C21.5578 12.0637 21.5844 12.0648 21.6101 12.0725L23.3823 12.6065C23.397 12.6109 23.4123 12.6131 23.4276 12.6131H31.0894C31.1002 12.6131 31.111 12.612 31.1216 12.6098L41.1761 10.4985C41.1857 10.4964 41.1951 10.4935 41.2041 10.4898L46.4737 8.29993C46.4962 8.29056 46.5163 8.27604 46.5322 8.25754L47.6795 6.92813C47.6929 6.91257 47.7031 6.89453 47.7096 6.87503L47.8352 6.49671C47.8619 6.41617 47.8198 6.32864 47.7437 6.29127C47.4071 6.12617 46.9471 5.79968 46.6913 5.79968C46.398 5.79968 46.5997 5.15517 46.508 4.87894C46.4163 4.60272 44.766 4.23443 44.1243 3.40576C43.4825 2.5771 41.6489 3.77405 41.1905 3.40576C40.7321 3.03748 39.4486 1.84051 38.5318 1.65636C37.615 1.47222 36.3314 2.85331 35.873 2.85331C35.4146 2.85331 35.1396 0.827688 32.5725 1.01184C30.0055 1.19598 29.4554 2.85331 28.0802 2.85331C26.705 2.85331 26.1549 3.12953 25.5131 3.77405C24.8714 4.41856 22.5794 5.7076 21.8459 5.98382C21.1125 6.26004 19.3705 8.46981 19.1872 8.74603Z" fill="#F4F7F2"/>
<mask id="mask0_103_226" style="mask-type:alpha" maskUnits="userSpaceOnUse" x="17" y="1" width="31" height="12">
<path d="M19.1872 8.74603C19.0418 8.96505 18.374 8.0866 18.0944 8.54919C18.0896 8.55724 18.0836 8.56602 18.0776 8.57329C15.6187 11.5653 19.4467 12.5086 21.5315 12.0692C21.5578 12.0637 21.5844 12.0648 21.6101 12.0725L23.3823 12.6065C23.397 12.6109 23.4123 12.6131 23.4276 12.6131H31.0894C31.1002 12.6131 31.111 12.612 31.1216 12.6098L41.1761 10.4985C41.1857 10.4964 41.1951 10.4935 41.2041 10.4898L46.4737 8.29993C46.4962 8.29056 46.5163 8.27604 46.5322 8.25754L47.6795 6.92813C47.6929 6.91257 47.7031 6.89453 47.7096 6.87503L47.8352 6.49671C47.8619 6.41617 47.8198 6.32864 47.7437 6.29127C47.4071 6.12617 46.9471 5.79968 46.6913 5.79968C46.398 5.79968 46.5997 5.15517 46.508 4.87894C46.4163 4.60272 44.766 4.23443 44.1243 3.40576C43.4825 2.5771 41.6489 3.77405 41.1905 3.40576C40.7321 3.03748 39.4486 1.84051 38.5318 1.65636C37.615 1.47222 36.3314 2.85331 35.873 2.85331C35.4146 2.85331 35.1396 0.827688 32.5725 1.01184C30.0055 1.19598 29.4554 2.85331 28.0802 2.85331C26.705 2.85331 26.1549 3.12953 25.5131 3.77405C24.8714 4.41856 22.5794 5.7076 21.8459 5.98382C21.1125 6.26004 19.3705 8.46981 19.1872 8.74603Z" fill="#F4F7F2"/>
</mask>
<g mask="url(#mask0_103_226)">
<path opacity="0.37" fill-rule="evenodd" clip-rule="evenodd" d="M45.5829 6.7543C46.7481 6.75439 47.5698 7.61176 47.835 8.04044C47.1358 9.43862 45.6868 9.99174 45.0498 10.0935C44.6875 9.92935 44.141 9.69498 43.5639 9.47089C42.734 9.14858 41.8407 8.84756 41.3411 8.80729C40.2825 8.72195 38.2576 9.46781 37.8242 9.87276C37.4774 10.1967 37.1255 10.3345 36.9929 10.3629C36.3298 10.0195 34.9624 9.23738 34.7976 8.85655C34.5916 8.38051 35.6788 6.17099 36.9719 5.894L36.6097 4.20302C36.4818 3.60621 37.5973 3.4713 38.9898 3.173C40.3085 2.89053 42.8948 3.73574 43.2018 3.99518C42.4012 3.00118 39.98 2.39208 38.6719 2.1762C38.7716 2.25452 38.7623 2.42291 38.6418 2.51932C38.4641 2.6614 38.2865 2.8035 37.9881 2.86742C37.6897 2.93134 36.6737 3.04494 36.2971 3.22964C35.9959 3.3774 34.9116 4.53209 34.4071 5.09097C34.3076 5.11228 33.0643 4.65037 32.6238 4.53666C32.1833 4.42296 30.4782 3.74786 29.9383 3.65545C29.3983 3.56304 29.5689 2.90231 29.7039 2.56129C29.3036 2.95913 28.4718 3.80312 28.3468 3.99637C28.1904 4.23793 28.3822 5.13318 27.7499 5.58072C27.1175 6.02825 26.1796 6.02111 25.867 6.50421C25.6169 6.89069 25.7154 7.09152 25.7959 7.14362C25.5544 6.9873 24.9704 6.59224 24.5669 6.26255C24.0624 5.85043 24.5101 5.02628 24.8227 4.54318C25.0729 4.1567 25.6612 3.60067 25.9241 3.37096C25.1639 3.7072 23.5808 4.47629 23.3307 4.86278C23.0181 5.3459 22.7268 5.92851 22.5704 6.17004C22.4141 6.41157 21.9736 6.29788 21.4763 6.40442C20.9789 6.51095 19.8848 6.74534 19.4371 7.56946C18.9894 8.39359 18.3713 8.42194 18.2363 8.76296C18.1013 9.10398 18.087 9.52317 17.7531 9.9068C17.4191 10.2904 16.4031 10.404 16.3676 10.7238C16.332 11.0435 16.9572 11.5337 17.618 11.7043C18.2787 11.8749 22.5202 12.7349 22.7404 12.7917C22.9607 12.8486 26.4776 13.2396 26.8967 13.2538C27.3159 13.2681 28.3319 13.1545 28.6303 13.0906C28.9287 13.0266 30.7974 11.0658 31.2948 10.9593C31.7921 10.8528 32.794 9.7019 33.5542 9.85113C34.3144 10.0004 35.9271 11.2154 36.0905 11.4925C36.2212 11.7142 36.2491 12.3948 36.2467 12.7074L38.435 12.2387C38.3972 11.9 38.5033 11.1005 39.2309 10.6117C40.1403 10.0008 43.6572 10.3918 44.4813 10.8395C45.3054 11.2871 47.707 10.3566 47.9627 10.0937C48.2185 9.83086 49.6192 8.59911 49.5757 8.39578C49.5321 8.19245 48.8297 7.82736 48.6663 7.55026C48.5029 7.27316 46.9471 5.83783 46.4853 5.62468C46.0235 5.41152 45.1496 5.70275 44.5457 5.31195C43.9418 4.92114 43.7926 4.22488 43.2314 4.03299C43.274 4.23193 43.139 4.57295 43.2455 5.07029C43.3307 5.46817 43.5415 5.80448 43.6362 5.9229C43.378 6.01288 42.795 6.26955 42.5278 6.57646C42.2606 6.88337 42.3352 7.41531 42.4058 7.64292C42.7965 8.20226 43.2847 8.9979 43.5639 9.47089C44.141 9.69498 44.6875 9.92935 45.0498 10.0935C44.6803 9.82589 43.879 9.09593 43.6289 8.31722C43.3164 7.34384 44.1264 6.7542 45.5829 6.7543ZM34.9399 6.12121C34.542 6.69193 33.7319 7.96127 33.6751 8.47281C33.604 9.11224 33.405 9.15485 33.0072 9.24008C32.6093 9.32531 30.4636 9.99301 29.9094 10.3198C29.654 10.4703 29.5577 10.5684 29.5359 10.6282C29.5497 10.6543 29.5629 10.6794 29.5754 10.7034C29.5443 10.6954 29.5199 10.6722 29.5359 10.6282C29.2279 10.0435 28.633 8.95961 28.4317 8.76372C28.1688 8.50793 27.4442 8.03896 27.4584 7.61978C27.4727 7.20059 27.4016 6.38354 28.1548 6.01414C28.9079 5.64475 30.8121 4.82073 31.6718 4.94868C32.5314 5.07662 34.8973 5.92227 34.9399 6.12121ZM24.7159 8.4153C24.1404 8.64259 22.8898 10.575 22.7122 10.7171C23.046 11.79 25.8311 12.6498 26.0087 12.5078C26.1863 12.3657 28.0763 10.5044 27.6714 10.071C27.2665 9.63753 25.2914 8.18801 24.7159 8.4153ZM21.2631 6.8662C22.0375 6.59625 23.0037 7.22156 23.1032 7.20026C22.7691 9.04037 20.943 11.2001 20.7583 10.8236C20.5737 10.447 19.3446 9.56589 19.4938 8.80568C19.6431 8.04548 20.4886 7.13615 21.2631 6.8662Z" fill="#F4A898"/>
<path opacity="0.37" d="M34.073 5.23723C35.0078 4.92563 35.5559 3.5056 35.7173 2.81966C35.7197 2.80947 35.7229 2.80003 35.7273 2.79054C35.8601 2.50415 36.1131 2.12553 36.1131 2.80474C36.1131 3.66788 34.5438 5.55109 34.3084 5.62956C34.1607 5.67878 33.4245 6.11714 32.8487 6.46805C32.7178 6.54786 32.5858 6.42438 32.6753 6.29981C32.9503 5.91686 33.4162 5.45615 34.073 5.23723Z" fill="#F4A898"/>
</g>
<path fill-rule="evenodd" clip-rule="evenodd" d="M38.68 24.8499C39.5177 24.1109 40.0462 23.0295 40.0462 21.8246C40.0462 19.5974 38.2407 17.792 36.0136 17.792C34.0947 17.792 32.4889 19.1322 32.0811 20.9275C31.3781 20.3314 30.4682 19.9718 29.4742 19.9718C27.2471 19.9718 25.4417 21.7772 25.4417 24.0043C25.4417 25.9962 26.8858 27.6508 28.7842 27.9781V34.9858H40.991V31.4982L44.5876 34.9858V25.3948L40.991 28.5555V24.8499H39.4652H38.68ZM37.8664 21.9336C37.8664 23.017 36.9881 23.8954 35.9046 23.8954C34.8211 23.8954 33.9428 23.017 33.9428 21.9336C33.9428 20.8501 34.8211 19.9718 35.9046 19.9718C36.9881 19.9718 37.8664 20.8501 37.8664 21.9336ZM31.3271 23.8954C31.3271 24.9788 30.4487 25.8572 29.3653 25.8572C28.2818 25.8572 27.4035 24.9788 27.4035 23.8954C27.4035 22.8119 28.2818 21.9336 29.3653 21.9336C30.4487 21.9336 31.3271 22.8119 31.3271 23.8954Z" fill="white"/>
<path d="M105.458 28.4505L107.868 28.0823L108.188 27.7847C107.994 27.5764 107.802 27.5416 107.793 27.5401C107.792 27.5399 107.791 27.5397 107.791 27.5397C107.791 27.5394 107.851 27.5465 107.981 27.5276C108.267 27.4862 108.696 27.3484 109.169 27.0773C110.12 26.5315 110.974 25.613 111.226 24.4166C111.661 22.3537 111.272 21.8211 111.193 21.7372C111.101 21.638 110.905 21.5376 110.439 21.4851C110.108 21.6763 109.751 21.7626 109.49 21.8096C109.069 21.8857 108.573 21.9135 108.069 21.9159C107.415 22.378 106.762 23.1684 106.243 24.2018C105.652 25.3785 105.313 26.7206 105.313 27.9123C105.313 28.7053 105.378 29.6737 105.812 30.4245C106.016 30.7784 106.351 31.1678 106.992 31.4268C106.723 31.1551 106.508 30.8666 106.342 30.6122C106.093 30.2298 105.906 29.8491 105.776 29.5522C105.56 29.2166 105.458 28.8335 105.458 28.4505Z" fill="white"/>
<path d="M119.121 22.8181C120.058 22.9079 120.564 23.6071 120.79 24.0831C120.859 24.2291 120.913 24.3765 120.955 24.5235C121.005 24.3449 121.015 24.1405 120.976 23.8984C120.86 23.1602 120.728 22.7101 120.608 22.4432C120.562 22.3394 120.525 22.2795 120.502 22.2478C120.473 22.2454 120.427 22.2441 120.358 22.2486C120.129 22.2634 119.811 22.3283 119.313 22.4595C119.307 22.461 119.286 22.4663 119.246 22.501C119.2 22.54 119.132 22.6133 119.053 22.7404C119.039 22.763 119.025 22.7864 119.012 22.8107C119.048 22.8121 119.084 22.8146 119.121 22.8181Z" fill="white"/>
<path d="M115.7 31.5363C115.71 31.7759 115.721 31.9851 115.735 32.1626C115.759 32.1588 115.784 32.1546 115.808 32.1501C115.761 31.5533 115.722 30.8724 115.705 30.1792C115.675 28.9608 115.71 27.5554 115.959 26.504C115.962 26.4914 115.965 26.4788 115.968 26.4663C115.866 26.3827 115.788 26.2973 115.733 26.2261C115.709 27.0253 115.691 27.8361 115.681 28.6088C115.666 29.7298 115.67 30.752 115.7 31.5363Z" fill="white"/>
<path d="M108.346 28.0092C108.303 27.9259 108.249 27.8503 108.188 27.7847L107.868 28.0823L108.346 28.0092Z" fill="white"/>
<path d="M102.962 18.2525L102.176 18.3353L103.029 18.4636C104.194 18.639 105.92 18.8449 107.316 18.9012C107.42 18.8542 107.526 18.8107 107.633 18.7702C107.535 18.7158 107.399 18.6554 107.22 18.5948C106.859 18.4723 106.397 18.374 105.873 18.306C104.819 18.1692 103.687 18.1762 102.962 18.2525Z" fill="white"/>
<path d="M100.778 18.2608H99.2778H97.7588C97.7707 18.2784 97.7814 18.2939 97.7909 18.3074C97.8856 18.3378 98.0273 18.3688 98.2139 18.3934C98.6093 18.4455 99.0236 18.4469 99.2778 18.4469C100.175 18.4469 100.574 19.1414 100.652 19.2945C100.765 19.5127 100.807 19.7172 100.824 19.8093C100.864 20.022 100.875 20.2524 100.88 20.4386C100.889 20.8364 100.87 21.3664 100.839 21.9531C100.824 22.2184 100.807 22.5036 100.787 22.8043C100.973 21.6284 101.172 20.5062 101.332 19.6672L101.572 18.399L101.305 18.4271V16.7608V14.4944C101.195 14.5263 101.091 14.5607 100.998 14.5959C100.984 14.601 100.971 14.606 100.959 14.6109C100.926 14.7569 100.895 14.9467 100.868 15.173C100.801 15.7316 100.778 16.3602 100.778 16.7608V18.2608Z" fill="white"/>
<path d="M100.438 29.6093C100.379 29.4816 100.335 29.3492 100.302 29.2202C100.264 29.7732 100.232 30.2968 100.209 30.7731C100.18 31.3709 100.166 31.8709 100.17 32.2492C100.174 32.2497 100.178 32.2503 100.182 32.2508C100.382 32.2782 100.611 32.2945 100.851 32.2997C100.62 31.827 100.53 31.365 100.493 30.9746C100.465 30.6792 100.465 30.3027 100.464 30.0676C100.464 29.9915 100.464 29.9303 100.463 29.8913C100.458 29.6942 100.442 29.6226 100.439 29.6105L100.438 29.6093Z" fill="white"/>
<path d="M95.2348 26.2734V26.3192C95.2348 26.9433 95.1622 27.6835 95.084 28.3921C95.0617 28.5945 95.0387 28.7955 95.0159 28.9953C94.9552 29.5273 94.8956 30.05 94.8513 30.5636C94.7901 31.2722 94.7678 31.8684 94.8046 32.321C94.8102 32.3897 94.8168 32.4496 94.8237 32.5015C94.918 32.4783 95.0312 32.4445 95.1635 32.3965C95.3281 32.3368 95.4977 32.2644 95.6661 32.1846C95.4149 31.4885 95.2582 30.6039 95.2582 29.5054C95.2582 28.9534 95.2984 28.3087 95.3371 27.6884C95.3489 27.4989 95.3606 27.3116 95.3709 27.13C95.4177 26.3086 95.4433 25.5323 95.3889 24.8444C95.3331 24.139 95.2022 23.6722 95.039 23.3937C94.9171 23.1858 94.7792 23.0694 94.4831 23.0174C94.2257 22.9722 94.0419 22.9577 93.9164 22.9557C93.9141 22.9812 93.9118 23.0086 93.9092 23.0394C93.9061 23.0761 93.9026 23.1176 93.8982 23.1664C93.8908 23.2497 93.8799 23.3689 93.8589 23.5026C94.4156 23.5689 94.779 23.9224 94.9526 24.1914C95.108 24.4319 95.1588 24.6601 95.1751 24.7365C95.2136 24.9166 95.2218 25.0983 95.2257 25.1979C95.2348 25.4278 95.2348 25.7845 95.2348 26.2734Z" fill="white"/>
<path d="M90.4692 28.617L89.2904 28.2793C89.3274 29.3161 89.376 30.2626 89.4376 30.996C89.4559 31.213 89.4747 31.4048 89.4939 31.5702C89.5368 31.4673 89.5825 31.352 89.6308 31.2241C89.9 30.5109 90.1852 29.5811 90.4692 28.617C90.4692 28.6171 90.4693 28.6169 90.4692 28.617Z" fill="white"/>
<path d="M89.1909 23.0955C89.1954 23.863 89.2049 24.7347 89.2211 25.6316C89.316 25.0615 89.4001 24.4876 89.4603 23.959C89.4987 23.6221 89.525 23.3221 89.5396 23.0649C89.4199 23.0725 89.3032 23.0825 89.1909 23.0955Z" fill="white"/>
<path d="M78.3165 28.2913C78.6082 27.0606 78.8706 25.8153 79.1109 24.6749C79.1292 24.5882 79.1473 24.5021 79.1653 24.4166C79.6599 22.0713 80.1571 19.0593 80.4674 16.5749C80.6093 15.4386 80.709 14.4357 80.7533 13.6685C80.6779 13.6979 80.6009 13.7291 80.5228 13.762C80.1543 13.9174 79.8169 14.0876 79.5713 14.2348C79.5403 14.6287 79.4947 15.1625 79.4425 15.7665C79.34 16.9533 79.1981 18.5516 79.0405 20.3067C78.8082 22.8958 78.5416 25.829 78.3165 28.2913Z" fill="white"/>
<path d="M71.4268 19.2187L74.057 19.3693C73.8647 17.5206 73.6772 15.8743 73.5143 14.6921C73.4807 14.4483 73.4487 14.2288 73.4186 14.0345C73.2017 14.0435 72.9749 14.0562 72.7546 14.074C72.6285 14.0843 72.5126 14.0956 72.408 14.1077C72.407 14.1134 72.406 14.1192 72.4049 14.125C72.3207 14.592 72.2013 15.2251 72.0594 15.9648C71.8786 16.907 71.6595 18.0305 71.4268 19.2187Z" fill="white"/>
<path d="M77.6905 30.703L75.1069 30.6926C74.8578 27.7176 74.4609 23.2718 74.0753 19.5456C74.1636 22.257 74.4122 26.2412 74.8753 29.6062C75.1131 31.3347 75.3993 32.8365 75.7283 33.9044C75.8299 34.2341 75.9273 34.4947 76.0156 34.6934C76.0399 34.663 76.0658 34.6292 76.0934 34.5916C76.4678 34.0818 76.8657 33.2271 77.2614 32.0725C77.4105 31.6375 77.5533 31.1782 77.6905 30.703Z" fill="white"/>
<path d="M65.9333 14.0777C65.5983 14.1905 65.3014 14.2968 65.0553 14.3927C65.0581 14.4307 65.0609 14.47 65.0639 14.5107C65.1078 15.1109 65.1724 15.944 65.2547 16.9353C65.4194 18.9187 65.6545 21.5284 65.9364 24.1686C66.2188 26.814 66.5458 29.468 66.8929 31.5486C67.0669 32.5923 67.2411 33.4612 67.4099 34.1012C67.4947 34.4225 67.5705 34.6568 67.6332 34.8137C67.6493 34.8539 67.6625 34.8838 67.6723 34.9049C67.68 34.9119 67.6872 34.9181 67.6938 34.9237C67.7152 34.9112 67.7421 34.8937 67.7747 34.8697C67.9264 34.7577 68.1066 34.5699 68.2882 34.3212C68.4592 34.0868 68.5973 33.8454 68.6864 33.6611C68.6802 33.6733 68.6824 33.6655 68.6921 33.6297C68.7067 33.5764 68.7383 33.4609 68.7849 33.2567C68.8582 32.9358 68.9463 32.5015 69.0461 31.9721C69.2453 30.9159 69.4824 29.5294 69.7295 28.0158C69.7581 27.8401 69.7869 27.6628 69.8158 27.4842C69.7471 27.848 69.6883 28.1651 69.6413 28.4253C69.6006 28.6512 69.5701 28.8272 69.5503 28.9511C69.54 29.0155 69.5349 29.0523 69.5327 29.0684C69.5315 29.0893 69.5287 29.1324 69.5216 29.1855C69.5173 29.2151 69.5044 29.2875 69.495 29.3303C69.4772 29.3989 69.4097 29.5871 69.3529 29.7034C69.1981 29.9347 68.5228 30.4065 67.976 30.4871C67.4965 30.3885 66.9117 29.9831 66.7745 29.8026C66.7183 29.7083 66.6446 29.5531 66.6223 29.4951C66.6094 29.4576 66.5899 29.3938 66.5827 29.3673C66.5612 29.2853 66.551 29.2161 66.5492 29.204L66.549 29.2027C66.5396 29.1399 66.5332 29.0695 66.5303 29.0379L66.5302 29.0361C66.5217 28.9431 66.5104 28.7997 66.497 28.6197C66.47 28.2556 66.4322 27.7091 66.3888 27.0385C66.3018 25.6968 66.1911 23.8472 66.0962 21.9467C66.0014 20.0492 65.9216 18.0875 65.8976 16.5266C65.8857 15.7487 65.8872 15.0505 65.9095 14.5019C65.9155 14.3554 65.9232 14.2129 65.9333 14.0777Z" fill="white"/>
<path d="M69.4526 13.5926C69.46 13.5516 69.467 13.5124 69.4737 13.4747C69.222 13.728 69.0428 13.951 68.9422 14.116C68.929 14.2269 68.9164 14.3941 68.907 14.6241C68.8881 15.0899 68.8856 15.7233 68.8973 16.4805C68.8974 16.4918 68.8976 16.5032 68.8978 16.5147C68.9741 16.1217 69.0463 15.748 69.1132 15.3994C69.2546 14.6622 69.3715 14.0425 69.4526 13.5926Z" fill="white"/>
<path fill-rule="evenodd" clip-rule="evenodd" d="M65.9333 14.0777C65.5983 14.1905 65.3014 14.2968 65.0553 14.3927L65.0639 14.5107C65.1078 15.1109 65.1724 15.944 65.2547 16.9353C65.4194 18.9187 65.6545 21.5284 65.9364 24.1686C66.2188 26.814 66.5458 29.468 66.8929 31.5486C67.0669 32.5923 67.2411 33.4612 67.4099 34.1012C67.4947 34.4225 67.5705 34.6568 67.6332 34.8137C67.6493 34.8539 67.6625 34.8838 67.6723 34.9049C67.68 34.9119 67.6872 34.9181 67.6938 34.9237C67.7152 34.9112 67.7421 34.8937 67.7747 34.8697C67.9264 34.7577 68.1066 34.5699 68.2882 34.3212C68.4592 34.0868 68.5973 33.8454 68.6864 33.6611C68.6802 33.6733 68.6824 33.6655 68.6921 33.6297C68.7067 33.5764 68.7383 33.4609 68.7849 33.2567C68.8582 32.9358 68.9463 32.5015 69.0461 31.9721C69.2453 30.9159 69.4824 29.5294 69.7295 28.0158C69.7581 27.8401 69.7869 27.6628 69.8158 27.4842C69.7471 27.848 69.6883 28.1651 69.6413 28.4253C69.6006 28.6512 69.5701 28.8272 69.5503 28.9511C69.54 29.0155 69.5349 29.0523 69.5327 29.0684C69.5315 29.0893 69.5287 29.1324 69.5216 29.1855C69.5173 29.2151 69.5044 29.2875 69.495 29.3303C69.4772 29.3989 69.4097 29.5871 69.3529 29.7034C69.1981 29.9347 68.5228 30.4065 67.976 30.4871C67.4965 30.3885 66.9117 29.9831 66.7745 29.8026C66.7183 29.7083 66.6446 29.5531 66.6223 29.4951C66.6094 29.4576 66.5899 29.3938 66.5827 29.3673C66.5612 29.2853 66.551 29.2161 66.5492 29.204L66.549 29.2027C66.5396 29.1399 66.5332 29.0695 66.5303 29.0379L66.5302 29.0361C66.5217 28.9431 66.5104 28.7997 66.497 28.6197C66.47 28.2556 66.4322 27.7091 66.3888 27.0385C66.3018 25.6968 66.1911 23.8472 66.0962 21.9467C66.0014 20.0492 65.9216 18.0875 65.8976 16.5266C65.8857 15.7487 65.8872 15.0505 65.9095 14.5019C65.9155 14.3554 65.9232 14.2129 65.9333 14.0777ZM72.1543 31.6549C72.099 31.9638 72.0455 32.2559 71.9941 32.5281C71.8914 33.0729 71.7952 33.5496 71.7097 33.9243C71.6396 34.2315 71.5406 34.644 71.4061 34.9276C71.1059 35.5603 70.4703 36.6091 69.5555 37.2839C69.0805 37.6343 68.4139 37.9683 67.6072 37.9498C66.7606 37.9304 66.0238 37.5302 65.4354 36.9102C65.1369 36.5956 64.9573 36.2019 64.8476 35.9273C64.7221 35.6134 64.6104 35.2502 64.5091 34.8663C64.3059 34.0957 64.114 33.1226 63.9337 32.0422C63.5722 29.8746 63.2378 27.1519 62.9533 24.4871C62.3888 19.1995 62 13.9362 62 13.5746C62 12.9703 62.3369 12.5829 62.4514 12.4607C62.6009 12.3013 62.7597 12.19 62.8641 12.1226C63.0816 11.9823 63.3354 11.8614 63.5646 11.762C64.0394 11.5561 64.6594 11.3364 65.3018 11.1265C66.5991 10.7027 68.1411 10.2697 69.1648 10L70.0391 11.8814C70.1834 11.7344 70.3259 11.6379 70.4108 11.5863C70.6819 11.4216 70.9693 11.3341 71.1665 11.2836C71.585 11.1763 72.0816 11.1187 72.5122 11.0838C73.3918 11.0125 74.3213 11.0126 74.5805 11.0126H74.5861C75.082 11.0126 75.4261 11.2462 75.5932 11.3924C75.7601 11.5384 75.8597 11.6891 75.9081 11.7689C76.007 11.9318 76.0631 12.0877 76.0902 12.1676C76.1513 12.3479 76.199 12.5539 76.2372 12.7403C76.3172 13.1306 76.4009 13.6636 76.4862 14.2825C76.5008 14.3883 76.5155 14.4974 76.5304 14.6097C76.5472 14.4097 76.5618 14.2328 76.574 14.0812C76.592 13.858 76.6022 13.7181 76.6078 13.6425C76.6121 13.5832 76.6135 13.5636 76.6135 13.5746C76.6135 13.1405 76.7855 12.8183 76.8884 12.6569C77.0013 12.4799 77.1298 12.3432 77.2283 12.2487C77.4267 12.0587 77.6584 11.8945 77.8664 11.762C78.2941 11.4894 78.8301 11.2199 79.3575 10.9976C79.8812 10.7768 80.4677 10.5725 80.9987 10.4628C81.2584 10.4091 81.5728 10.3634 81.8913 10.3771C82.1466 10.3881 82.7576 10.4482 83.2328 10.949C83.5523 11.2856 83.6498 11.6797 83.6816 11.8144C83.7277 12.0092 83.7498 12.2075 83.7621 12.3794C83.7868 12.7286 83.782 13.1484 83.7612 13.5945C83.7533 13.7643 83.7429 13.9436 83.73 14.1313C84.338 14.0029 84.9942 14.0477 85.6654 14.2835C86.5869 14.6072 87.4886 15.1343 88.0956 15.8806C88.7419 16.6752 89.0984 17.818 88.5391 18.9968L88.5156 19.0465C88.3302 19.4372 88.1139 19.893 87.883 20.3017C88.2053 20.2071 88.5361 20.1517 88.8361 20.1165C89.4906 20.0399 90.1928 20.04 90.6792 20.04L90.7113 20.04C91.2742 20.04 91.667 20.2832 91.9293 20.5579C92.1178 20.408 92.3388 20.2778 92.5967 20.1767C93.3077 19.8979 94.1316 19.9097 95.0021 20.0626C95.1501 20.0886 95.2929 20.1215 95.4306 20.1609C95.1467 19.7828 94.8676 19.2918 94.6611 18.9142C94.3589 18.3616 94.0687 17.7776 93.8913 17.4038L92.8745 15.2608H95.2465H97.8438C97.8566 15.1128 97.8717 14.964 97.8892 14.8172C97.9311 14.4661 97.9917 14.0873 98.083 13.7428C98.155 13.4713 98.3114 12.9449 98.6936 12.5421C99.0723 12.143 99.6095 11.9135 99.936 11.79C100.333 11.6397 100.78 11.5182 101.2 11.4376C101.602 11.3606 102.077 11.3022 102.505 11.3313C102.702 11.3447 103.037 11.3842 103.372 11.553C103.758 11.748 104.305 12.2266 104.305 13.0436V15.1993C104.934 15.2057 105.607 15.2463 106.259 15.3309C106.906 15.4148 107.575 15.5474 108.183 15.7535C108.766 15.9511 109.43 16.2613 109.932 16.7813L109.958 16.8091C110.237 17.0975 110.618 17.4919 110.897 17.998C110.996 18.1777 111.078 18.3629 111.145 18.555C111.894 18.6862 112.732 18.9873 113.388 19.6923C113.584 19.9019 113.749 20.1307 113.887 20.3777C114.474 19.8932 115.318 19.509 116.411 19.509C116.89 19.509 117.336 19.652 117.705 19.9212C117.953 19.7674 118.233 19.6414 118.548 19.5584C119.058 19.4241 119.621 19.2899 120.165 19.2549C120.727 19.2186 121.389 19.2792 122.019 19.6481C122.652 20.0187 123.066 20.5904 123.347 21.2176C123.621 21.8302 123.804 22.5748 123.939 23.4298C124.244 25.3532 123.371 26.7487 122.264 27.6006C121.232 28.3955 119.975 28.7566 119.126 28.8684L118.703 28.9241C118.693 29.2955 118.694 29.6938 118.704 30.106C118.732 31.2574 118.829 32.3787 118.908 33.0458L119.041 34.1664L118.001 34.6048C117.499 34.8166 116.694 35.0838 115.897 35.166C115.503 35.2067 115.003 35.2143 114.508 35.0733C113.983 34.9236 113.376 34.5727 113.04 33.8655C112.906 33.5836 112.842 33.2541 112.807 33.0001C111.882 33.9673 110.564 34.7225 108.819 34.7225C107.266 34.7225 106.029 34.3855 105.071 33.8133C104.859 34.2635 104.483 34.54 104.318 34.643C103.97 34.8614 103.567 34.9861 103.247 35.0639C102.899 35.1484 102.517 35.2078 102.136 35.2461C101.382 35.3217 100.521 35.3252 99.7752 35.2231C99.4069 35.1727 99.0018 35.0881 98.6322 34.9382C98.4294 34.8559 98.1109 34.7041 97.8275 34.431C97.3393 34.7165 96.7663 35.0065 96.1861 35.2168C95.7181 35.3865 95.1556 35.538 94.5828 35.5455C94.0043 35.5531 93.2388 35.41 92.6467 34.7861C92.2629 34.3816 92.0571 33.8803 91.9433 33.4082C91.9363 33.4212 91.9294 33.434 91.9224 33.4468C91.8287 33.6184 91.7141 33.8056 91.5755 33.9797C91.4488 34.1388 91.231 34.3787 90.9066 34.5496C90.4284 34.8016 89.6026 35.2122 88.7012 35.0222C87.8967 34.8526 87.3984 34.309 87.0771 33.7832C87.0736 33.7776 87.0702 33.772 87.0669 33.7664C86.977 33.6177 86.9012 33.4708 86.8365 33.3345C86.681 33.0067 86.6116 32.6079 86.5719 32.3509C86.5231 32.0347 86.4826 31.6568 86.4482 31.2473C86.379 30.4251 86.3276 29.3948 86.2895 28.3101C86.2131 26.1365 86.1878 23.6752 86.1878 22.071V21.9061C86.1709 21.9109 86.1537 21.9156 86.1364 21.92C85.994 21.9562 85.8391 21.9779 85.6722 21.9779M85.6722 21.976V21.54H85.18C85.18 21.8666 85.4285 22.0013 85.4277 22.0028C85.4275 22.0031 85.4206 21.9997 85.4045 21.9929C85.3711 21.9789 85.3341 21.9688 85.275 21.955L85.2397 21.9466C85.2364 21.9458 85.2307 21.9444 85.2233 21.9426C85.2103 21.9393 85.1918 21.9345 85.171 21.9287C85.1667 21.9275 85.1623 21.9262 85.1578 21.9249C85.1389 21.9193 85.1 21.9077 85.0524 21.8901L85.0502 21.8893C85.0205 21.8783 84.8939 21.8315 84.7522 21.7394C84.7112 21.7127 84.6259 21.6553 84.5291 21.562C84.5277 21.5646 84.5263 21.5671 84.5249 21.5697C84.3113 21.9619 83.9721 22.2552 83.8312 22.377C83.8271 22.3806 83.8232 22.384 83.8194 22.3872C83.7476 22.4494 83.6915 22.497 83.6459 22.5355C83.6502 23.4797 83.6707 25.6645 83.7692 27.8446C83.8316 29.2263 83.9239 30.5693 84.0572 31.5834C84.103 31.9321 84.1507 32.2181 84.1977 32.4407C84.2608 32.4188 84.324 32.3874 84.3828 32.351C84.3878 32.3479 84.3928 32.3448 84.3978 32.3416C84.4697 32.2956 84.5345 32.2423 84.5841 32.19L86.7602 34.2551C86.0351 35.0191 84.3171 36.0626 82.4534 35.0806C81.9765 34.8294 81.7403 34.4183 81.6427 34.2295C81.5222 33.9964 81.4381 33.7475 81.3762 33.5278C81.2507 33.0827 81.157 32.5393 81.0827 31.9742C81.0156 31.4635 80.9592 30.8926 80.9117 30.2919C80.6639 31.2482 80.3939 32.1857 80.0994 33.045C79.6762 34.28 79.1607 35.4831 78.5115 36.3672C77.8903 37.2132 76.802 38.1963 75.2845 37.8764C74.4079 37.6917 73.8879 37.0157 73.6117 36.5629C73.302 36.0552 73.0596 35.4316 72.8612 34.7876C72.5862 33.8948 72.3529 32.8182 72.1543 31.6549M84.3652 19.5859C84.5254 19.371 84.7055 19.2506 84.7889 19.1997C84.9431 19.1057 85.079 19.0616 85.1383 19.0437C85.1391 19.0435 85.1399 19.0432 85.1407 19.043C85.147 19.0333 85.1536 19.023 85.1604 19.0122C85.3432 18.7233 85.5418 18.3147 85.7873 17.798C85.7818 17.7906 85.7755 17.7825 85.7683 17.7736C85.6194 17.5906 85.2613 17.3212 84.6711 17.1139C84.4938 17.0517 84.3994 17.0584 84.3631 17.0641C84.3286 17.0696 84.2805 17.0843 84.2087 17.141C84.0345 17.2787 83.7811 17.6233 83.5749 18.2752C83.5192 18.4514 83.54 18.6126 83.6393 18.8034C83.7542 19.0243 83.9343 19.1939 84.0149 19.2505L84.1024 19.3121L84.1803 19.3854C84.2438 19.4451 84.3062 19.512 84.3652 19.5859ZM85.6722 21.976C85.6713 21.9761 85.6705 21.9762 85.6697 21.9762C85.6535 21.9771 85.6413 21.9775 85.6354 21.9777M90.4692 28.617L89.2904 28.2793C89.3274 29.3161 89.376 30.2626 89.4376 30.996C89.4559 31.213 89.4747 31.4048 89.4939 31.5702C89.5368 31.4673 89.5825 31.352 89.6308 31.2241C89.9 30.5109 90.1852 29.5811 90.4692 28.617C90.4692 28.6171 90.4693 28.6169 90.4692 28.617ZM89.0996 32.078C89.0996 32.078 89.1005 32.0778 89.1023 32.0774ZM100.17 32.2492L100.182 32.2508C100.382 32.2782 100.611 32.2945 100.851 32.2997C100.62 31.827 100.53 31.365 100.493 30.9746C100.465 30.6792 100.465 30.3027 100.464 30.0676C100.464 29.9915 100.464 29.9303 100.463 29.8913C100.458 29.6942 100.442 29.6226 100.439 29.6105L100.438 29.6093C100.379 29.4816 100.335 29.3492 100.302 29.2202C100.264 29.7732 100.232 30.2968 100.209 30.7731C100.18 31.3709 100.166 31.8709 100.17 32.2492ZM100.787 22.8043C100.973 21.6284 101.172 20.5062 101.332 19.6672L101.572 18.399L101.305 18.4271V16.7608V14.4944C101.195 14.5263 101.091 14.5607 100.998 14.5959L100.959 14.6109C100.926 14.7569 100.895 14.9467 100.868 15.173C100.801 15.7316 100.778 16.3602 100.778 16.7608V18.2608H99.2778H97.7588C97.7707 18.2784 97.7814 18.2939 97.7909 18.3074C97.8856 18.3378 98.0273 18.3688 98.2139 18.3934C98.6093 18.4455 99.0236 18.4469 99.2778 18.4469C100.175 18.4469 100.574 19.1414 100.652 19.2945C100.765 19.5127 100.807 19.7172 100.824 19.8093C100.864 20.022 100.875 20.2524 100.88 20.4386C100.889 20.8364 100.87 21.3664 100.839 21.9531C100.824 22.2184 100.807 22.5036 100.787 22.8043ZM102.302 14.3244C102.317 14.3254 102.314 14.3263 102.298 14.3241C102.299 14.3242 102.301 14.3243 102.302 14.3244ZM102.176 18.3353L103.029 18.4636C104.194 18.639 105.92 18.8449 107.316 18.9012C107.42 18.8542 107.526 18.8107 107.633 18.7702C107.535 18.7158 107.399 18.6554 107.22 18.5948C106.859 18.4723 106.397 18.374 105.873 18.306C104.819 18.1692 103.687 18.1762 102.962 18.2525L102.176 18.3353ZM104.261 21.6535C104.182 21.6442 104.103 21.6348 104.025 21.6254C103.993 21.8065 103.961 21.9925 103.929 22.1823C104.034 22.0032 104.145 21.8266 104.261 21.6535ZM110.439 21.4851C110.905 21.5376 111.101 21.638 111.193 21.7372C111.272 21.8211 111.661 22.3537 111.226 24.4166C110.974 25.613 110.12 26.5315 109.169 27.0773C108.696 27.3484 108.267 27.4862 107.981 27.5276C107.851 27.5465 107.791 27.5394 107.791 27.5397C107.791 27.5397 107.792 27.5399 107.793 27.5401C107.802 27.5416 107.994 27.5764 108.188 27.7847C108.249 27.8503 108.303 27.9259 108.346 28.0092L107.868 28.0823L105.458 28.4505C105.458 28.8335 105.56 29.2166 105.776 29.5522C105.906 29.8491 106.093 30.2298 106.342 30.6122C106.508 30.8666 106.723 31.1551 106.992 31.4268C106.351 31.1678 106.016 30.7784 105.812 30.4245C105.378 29.6737 105.313 28.7053 105.313 27.9123C105.313 26.7206 105.652 25.3785 106.243 24.2018C106.762 23.1684 107.415 22.378 108.069 21.9159C108.573 21.9135 109.069 21.8857 109.49 21.8096C109.751 21.7626 110.108 21.6763 110.439 21.4851ZM111.544 29.1201C111.541 29.0985 111.541 29.0879 111.542 29.0914C111.542 29.0935 111.543 29.1013 111.544 29.1153C111.544 29.1167 111.544 29.1183 111.544 29.1201ZM97.8169 22.2381C97.7594 22.1153 97.6963 21.9946 97.6272 21.8767C97.4953 21.6516 97.3436 21.4409 97.1719 21.2478C97.3989 21.3036 97.6213 21.3412 97.8221 21.3677C97.8359 21.3695 97.8498 21.3713 97.8635 21.373C97.8579 21.5025 97.8511 21.6418 97.843 21.7907C97.8353 21.9338 97.8265 22.0831 97.8169 22.2381ZM95.6661 32.1846C95.4149 31.4885 95.2582 30.6039 95.2582 29.5054C95.2582 28.9534 95.2984 28.3087 95.3371 27.6884C95.3489 27.4989 95.3606 27.3116 95.3709 27.13C95.4177 26.3086 95.4433 25.5323 95.3889 24.8444C95.3331 24.139 95.2022 23.6722 95.039 23.3937C94.9171 23.1858 94.7792 23.0694 94.4831 23.0174C94.2257 22.9722 94.0419 22.9577 93.9164 22.9557C93.9141 22.9812 93.9118 23.0086 93.9092 23.0394C93.9061 23.0761 93.9026 23.1176 93.8982 23.1664C93.8908 23.2497 93.8799 23.3689 93.8589 23.5026C94.4156 23.5689 94.779 23.9224 94.9526 24.1914C95.108 24.4319 95.1588 24.6601 95.1751 24.7365C95.2136 24.9166 95.2218 25.0983 95.2257 25.1979C95.2348 25.4278 95.2348 25.7845 95.2348 26.2734V26.3192C95.2348 26.9433 95.1622 27.6835 95.084 28.3921C95.0617 28.5945 95.0387 28.7955 95.0159 28.9953C94.9552 29.5273 94.8956 30.05 94.8513 30.5636C94.7901 31.2722 94.7678 31.8684 94.8046 32.321C94.8102 32.3897 94.8168 32.4496 94.8237 32.5015C94.918 32.4783 95.0312 32.4445 95.1635 32.3965C95.3281 32.3368 95.4977 32.2644 95.6661 32.1846ZM115.808 32.1501C115.761 31.5533 115.722 30.8724 115.705 30.1792C115.675 28.9608 115.71 27.5554 115.959 26.504L115.968 26.4663C115.866 26.3827 115.788 26.2973 115.733 26.2261C115.709 27.0253 115.691 27.8361 115.681 28.6088C115.666 29.7298 115.67 30.752 115.7 31.5363C115.71 31.7759 115.721 31.9851 115.735 32.1626C115.759 32.1588 115.784 32.1546 115.808 32.1501ZM118.849 27.3299C118.849 27.3299 118.849 27.3298 118.849 27.3299ZM120.955 24.5235C121.005 24.3449 121.015 24.1405 120.976 23.8984C120.86 23.1602 120.728 22.7101 120.608 22.4432C120.562 22.3394 120.525 22.2795 120.502 22.2478C120.473 22.2454 120.427 22.2441 120.358 22.2486C120.129 22.2634 119.811 22.3283 119.313 22.4595C119.307 22.461 119.286 22.4663 119.246 22.501C119.2 22.54 119.132 22.6133 119.053 22.7404C119.039 22.763 119.025 22.7864 119.012 22.8107C119.048 22.8121 119.084 22.8146 119.121 22.8181C120.058 22.9079 120.564 23.6071 120.79 24.0831C120.859 24.2291 120.913 24.3765 120.955 24.5235ZM119.516 25.6246C119.524 25.6163 119.528 25.6129 119.528 25.6132C119.528 25.6136 119.524 25.6177 119.516 25.6246ZM77.6905 30.703L75.1069 30.6926C74.8578 27.7176 74.4609 23.2718 74.0753 19.5456C74.1636 22.257 74.4122 26.2412 74.8753 29.6062C75.1131 31.3347 75.3993 32.8365 75.7283 33.9044C75.8299 34.2341 75.9273 34.4947 76.0156 34.6934C76.0399 34.663 76.0658 34.6292 76.0934 34.5916C76.4678 34.0818 76.8657 33.2271 77.2614 32.0725C77.4105 31.6375 77.5533 31.1782 77.6905 30.703ZM75.7429 34.9526C75.743 34.9506 75.7533 34.944 75.7735 34.9389C75.7529 34.9522 75.7428 34.9547 75.7429 34.9526ZM76.24 35.0995C76.2503 35.1093 76.2552 35.1155 76.2551 35.1161C76.255 35.1168 76.2498 35.1119 76.24 35.0995ZM74.057 19.3693L71.4268 19.2187C71.6595 18.0305 71.8786 16.907 72.0594 15.9648C72.2013 15.2251 72.3207 14.592 72.4049 14.125L72.408 14.1077C72.5126 14.0956 72.6285 14.0843 72.7546 14.074C72.9749 14.0562 73.2017 14.0435 73.4186 14.0345C73.4487 14.2288 73.4807 14.4483 73.5143 14.6921C73.6772 15.8743 73.8647 17.5206 74.057 19.3693ZM72.5587 13.0436C72.5587 13.0767 72.5576 13.1091 72.5556 13.1406C72.5576 13.1075 72.5587 13.0748 72.5587 13.0436ZM67.6314 34.9539C67.6305 34.9542 67.6301 34.9543 67.6301 34.9543ZM67.7461 34.9619C67.7518 34.964 67.7546 34.9656 67.7546 34.9659C67.7546 34.9661 67.7518 34.9651 67.7461 34.9619ZM129.609 26.6288C129.611 26.6407 129.612 26.6535 129.614 26.6675C129.641 26.8808 129.662 27.2011 129.678 27.6217C129.708 28.456 129.708 29.535 129.708 30.638V30.667C129.708 31.7405 129.708 32.8398 129.74 33.6728C129.756 34.0848 129.782 34.4879 129.83 34.8077C129.852 34.9538 129.891 35.1747 129.975 35.3921C130.014 35.4949 130.101 35.6979 130.273 35.8996C130.453 36.1115 130.849 36.4505 131.458 36.4505C132.702 36.4505 133.701 36.1375 134.418 35.5403C135.124 34.952 135.458 34.1597 135.458 33.4505V26.4319C135.793 26.3798 136.24 26.3835 136.808 26.4795C137.765 26.6415 138.724 27.0104 139.287 27.2921L140.254 27.7756L140.691 27.3392C140.785 29.1929 140.889 31.1781 140.96 32.5293L141.018 33.6368L142.094 33.9057C142.515 34.0108 143.208 34.127 143.872 34.054C144.197 34.0183 144.679 33.9208 145.115 33.6073C145.631 33.236 145.958 32.6467 145.958 31.9505C145.958 31.7992 145.971 31.4135 145.994 30.8681C146.051 31.2169 146.163 31.5401 146.237 31.7431C146.347 32.0414 146.473 32.3267 146.573 32.533C146.796 33.136 147.184 33.6639 147.781 33.9837C148.379 34.304 148.981 34.3031 149.394 34.2514C149.795 34.2013 150.165 34.0825 150.375 34.0149L150.386 34.0114L150.402 34.0063C150.497 33.9755 150.553 33.9576 150.595 33.9452C150.836 33.9267 151.202 33.8493 151.538 33.5625C151.642 33.4744 151.727 33.3799 151.797 33.2826C152.118 33.5963 152.493 33.7884 152.858 33.8928C153.331 34.0278 153.774 34.0134 154.045 33.9933C154.184 33.983 154.318 33.9672 154.392 33.9591C154.442 33.9536 154.467 33.9514 154.476 33.9506C154.477 33.9505 154.478 33.9504 154.478 33.9504C155.027 33.9436 155.403 33.6652 155.585 33.4929C155.77 33.3166 155.888 33.1275 155.955 33.008C156.092 32.7633 156.193 32.4862 156.266 32.2604C156.416 31.8019 156.568 31.1953 156.716 30.6039L156.726 30.5643C157.053 29.256 157.39 27.9411 157.799 27.1213C157.842 27.0361 157.884 26.9525 157.926 26.8706C157.958 27.9773 157.958 29.2381 157.958 30.4505C157.958 32.0059 158.321 33.5597 159.679 34.1417C160.328 34.4197 160.958 34.3441 161.409 34.1938C161.852 34.046 162.238 33.792 162.519 33.5112C162.771 33.2593 162.89 32.9793 162.946 32.8307C163.01 32.6603 163.049 32.4922 163.077 32.3541C163.131 32.0783 163.163 31.7632 163.187 31.4624C163.212 31.1537 163.233 30.8034 163.254 30.4477L163.261 30.3288C163.281 30.003 163.301 29.6644 163.329 29.3155C163.402 28.368 163.513 27.4596 163.697 26.6858C163.708 27.2245 163.708 27.8261 163.708 28.4505C163.708 29.3154 163.708 30.2263 163.741 30.9844C163.757 31.3635 163.783 31.7345 163.827 32.0604C163.864 32.3391 163.934 32.7572 164.116 33.1213C164.776 34.4415 166.181 34.4367 166.785 34.3651C167.505 34.2796 168.202 34.0058 168.629 33.7921L169.134 33.5393C170.061 34.1746 171.372 34.4505 172.958 34.4505C175.061 34.4505 176.765 33.6935 177.791 32.4819C178.8 31.2887 179.163 29.5542 178.206 28.1185C177.926 27.6979 177.549 27.3955 177.223 27.1794C176.888 26.9568 176.517 26.7676 176.167 26.6052C175.814 26.4416 175.438 26.2855 175.089 26.1409C175.006 26.1065 174.924 26.0726 174.843 26.0391C175.183 26.0777 175.564 26.0922 175.947 26.0565C176.572 25.9983 177.736 25.7477 178.3 24.6213C178.716 23.7882 178.908 22.4561 178.405 21.2486C178.137 20.6047 177.67 20.0014 176.96 19.5727C176.26 19.1504 175.414 18.9505 174.458 18.9505C172.573 18.9505 170.707 19.7235 169.432 20.9187C169.005 21.3192 168.62 21.7951 168.328 22.3265C168.15 21.8468 167.897 21.4171 167.534 21.0697C167.126 20.6796 166.68 20.4896 166.308 20.3832C166.069 20.3149 165.767 20.2621 165.592 20.2315C165.547 20.2235 165.51 20.2171 165.485 20.2122C165.295 20.1753 165.199 20.1442 165.129 20.1089C164.085 19.5868 163.16 20.1993 162.831 20.4524C162.624 20.6114 162.428 20.7993 162.245 20.9978C161.867 20.5871 161.408 20.3525 160.995 20.215C160.195 19.9483 159.229 19.9496 158.564 19.9504C158.528 19.9505 158.492 19.9505 158.458 19.9505C157.552 19.9505 156.868 20.5091 156.478 20.8963C156.327 20.6928 156.171 20.5398 156.068 20.4385C156.05 20.4207 156.033 20.4044 156.019 20.3898C155.453 19.8246 154.701 19.8106 154.424 19.8131C154.037 19.8165 153.636 19.885 153.293 19.9617C152.71 20.0921 152.105 20.2908 151.651 20.461C151.702 20.0166 151.76 19.5283 151.822 19.0192C152.029 17.3141 152.279 15.3951 152.445 14.1488L152.506 13.6919L152.299 13.2797C151.91 12.5 151.191 12.2041 150.626 12.1327C150.108 12.0672 149.603 12.1629 149.226 12.2659C148.449 12.4776 147.668 12.8749 147.186 13.1643L146.592 13.5207L146.478 14.2039C146.388 14.7449 146.31 15.3114 146.242 15.8948C145.851 15.4962 145.405 15.247 145.129 15.1089C144.75 14.9198 144.364 14.8317 143.987 14.8199C144.026 14.6415 144.057 14.461 144.075 14.2832C144.099 14.0519 144.108 13.7684 144.058 13.4744C144.011 13.1954 143.887 12.758 143.519 12.3898C143.232 12.1031 142.901 11.9924 142.788 11.9558C142.626 11.9033 142.465 11.8708 142.33 11.8487C142.058 11.8039 141.739 11.7774 141.414 11.7604C140.755 11.7259 139.915 11.7234 139.033 11.7382C137.683 11.7608 136.172 11.825 134.934 11.8915C134.817 11.7199 134.68 11.551 134.519 11.3898C134.076 10.9469 133.426 10.6936 132.719 10.8703C132.183 11.0044 131.817 11.3453 131.647 11.5148C131.462 11.7003 131.291 11.9141 131.179 12.0545L131.162 12.076C131.124 12.1234 131.091 12.1644 131.062 12.1999C131.016 12.2004 130.962 12.2005 130.895 12.2005C130.879 12.2005 130.861 12.2005 130.843 12.2004C130.415 12.1996 129.609 12.1981 128.787 12.6089C127.483 13.2606 127.304 14.5629 127.407 15.3866C127.505 16.1739 127.882 16.996 128.397 17.5112C128.729 17.8426 129.105 18.0155 129.458 18.0998V22.3087C129.031 22.5504 128.458 23.0435 128.458 23.9505C128.458 24.3648 128.603 24.7432 128.677 24.9245C128.773 25.1616 128.894 25.405 129.012 25.6233C129.208 25.9887 129.432 26.3555 129.609 26.6288ZM140.498 17.9003C140.499 17.9003 140.498 17.9003 140.498 17.9003C140.378 17.8929 140.252 17.8851 140.125 17.8775C139.481 17.8386 138.666 17.7926 137.84 17.762C137.008 17.7312 136.19 17.717 135.531 17.7388C135.506 17.7396 135.482 17.7404 135.458 17.7413V21.214C136.052 21.1539 136.687 21.1171 137.304 21.1257C137.964 21.1349 138.674 21.1966 139.315 21.3729C139.665 21.4692 140.077 21.622 140.458 21.8777V21.8292L140.897 21.3898C141.088 21.1987 141.341 20.9708 141.636 20.7451C141.008 20.2898 140.458 19.5399 140.458 18.4505C140.458 18.2621 140.472 18.0785 140.498 17.9003ZM145.859 20.2429C145.88 20.2215 145.899 20.2001 145.919 20.1786C145.917 20.2161 145.916 20.2535 145.914 20.2909C145.896 20.2745 145.878 20.2585 145.859 20.2429ZM143.498 18.3656C143.714 18.1592 143.851 17.9947 143.934 17.8727C143.912 17.8591 143.887 17.8448 143.859 17.8298C143.83 17.8403 143.785 17.8612 143.733 17.9005C143.596 18.0034 143.492 18.1628 143.465 18.3521C143.475 18.3566 143.486 18.3611 143.498 18.3656ZM153.823 24.2271C153.908 23.6523 153.958 23.188 153.958 22.9505C153.958 22.9285 153.958 22.9074 153.958 22.8871C153.955 22.8878 153.951 22.8886 153.948 22.8893C153.873 22.906 153.797 22.9247 153.719 22.9449C153.726 23.009 153.733 23.0737 153.74 23.1388C153.772 23.4688 153.8 23.8366 153.823 24.2271ZM154.468 22.8133C154.468 22.8133 154.467 22.8132 154.464 22.813ZM153.908 26.2814C153.936 27.3235 153.948 28.3886 153.954 29.2838C154.171 28.425 154.442 27.4182 154.783 26.5415L153.908 26.2814ZM160.846 25.1602C160.857 25.3086 160.868 25.4606 160.876 25.6151C160.915 25.4746 160.957 25.335 161.001 25.1968L160.846 25.1602ZM164.832 24.3741C164.832 24.3743 164.831 24.3752 164.829 24.3766C164.832 24.3742 164.832 24.3734 164.832 24.3741ZM168.708 27.2681C168.708 27.3082 168.708 27.3481 168.708 27.388C168.708 27.8861 168.708 28.3659 168.713 28.8107C168.917 28.5323 169.131 28.2808 169.335 28.0773C169.338 28.0741 169.341 28.0709 169.345 28.0676C169.114 27.8318 168.902 27.5663 168.708 27.2681ZM150.644 33.9324C150.644 33.9326 150.639 33.9337 150.632 33.9352C150.64 33.933 150.644 33.9323 150.644 33.9324ZM132.176 25.0729C132.151 25.0351 132.124 24.9941 132.096 24.9505H132.458V25.4505V25.6356C132.416 25.5017 132.333 25.2856 132.176 25.0729ZM132.458 15.0472V15.5235L133.287 15.1089C133.395 15.055 133.507 15.0109 133.62 14.9746L132.458 15.0472ZM137.966 14.7646C138.822 14.7965 139.658 14.8439 140.306 14.8829C140.467 14.8926 140.613 14.9016 140.745 14.9097C140.766 14.911 140.786 14.9122 140.806 14.9135C140.831 14.8597 140.855 14.802 140.879 14.7412C140.377 14.7264 139.761 14.7264 139.083 14.7378C138.721 14.7439 138.345 14.7531 137.966 14.7646ZM130.074 15.1714C130.072 15.1715 130.071 15.1715 130.071 15.1715ZM79.1109 24.6749C79.1292 24.5882 79.1473 24.5021 79.1653 24.4166C79.6599 22.0713 80.1571 19.0593 80.4674 16.5749C80.6093 15.4386 80.709 14.4357 80.7533 13.6685C80.6779 13.6979 80.6009 13.7291 80.5228 13.762C80.1543 13.9174 79.8169 14.0876 79.5713 14.2348C79.5403 14.6287 79.4947 15.1625 79.4425 15.7665C79.34 16.9533 79.1981 18.5516 79.0405 20.3067C78.8082 22.8958 78.5416 25.829 78.3165 28.2913C78.6082 27.0606 78.8706 25.8153 79.1109 24.6749ZM79.6135 13.5746C79.6135 13.6013 79.6128 13.6274 79.6113 13.6528C79.6128 13.6201 79.6135 13.5939 79.6135 13.5746ZM69.4526 13.5926L69.4737 13.4747C69.222 13.728 69.0428 13.951 68.9422 14.116C68.929 14.2269 68.9164 14.3941 68.907 14.6241C68.8881 15.0899 68.8856 15.7233 68.8973 16.4805L68.8978 16.5147C68.9741 16.1217 69.0463 15.748 69.1132 15.3994C69.2546 14.6622 69.3715 14.0425 69.4526 13.5926ZM89.1909 23.0955C89.1954 23.863 89.2049 24.7347 89.2211 25.6316C89.316 25.0615 89.4001 24.4876 89.4603 23.959C89.4987 23.6221 89.525 23.3221 89.5396 23.0649C89.4199 23.0725 89.3032 23.0825 89.1909 23.0955Z" fill="white"/>
<path fill-rule="evenodd" clip-rule="evenodd" d="M85.275 21.955L85.2397 21.9466L85.2233 21.9426C85.2103 21.9393 85.1918 21.9345 85.171 21.9287C85.1394 22.8842 85.0277 25.186 84.8686 27.4765C84.7747 28.8299 84.6662 30.1484 84.5518 31.1527C84.4942 31.6586 84.4381 32.0583 84.3861 32.3337L84.3828 32.351L84.3978 32.3416C84.4697 32.2956 84.5345 32.2423 84.5841 32.19L86.7602 34.2551C86.9334 34.0725 87.0305 33.8837 87.0771 33.7832L87.0669 33.7664C86.977 33.6177 86.9012 33.4708 86.8365 33.3345C86.681 33.0067 86.6116 32.6079 86.5719 32.3509C86.5231 32.0347 86.4826 31.6568 86.4482 31.2473C86.379 30.4251 86.3276 29.3948 86.2895 28.3101C86.2131 26.1365 86.1878 23.6752 86.1878 22.071V21.9061C86.1709 21.9109 86.1537 21.9156 86.1364 21.92C85.994 21.9562 85.8391 21.9779 85.6722 21.9779C85.6558 21.9779 85.6448 21.9776 85.6354 21.9777C85.6413 21.9775 85.6535 21.9771 85.6697 21.9762C85.6705 21.9762 85.6713 21.9761 85.6722 21.976V21.54H85.18C85.18 21.8666 85.4285 22.0013 85.4277 22.0028C85.4275 22.0031 85.4206 21.9997 85.4045 21.9929C85.3711 21.9789 85.3341 21.9688 85.275 21.955ZM85.6697 21.9762C85.6535 21.9771 85.6413 21.9775 85.6354 21.9777L85.6238 21.978C85.6224 21.978 85.6255 21.9777 85.6354 21.9777C85.6448 21.9776 85.6558 21.9779 85.6722 21.9779V21.976C85.6713 21.9761 85.6705 21.9762 85.6697 21.9762Z" fill="white"/>
<path d="M85.1578 21.9249C85.1389 21.9193 85.1 21.9077 85.0524 21.8901L85.0502 21.8893C85.0205 21.8783 84.8939 21.8315 84.7522 21.7394C84.7112 21.7127 84.6259 21.6553 84.5291 21.562L84.5249 21.5697C84.3113 21.9619 83.9721 22.2552 83.8312 22.377L83.8194 22.3872C83.7476 22.4494 83.6915 22.497 83.6459 22.5355C83.6502 23.4797 83.6707 25.6645 83.7692 27.8446C83.8316 29.2263 83.9239 30.5693 84.0572 31.5834C84.103 31.9321 84.1507 32.2181 84.1977 32.4407C84.2608 32.4188 84.324 32.3874 84.3828 32.351L84.3861 32.3337C84.4381 32.0583 84.4942 31.6586 84.5518 31.1527C84.6662 30.1484 84.7747 28.8299 84.8686 27.4765C85.0277 25.186 85.1394 22.8842 85.171 21.9287L85.1578 21.9249Z" fill="white"/>
<path d="M84.1024 19.3121L84.1803 19.3854C84.2438 19.4451 84.3062 19.512 84.3652 19.5859C84.5254 19.371 84.7055 19.2506 84.7889 19.1997C84.9431 19.1057 85.079 19.0616 85.1383 19.0437C85.1391 19.0435 85.1399 19.0432 85.1407 19.043L85.1604 19.0122C85.3432 18.7233 85.5418 18.3147 85.7873 17.798C85.7818 17.7906 85.7755 17.7825 85.7683 17.7736C85.6194 17.5906 85.2613 17.3212 84.6711 17.1139C84.4938 17.0517 84.3994 17.0584 84.3631 17.0641C84.3286 17.0696 84.2805 17.0843 84.2087 17.141C84.0345 17.2787 83.7811 17.6233 83.5749 18.2752C83.5192 18.4514 83.54 18.6126 83.6393 18.8034C83.7542 19.0243 83.9343 19.1939 84.0149 19.2505L84.1024 19.3121Z" fill="white"/>
<path d="M97.6272 21.8767C97.6963 21.9946 97.7594 22.1153 97.8169 22.2381C97.8265 22.0831 97.8353 21.9338 97.843 21.7907C97.8511 21.6418 97.8579 21.5025 97.8635 21.373L97.8221 21.3677C97.6213 21.3412 97.3989 21.3036 97.1719 21.2478C97.3436 21.4409 97.4953 21.6516 97.6272 21.8767Z" fill="white"/>
<path d="M104.261 21.6535C104.182 21.6442 104.103 21.6348 104.025 21.6254C103.993 21.8065 103.961 21.9925 103.929 22.1823C104.034 22.0032 104.145 21.8266 104.261 21.6535Z" fill="white"/>
<path d="M132.458 15.0472V15.5235L133.287 15.1089C133.395 15.055 133.507 15.0109 133.62 14.9746L132.458 15.0472Z" fill="white"/>
<path d="M137.966 14.7646C138.822 14.7965 139.658 14.8439 140.306 14.8829C140.467 14.8926 140.613 14.9016 140.745 14.9097L140.806 14.9135C140.831 14.8597 140.855 14.802 140.879 14.7412C140.377 14.7264 139.761 14.7264 139.083 14.7378C138.721 14.7439 138.345 14.7531 137.966 14.7646Z" fill="white"/>
<path d="M143.498 18.3656C143.714 18.1592 143.851 17.9947 143.934 17.8727C143.912 17.8591 143.887 17.8448 143.859 17.8298C143.83 17.8403 143.785 17.8612 143.733 17.9005C143.596 18.0034 143.492 18.1628 143.465 18.3521C143.475 18.3566 143.486 18.3611 143.498 18.3656Z" fill="white"/>
<path d="M132.458 25.4505V24.9505H132.096C132.124 24.9941 132.151 25.0351 132.176 25.0729C132.333 25.2856 132.416 25.5017 132.458 25.6356V25.4505Z" fill="white"/>
<path d="M69.5223 33.2987H69.4934L69.5223 33.3275C69.3491 33.5392 69.176 33.7027 69.0028 33.8182C68.8489 33.9336 68.695 34.0298 68.541 34.1068C68.3679 34.1837 68.214 34.2414 68.0793 34.2799C67.9639 34.2991 67.8484 34.3088 67.733 34.3088C67.6175 34.3088 67.4829 34.2991 67.3289 34.2799C67.1943 34.2799 67.05 34.2607 66.896 34.2222C66.5305 33.0678 66.213 31.8653 65.9437 30.6147C65.6743 29.3449 65.4434 28.1809 65.251 27.1227C65.0394 25.8914 64.8566 24.6697 64.7027 23.4576C64.5488 22.2839 64.4237 21.1103 64.3275 19.9367C64.2891 19.4365 64.241 18.917 64.1832 18.3783C64.1448 17.8396 64.1063 17.3008 64.0678 16.7621C64.0486 16.2042 64.0293 15.6655 64.0101 15.146C64.0101 14.6073 64.0197 14.107 64.0389 13.6453C64.4237 13.3759 64.8085 13.1739 65.1933 13.0392C65.5974 12.9046 65.9533 12.7987 66.2611 12.7218C66.6075 12.6448 66.9441 12.5967 67.2712 12.5775C67.1365 12.7314 67.0307 12.9911 66.9538 13.3567C66.896 13.703 66.8672 14.2032 66.8672 14.8574C66.8672 15.5115 66.896 16.3485 66.9538 17.3682C67.0115 18.3879 67.1077 19.6288 67.2424 21.0911C67.3001 21.6105 67.3578 22.1781 67.4155 22.7938C67.4925 23.4095 67.5694 24.054 67.6464 24.7274C67.7234 25.3815 67.8003 26.0453 67.8773 26.7187C67.9735 27.3728 68.0601 27.9981 68.137 28.5946C68.3102 27.5556 68.5218 26.3435 68.7719 24.9583C69.0413 23.573 69.3684 22.1396 69.7531 20.6582C70.0225 19.5807 70.2726 18.5803 70.5035 17.6568C70.7151 16.8487 70.9172 16.0695 71.1095 15.3191C71.3212 14.5496 71.4847 13.982 71.6002 13.6164C71.9657 13.4625 72.2832 13.3567 72.5525 13.299C72.7064 13.2605 72.8411 13.2316 72.9566 13.2124H73.3606C73.4953 13.2124 73.6396 13.222 73.7935 13.2413C73.9474 13.2605 74.1109 13.299 74.2841 13.3567C74.438 14.9921 74.6016 16.5505 74.7747 18.0319C74.9479 19.4942 75.1114 20.8025 75.2653 21.9569C75.4577 23.3036 75.6405 24.5446 75.8137 25.6797C75.9099 26.4493 76.0157 27.1516 76.1311 27.7865C76.2658 28.4214 76.3812 29.0082 76.4774 29.5469C76.5736 29.0275 76.6987 28.3925 76.8526 27.6422C77.0258 26.8726 77.1797 25.9395 77.3144 24.8428C77.5068 23.6692 77.6799 22.4571 77.8338 21.2065C77.9685 20.1291 78.0936 18.9362 78.209 17.6279C78.3437 16.3004 78.4495 14.9728 78.5265 13.6453C78.6804 13.5106 78.8343 13.3952 78.9882 13.299C79.1614 13.2028 79.3249 13.1162 79.4788 13.0392C79.652 12.9623 79.8252 12.8949 79.9983 12.8372C80.1715 12.7795 80.3542 12.7314 80.5466 12.6929C80.7006 12.6544 80.8737 12.6256 81.0661 12.6063C81.2585 12.5871 81.4317 12.5871 81.5856 12.6063C81.4894 13.626 81.3547 14.7516 81.1816 15.9829C81.0084 17.195 80.8352 18.3302 80.6621 19.3884C80.4504 20.6389 80.2388 21.8799 80.0272 23.1112C79.7963 24.3426 79.5366 25.5932 79.248 26.863C78.9978 27.9597 78.7092 29.1429 78.3822 30.4127C78.0743 31.6633 77.7376 32.8465 77.3721 33.9625C77.2566 34.0779 77.122 34.1549 76.9681 34.1933C76.8141 34.251 76.6602 34.2991 76.5063 34.3376C76.3331 34.3761 76.1696 34.3953 76.0157 34.3953C75.7078 34.3953 75.4674 34.3569 75.2942 34.2799C75.121 34.2222 74.9864 34.126 74.8902 33.9913C74.8132 33.8759 74.7555 33.7316 74.717 33.5584C74.6785 33.3853 74.64 33.1929 74.6016 32.9812L72.5525 18.4071L69.5223 33.2987ZM82.6823 21.7837C82.6823 21.6683 82.8362 21.5432 83.144 21.4085C83.4518 21.2738 83.7885 21.168 84.1541 21.0911C84.5389 20.9949 84.8852 20.9468 85.193 20.9468C85.5201 20.9275 85.6837 20.9949 85.6837 21.1488C85.6837 21.4374 85.6644 21.851 85.6259 22.3898C85.5875 22.9092 85.5394 23.4672 85.4816 24.0636C85.4239 24.6408 85.3662 25.2276 85.3085 25.824C85.2508 26.4012 85.2123 26.8918 85.193 27.2959C85.1546 27.7192 85.1161 28.1809 85.0776 28.6811C85.0391 29.1044 85.0103 29.5758 84.991 30.0953C84.9718 30.6147 84.9718 31.1438 84.991 31.6825C84.991 31.7787 84.8948 31.8749 84.7024 31.9711C84.51 32.0673 84.2984 32.1347 84.0675 32.1732C83.8366 32.2309 83.6154 32.2597 83.4037 32.2597C83.1921 32.2597 83.0767 32.2213 83.0574 32.1443C83.0189 32.0673 82.9805 31.9327 82.942 31.7403C82.9035 31.5479 82.865 31.2785 82.8265 30.9322C82.7881 30.5666 82.7592 30.1049 82.74 29.5469C82.7207 28.9697 82.7304 28.2771 82.7688 27.469C82.8458 25.8721 82.8554 24.6408 82.7977 23.775C82.74 22.89 82.7015 22.2262 82.6823 21.7837ZM84.7024 16.0406C85.0872 16.0406 85.4528 16.1561 85.7991 16.387C86.1454 16.6178 86.3186 16.9257 86.3186 17.3105C86.3186 17.5991 86.2416 17.878 86.0877 18.1474C85.953 18.4167 85.7798 18.6572 85.5682 18.8689C85.3566 19.0805 85.1161 19.2537 84.8467 19.3884C84.5774 19.5038 84.3272 19.5615 84.0964 19.5615C83.7885 19.5615 83.5384 19.5134 83.346 19.4172C83.1536 19.3018 82.9997 19.1767 82.8843 19.042C82.7881 18.8881 82.7207 18.7246 82.6823 18.5514C82.6438 18.3783 82.6245 18.2147 82.6245 18.0608C82.6245 17.8684 82.6534 17.6568 82.7111 17.4259C82.7688 17.1758 82.8746 16.9545 83.0286 16.7621C83.1825 16.5505 83.3941 16.3773 83.6635 16.2427C83.9328 16.108 84.2791 16.0406 84.7024 16.0406ZM83.9809 18.7246C84.0964 18.7246 84.2214 18.6861 84.3561 18.6091C84.51 18.5129 84.6447 18.4071 84.7601 18.2917C84.8948 18.1762 85.0006 18.0512 85.0776 17.9165C85.1738 17.7818 85.2219 17.6664 85.2219 17.5702C85.2219 17.4163 85.1449 17.3393 84.991 17.3393C84.8948 17.3393 84.7698 17.3778 84.6158 17.4548C84.4812 17.5317 84.3465 17.6279 84.2118 17.7434C84.0771 17.8396 83.9617 17.955 83.8655 18.0897C83.7885 18.2051 83.7501 18.3205 83.7501 18.436C83.7501 18.6284 83.827 18.7246 83.9809 18.7246ZM90.6764 31.2208C90.6571 31.3362 90.5513 31.4613 90.3589 31.596C90.1858 31.7114 89.9741 31.8172 89.724 31.9134C89.4931 32.0096 89.2719 32.0673 89.0602 32.0866C88.8486 32.1251 88.7043 32.1058 88.6273 32.0289C88.5504 31.9519 88.4253 31.8076 88.2522 31.596C88.079 31.3843 87.9732 31.038 87.9347 30.557C87.8962 30.0568 87.877 29.4315 87.877 28.6811C87.877 27.9116 87.8674 27.065 87.8481 26.1415V24.9871C87.8481 24.6408 87.8385 24.2368 87.8193 23.775C87.8193 23.3133 87.8096 22.8323 87.7904 22.332C87.9636 22.2358 88.1367 22.1493 88.3099 22.0723C88.5023 21.9761 88.6754 21.8991 88.8293 21.8414C89.0025 21.7645 89.166 21.7067 89.32 21.6683C89.724 21.5528 90.0318 21.4855 90.2435 21.4662C90.4551 21.447 90.5802 21.5143 90.6186 21.6683C90.6379 21.7837 90.6283 22.0627 90.5898 22.5052C90.5513 22.89 90.5032 23.4768 90.4455 24.2656C90.3878 25.0352 90.2916 26.1126 90.1569 27.4979C90.407 26.8822 90.609 26.3531 90.7629 25.9106C90.9361 25.4681 91.0804 25.1122 91.1958 24.8428C91.3113 24.5157 91.4171 24.256 91.5133 24.0636C91.6095 23.8135 91.7345 23.5345 91.8885 23.2267C92.0424 22.9188 92.1963 22.6302 92.3502 22.3609C92.5234 22.0915 92.6773 21.851 92.812 21.6394C92.9659 21.4278 93.0813 21.3027 93.1583 21.2642C93.216 21.2257 93.3892 21.2257 93.6778 21.2642C93.9664 21.3027 94.2742 21.3989 94.6013 21.5528C94.9283 21.6875 95.2458 21.8895 95.5536 22.1589C95.8615 22.409 96.0635 22.7168 96.1597 23.0824C96.2751 23.5057 96.3136 24.0636 96.2751 24.7562C96.2559 25.4489 96.2078 26.1607 96.1308 26.8918C96.0731 27.623 96.025 28.3156 95.9865 28.9697C95.9481 29.6239 95.9865 30.1241 96.102 30.4704C96.1404 30.6628 96.1982 30.836 96.2751 30.9899C96.3136 31.1438 96.3617 31.2881 96.4194 31.4228C96.4964 31.5382 96.5733 31.6248 96.6503 31.6825C96.1885 31.8942 95.8134 32.0481 95.5248 32.1443C95.2362 32.2405 95.0149 32.3078 94.861 32.3463C94.6686 32.404 94.5339 32.4233 94.457 32.404C94.2838 32.3463 94.1299 32.202 93.9952 31.9711C93.8798 31.7403 93.774 31.3747 93.6778 30.8745C93.6393 30.7206 93.62 30.4704 93.62 30.1241C93.6393 29.7586 93.6681 29.3545 93.7066 28.912C93.7451 28.4503 93.7836 27.9789 93.8221 27.4979C93.8798 26.9977 93.9183 26.5359 93.9375 26.1126C93.976 25.6701 94.0048 25.295 94.0241 24.9871C94.0433 24.66 94.0433 24.4388 94.0241 24.3233C93.9279 23.977 93.7932 23.7365 93.62 23.6019C93.4469 23.4479 93.3122 23.4287 93.216 23.5441C92.9659 23.8327 92.6965 24.3041 92.4079 24.9583C92.1386 25.5932 91.8788 26.2954 91.6287 27.065C91.3786 27.8154 91.167 28.5657 90.9938 29.3161C90.8207 30.0664 90.7148 30.7013 90.6764 31.2208ZM109.175 19.1575C108.964 19.119 108.675 19.0805 108.31 19.042C107.963 19.0036 107.607 18.9747 107.242 18.9555C106.819 18.9362 106.366 18.9266 105.885 18.9266C105.404 18.8881 104.798 18.8881 104.067 18.9266C103.355 18.9458 102.605 18.9555 101.816 18.9555C101.797 19.4557 101.758 19.9655 101.701 20.485C101.662 21.0045 101.624 21.5143 101.585 22.0146C101.489 22.9381 101.403 23.8808 101.326 24.8428C101.268 25.8048 101.239 26.7187 101.239 27.5845C101.239 28.4503 101.287 29.2391 101.383 29.951C101.499 30.6436 101.701 31.1919 101.989 31.596C101.758 31.7691 101.508 31.9038 101.239 32C100.97 32.077 100.729 32.1347 100.517 32.1732C100.267 32.2309 100.017 32.2597 99.7671 32.2597C99.5363 32.2597 99.3439 32.1828 99.1899 32.0289C99.036 31.8749 98.9494 31.6056 98.9302 31.2208C98.8917 30.5666 98.8821 29.9125 98.9013 29.2583C98.9398 28.5849 98.9783 27.8827 99.0168 27.1516C99.0745 26.4205 99.1322 25.6413 99.1899 24.814C99.2477 23.9674 99.3054 23.0439 99.3631 22.0434C99.4208 21.0045 99.4497 19.9944 99.4497 19.0132C98.7186 19.0324 98.1029 19.042 97.6027 19.042C97.1024 19.042 96.8235 19.0324 96.7657 19.0132C96.708 18.9747 96.6407 18.8881 96.5637 18.7534C96.4868 18.638 96.3906 18.4648 96.2751 18.234C96.1404 18.0031 95.9769 17.676 95.7845 17.2527C96.1501 17.2527 96.5541 17.2527 96.9966 17.2527C97.4199 17.2527 97.8143 17.2431 98.1799 17.2239C98.6031 17.2046 99.0264 17.1854 99.4497 17.1662C99.4304 16.8583 99.4208 16.5313 99.4208 16.1849C99.4016 15.9156 99.392 15.6174 99.392 15.2903C99.392 14.944 99.3823 14.6265 99.3631 14.3379C99.3631 14.2225 99.4978 14.0878 99.7671 13.9339C100.056 13.7607 100.364 13.6068 100.691 13.4721C101.018 13.3375 101.316 13.2509 101.585 13.2124C101.874 13.1739 102.018 13.2413 102.018 13.4144C102.018 13.5876 102.009 14.0108 101.989 14.6842C101.989 15.3384 101.97 16.1368 101.932 17.0796C102.124 17.0796 102.268 17.07 102.365 17.0507C103.384 17.0122 104.202 16.9738 104.818 16.9353C105.452 16.8776 105.972 16.8679 106.376 16.9064C106.78 16.9449 107.136 17.0411 107.444 17.195C107.752 17.3489 108.098 17.5991 108.483 17.9454C108.617 18.0608 108.733 18.1859 108.829 18.3205C108.925 18.436 109.002 18.5707 109.06 18.7246C109.137 18.8593 109.175 19.0036 109.175 19.1575ZM108.194 32.3175C106.847 32.3175 105.808 31.8653 105.077 30.9611C104.346 30.0568 103.981 28.8735 103.981 27.4113C103.981 26.3916 104.125 25.4392 104.414 24.5542C104.721 23.65 105.125 22.8707 105.626 22.2166C106.126 21.5624 106.703 21.0526 107.357 20.687C108.031 20.3022 108.733 20.1098 109.464 20.1098C110.176 20.1098 110.782 20.3696 111.282 20.8891C111.782 21.3893 112.032 22.1108 112.032 23.0535C112.032 23.6692 111.898 24.2849 111.628 24.9005C111.359 25.497 111.003 26.0357 110.561 26.5167C110.137 26.9784 109.666 27.3536 109.147 27.6422C108.627 27.9308 108.127 28.0751 107.646 28.0751C107.338 28.0751 107.078 28.0366 106.867 27.9597C106.655 27.8827 106.463 27.7673 106.289 27.6133C106.347 28.71 106.588 29.4796 107.011 29.9221C107.434 30.3454 107.983 30.557 108.656 30.557C109.118 30.557 109.522 30.4608 109.868 30.2684C110.234 30.076 110.541 29.8548 110.792 29.6047C111.042 29.3545 111.244 29.1044 111.398 28.8543C111.551 28.5849 111.657 28.3829 111.715 28.2483C111.773 28.1328 111.869 28.0751 112.004 28.0751C112.158 28.0751 112.234 28.1905 112.234 28.4214C112.234 28.633 112.158 28.9601 112.004 29.4026C111.869 29.8259 111.638 30.2588 111.311 30.7013C110.984 31.1246 110.561 31.4998 110.041 31.8268C109.541 32.1539 108.925 32.3175 108.194 32.3175ZM109.522 21.3508C109.406 21.3508 109.185 21.4759 108.858 21.726C108.55 21.9569 108.213 22.3032 107.848 22.7649C107.502 23.2267 107.174 23.7846 106.867 24.4388C106.578 25.0737 106.395 25.7952 106.318 26.6033C107.473 26.3339 108.387 25.9106 109.06 25.3334C109.733 24.7562 110.07 23.9097 110.07 22.7938C110.07 22.2358 110.003 21.8607 109.868 21.6683C109.733 21.4566 109.618 21.3508 109.522 21.3508ZM121.729 23.1401C121.729 23.4095 121.652 23.6884 121.498 23.977C121.364 24.2464 121.191 24.5061 120.979 24.7562C120.767 25.0064 120.527 25.2276 120.257 25.42C120.007 25.5932 119.767 25.699 119.536 25.7375C119.69 25.141 119.738 24.6793 119.68 24.3522C119.623 24.0251 119.526 23.7846 119.392 23.6307C119.238 23.4576 119.045 23.3614 118.814 23.3421C118.468 23.3421 118.131 23.5441 117.804 23.9482C117.497 24.333 117.227 24.814 116.996 25.3911C116.765 25.9491 116.583 26.5552 116.448 27.2093C116.313 27.8442 116.246 28.4214 116.246 28.9409C116.227 29.3064 116.236 29.6624 116.275 30.0087C116.294 30.2973 116.323 30.5955 116.361 30.9033C116.419 31.2112 116.496 31.4517 116.592 31.6248C116.477 31.721 116.284 31.8365 116.015 31.9711C115.765 32.1058 115.496 32.1924 115.207 32.2309C114.938 32.2694 114.688 32.2213 114.457 32.0866C114.245 31.9519 114.13 31.6633 114.11 31.2208C114.072 30.7975 114.043 30.3261 114.024 29.8067C114.024 29.268 114.024 28.7389 114.024 28.2194C114.043 27.6807 114.062 27.1516 114.082 26.6321C114.101 26.1126 114.13 25.6316 114.168 25.1891C114.207 24.3426 114.226 23.6884 114.226 23.2267C114.226 22.7649 114.216 22.3224 114.197 21.8991C114.197 21.8222 114.322 21.7164 114.572 21.5817C114.841 21.4278 115.13 21.2931 115.438 21.1776C115.765 21.0622 116.063 20.9949 116.333 20.9756C116.602 20.9564 116.737 21.0141 116.737 21.1488C116.737 21.3604 116.708 21.7837 116.65 22.4186C116.612 23.0343 116.554 23.6788 116.477 24.3522C116.612 23.9866 116.785 23.5922 116.996 23.169C117.227 22.7457 117.487 22.3513 117.776 21.9857C118.064 21.6202 118.391 21.3219 118.757 21.0911C119.122 20.841 119.526 20.7159 119.969 20.7159C120.315 20.7159 120.594 20.8217 120.806 21.0333C121.037 21.245 121.219 21.4855 121.354 21.7548C121.489 22.0242 121.585 22.2936 121.643 22.5629C121.7 22.8323 121.729 23.0247 121.729 23.1401ZM129.618 16.0406C129.503 15.9252 129.416 15.8001 129.359 15.6655C129.301 15.5115 129.253 15.3576 129.214 15.2037C129.176 15.0306 129.147 14.8574 129.128 14.6842C129.109 14.5303 129.109 14.3764 129.128 14.2225C129.128 13.9339 129.185 13.7126 129.301 13.5587C129.513 13.5202 129.743 13.4818 129.994 13.4433C130.244 13.3856 130.484 13.3375 130.715 13.299C130.984 13.2605 131.263 13.222 131.552 13.1835C131.706 13.0296 131.908 12.8661 132.158 12.6929C132.427 12.5005 132.726 12.3274 133.053 12.1734C133.303 12.058 133.476 12.058 133.572 12.1734C133.668 12.2889 133.736 12.5294 133.774 12.8949C134.255 12.8565 134.755 12.818 135.275 12.7795C135.794 12.741 136.333 12.7218 136.891 12.7218C137.641 12.7025 138.344 12.6833 138.998 12.6641C139.556 12.6448 140.114 12.6448 140.672 12.6641C141.249 12.6641 141.691 12.6737 141.999 12.6929C142.153 12.7122 142.268 12.8276 142.345 13.0392C142.442 13.2316 142.471 13.4914 142.432 13.8184C142.413 14.1263 142.317 14.463 142.143 14.8285C141.97 15.1941 141.711 15.55 141.364 15.8963C140.902 15.8001 140.412 15.7232 139.892 15.6655C139.392 15.6077 138.93 15.5596 138.507 15.5212C138.007 15.4827 137.526 15.4731 137.064 15.4923C136.506 15.4923 135.948 15.5115 135.39 15.55C134.832 15.5693 134.303 15.5981 133.803 15.6366C133.784 16.5024 133.765 17.5125 133.745 18.6669C133.745 19.802 133.736 21.0622 133.716 22.4475C133.986 22.409 134.246 22.3898 134.496 22.3898C134.746 22.3705 135.005 22.3513 135.275 22.332C135.967 22.2936 136.641 22.2551 137.295 22.2166C137.949 22.1781 138.517 22.1974 138.998 22.2743C139.498 22.332 139.873 22.4763 140.123 22.7072C140.373 22.9381 140.431 23.3036 140.296 23.8039L139.892 25.1891C139.854 25.0929 139.748 25.016 139.575 24.9583C139.421 24.8813 139.238 24.8236 139.027 24.7851C138.796 24.7274 138.536 24.6793 138.247 24.6408C137.574 24.5638 136.833 24.5542 136.025 24.6119C135.217 24.6697 134.438 24.7562 133.688 24.8717C133.688 25.8337 133.697 26.7476 133.716 27.6133C133.755 28.4599 133.793 29.2295 133.832 29.9221C133.89 30.6147 133.938 31.2112 133.976 31.7114C134.015 32.2116 134.044 32.5868 134.063 32.8369C134.082 33.0101 134.063 33.1448 134.005 33.241C133.909 33.3564 133.793 33.4911 133.659 33.645C133.524 33.7989 133.351 33.9528 133.139 34.1068C132.928 34.2607 132.668 34.3857 132.36 34.4819C132.071 34.5974 131.735 34.6647 131.35 34.6839C131.177 34.6839 131.09 34.5974 131.09 34.4242V25.4777C130.763 25.4585 130.465 25.2084 130.196 24.7274C129.926 24.2464 129.801 23.7077 129.82 23.1112C129.955 23.0728 130.09 23.0439 130.224 23.0247C130.378 23.0054 130.523 22.9766 130.657 22.9381C130.811 22.8996 130.956 22.8707 131.09 22.8515C131.09 21.4662 131.1 20.1772 131.119 18.9843C131.138 17.7722 131.167 16.7333 131.206 15.8675C131.032 15.8867 130.85 15.906 130.657 15.9252C130.503 15.9444 130.33 15.9637 130.138 15.9829C129.945 16.0022 129.772 16.0214 129.618 16.0406ZM142.057 21.7837C142.057 21.6683 142.211 21.5432 142.519 21.4085C142.826 21.2738 143.163 21.168 143.529 21.0911C143.913 20.9949 144.26 20.9468 144.568 20.9468C144.895 20.9275 145.058 20.9949 145.058 21.1488C145.058 21.4374 145.039 21.851 145.001 22.3898C144.962 22.9092 144.914 23.4672 144.856 24.0636C144.799 24.6408 144.741 25.2276 144.683 25.824C144.625 26.4012 144.587 26.8918 144.568 27.2959C144.529 27.7192 144.491 28.1809 144.452 28.6811C144.414 29.1044 144.385 29.5758 144.366 30.0953C144.346 30.6147 144.346 31.1438 144.366 31.6825C144.366 31.7787 144.269 31.8749 144.077 31.9711C143.885 32.0673 143.673 32.1347 143.442 32.1732C143.211 32.2309 142.99 32.2597 142.778 32.2597C142.567 32.2597 142.451 32.2213 142.432 32.1443C142.394 32.0673 142.355 31.9327 142.317 31.7403C142.278 31.5479 142.24 31.2785 142.201 30.9322C142.163 30.5666 142.134 30.1049 142.115 29.5469C142.095 28.9697 142.105 28.2771 142.143 27.469C142.22 25.8721 142.23 24.6408 142.172 23.775C142.115 22.89 142.076 22.2262 142.057 21.7837ZM144.077 16.0406C144.462 16.0406 144.827 16.1561 145.174 16.387C145.52 16.6178 145.693 16.9257 145.693 17.3105C145.693 17.5991 145.616 17.878 145.462 18.1474C145.328 18.4167 145.154 18.6572 144.943 18.8689C144.731 19.0805 144.491 19.2537 144.221 19.3884C143.952 19.5038 143.702 19.5615 143.471 19.5615C143.163 19.5615 142.913 19.5134 142.721 19.4172C142.528 19.3018 142.374 19.1767 142.259 19.042C142.163 18.8881 142.095 18.7246 142.057 18.5514C142.018 18.3783 141.999 18.2147 141.999 18.0608C141.999 17.8684 142.028 17.6568 142.086 17.4259C142.143 17.1758 142.249 16.9545 142.403 16.7621C142.557 16.5505 142.769 16.3773 143.038 16.2427C143.307 16.108 143.654 16.0406 144.077 16.0406ZM143.356 18.7246C143.471 18.7246 143.596 18.6861 143.731 18.6091C143.885 18.5129 144.019 18.4071 144.135 18.2917C144.269 18.1762 144.375 18.0512 144.452 17.9165C144.548 17.7818 144.597 17.6664 144.597 17.5702C144.597 17.4163 144.52 17.3393 144.366 17.3393C144.269 17.3393 144.144 17.3778 143.99 17.4548C143.856 17.5317 143.721 17.6279 143.586 17.7434C143.452 17.8396 143.336 17.955 143.24 18.0897C143.163 18.2051 143.125 18.3205 143.125 18.436C143.125 18.6284 143.202 18.7246 143.356 18.7246ZM150.801 13.299C150.763 13.9916 150.695 14.7901 150.599 15.6943C150.503 16.5986 150.397 17.5702 150.282 18.6091C150.186 19.6481 150.08 20.7351 149.964 21.8703C149.868 23.0054 149.782 24.1502 149.705 25.3046C149.628 26.459 149.589 27.4017 149.589 28.1328C149.608 28.8447 149.657 29.4315 149.734 29.8932C149.81 30.355 149.916 30.7206 150.051 30.9899C150.186 31.2593 150.359 31.519 150.57 31.7691C150.32 31.923 150.089 32.0385 149.878 32.1154C149.666 32.1924 149.483 32.2501 149.329 32.2886C149.137 32.3463 148.964 32.3752 148.81 32.3752C148.521 32.3752 148.271 32.2405 148.06 31.9711C147.848 31.6825 147.675 31.317 147.54 30.8745C147.425 30.432 147.329 29.9413 147.252 29.4026C147.194 28.8447 147.165 28.2964 147.165 27.7576C147.165 27.1804 147.184 26.5167 147.223 25.7663C147.261 24.9967 147.3 24.1887 147.338 23.3421C147.396 22.4763 147.454 21.5817 147.511 20.6582C147.569 19.7154 147.617 18.7823 147.656 17.8588C147.694 17.1469 147.733 16.5024 147.771 15.9252C147.81 15.425 147.838 14.9728 147.858 14.5688C147.877 14.1455 147.867 13.8954 147.829 13.8184C147.944 13.6645 148.089 13.5491 148.262 13.4721C148.435 13.3952 148.598 13.3278 148.752 13.2701C148.945 13.2124 149.137 13.1643 149.329 13.1258H149.878C150.032 13.1258 150.195 13.1451 150.368 13.1835C150.542 13.2028 150.686 13.2413 150.801 13.299ZM158.536 22.9958C158.382 22.9958 158.209 23.0824 158.016 23.2555C157.843 23.4095 157.67 23.6307 157.497 23.9193C157.324 24.1887 157.15 24.4965 156.977 24.8428C156.804 25.1699 156.65 25.5066 156.516 25.8529C156.188 26.661 155.871 27.4883 155.563 28.3348C155.255 29.1814 155.073 29.9125 155.015 30.5282C154.996 30.5859 154.986 30.6436 154.986 30.7013C154.986 30.7398 154.986 30.7783 154.986 30.8168C154.967 30.8552 154.957 30.913 154.957 30.9899C154.919 31.2593 154.861 31.4805 154.784 31.6537C154.726 31.8076 154.592 31.9134 154.38 31.9711C154.149 32.0096 153.918 32.0385 153.687 32.0577C153.456 32.077 153.235 32.0577 153.024 32C152.889 31.9615 152.783 31.8942 152.706 31.798C152.648 31.6825 152.6 31.5575 152.562 31.4228C152.543 31.2689 152.523 31.1246 152.504 30.9899C152.504 30.8552 152.504 30.7398 152.504 30.6436C152.504 30.5282 152.514 30.1722 152.533 29.5758C152.552 28.9601 152.571 28.2675 152.591 27.4979C152.61 26.7283 152.619 25.978 152.619 25.2469C152.619 24.4965 152.61 23.9289 152.591 23.5441C152.552 23.2748 152.514 23.0247 152.475 22.7938C152.437 22.5821 152.389 22.3705 152.331 22.1589C152.292 21.9472 152.225 21.7645 152.129 21.6105C152.34 21.4951 152.552 21.3989 152.764 21.3219C152.975 21.245 153.168 21.1873 153.341 21.1488C153.553 21.0911 153.745 21.0526 153.918 21.0333C154.38 20.9949 154.736 20.9949 154.986 21.0333C155.255 21.0718 155.39 21.2738 155.39 21.6394C155.39 21.9665 155.361 22.4763 155.303 23.169C155.265 23.8424 155.217 24.7851 155.159 25.9972C155.371 25.5162 155.621 24.9775 155.909 24.3811C156.198 23.7654 156.506 23.1978 156.833 22.6783C157.16 22.1396 157.497 21.6971 157.843 21.3508C158.189 20.9852 158.516 20.8025 158.824 20.8025C159.036 20.8025 159.276 20.8506 159.546 20.9468C159.834 21.0237 160.104 21.1392 160.354 21.2931C160.604 21.4278 160.825 21.5817 161.018 21.7548C161.229 21.928 161.374 22.1012 161.451 22.2743C161.527 22.4667 161.576 22.7649 161.595 23.169C161.614 23.573 161.614 24.0251 161.595 24.5254C161.749 24.1598 161.922 23.8039 162.114 23.4576C162.307 23.1112 162.499 22.7938 162.691 22.5052C162.903 22.1974 163.115 21.9376 163.326 21.726C163.538 21.5143 163.73 21.37 163.904 21.2931C164.134 21.1969 164.413 21.1776 164.741 21.2354C165.068 21.2931 165.385 21.3989 165.693 21.5528C166.02 21.6875 166.299 21.851 166.53 22.0434C166.78 22.2358 166.934 22.4186 166.992 22.5918C167.049 22.7842 167.097 23.0824 167.136 23.4864C167.174 23.8905 167.203 24.333 167.222 24.814C167.242 25.295 167.251 25.7952 167.251 26.3147C167.251 26.8149 167.242 27.2574 167.222 27.6422C167.184 28.7581 167.194 29.6431 167.251 30.2973C167.309 30.9322 167.54 31.4036 167.944 31.7114C167.675 31.8846 167.424 32.0096 167.194 32.0866C166.963 32.1828 166.761 32.2501 166.588 32.2886C166.376 32.3463 166.193 32.3752 166.039 32.3752C165.828 32.3752 165.654 32.3175 165.52 32.202C165.385 32.1058 165.279 31.9711 165.202 31.798C165.125 31.6248 165.077 31.4324 165.058 31.2208C165.039 31.0092 165.029 30.7975 165.029 30.5859C165.029 30.3935 165.039 30.076 165.058 29.6335C165.096 29.1718 165.125 28.6523 165.145 28.0751C165.164 27.4979 165.164 26.9111 165.145 26.3147C165.125 25.699 165.077 25.141 165 24.6408C164.943 24.1213 164.837 23.6981 164.683 23.371C164.529 23.0439 164.317 22.8804 164.048 22.8804C163.817 22.8804 163.596 23.0247 163.384 23.3133C163.172 23.5826 162.97 23.9482 162.778 24.4099C162.586 24.8524 162.412 25.3527 162.259 25.9106C162.124 26.4493 161.999 26.988 161.883 27.5268C161.768 28.0655 161.681 28.5657 161.624 29.0275C161.566 29.47 161.537 29.8259 161.537 30.0953L161.508 29.8355C161.508 30.2011 161.508 30.5378 161.508 30.8456C161.527 31.1535 161.547 31.4613 161.566 31.7691C161.585 31.8846 161.479 31.9808 161.248 32.0577C161.018 32.1539 160.758 32.1924 160.469 32.1732C160.2 32.1732 159.95 32.1154 159.719 32C159.488 31.8846 159.373 31.6922 159.373 31.4228C159.373 31.2304 159.373 30.9418 159.373 30.557C159.373 30.1722 159.363 29.7393 159.344 29.2583C159.344 28.7773 159.334 28.2771 159.315 27.7576C159.315 27.2189 159.305 26.7091 159.286 26.2281C159.286 25.8625 159.276 25.4873 159.257 25.1026C159.257 24.7178 159.238 24.3714 159.199 24.0636C159.161 23.7365 159.084 23.4768 158.969 23.2844C158.872 23.092 158.728 22.9958 158.536 22.9958ZM174.004 26.5167C174.428 26.6706 174.832 26.8149 175.217 26.9496C175.601 27.0842 175.938 27.2478 176.227 27.4402C176.515 27.6326 176.746 27.8635 176.919 28.1328C177.092 28.3829 177.179 28.7004 177.179 29.0852C177.179 29.5469 177.073 29.9798 176.862 30.3839C176.669 30.7879 176.381 31.1438 175.996 31.4517C175.611 31.7595 175.14 32 174.582 32.1732C174.043 32.3656 173.437 32.4618 172.763 32.4618C172.013 32.4618 171.407 32.3848 170.945 32.2309C170.484 32.0962 170.128 31.9327 169.878 31.7403C169.627 31.5479 169.464 31.3555 169.387 31.1631C169.31 30.9707 169.271 30.8168 169.271 30.7013C169.271 30.4704 169.32 30.2203 169.416 29.951C169.512 29.6624 169.695 29.3545 169.964 29.0275C170.08 28.8928 170.205 28.7677 170.339 28.6523C170.609 28.4214 170.878 28.2771 171.147 28.2194C171.109 28.6619 171.157 29.0275 171.292 29.3161C171.446 29.5854 171.638 29.797 171.869 29.951C172.119 30.1049 172.388 30.2107 172.677 30.2684C172.985 30.3261 173.273 30.355 173.543 30.355C173.812 30.355 174.081 30.3165 174.351 30.2396C174.639 30.1626 174.899 30.0664 175.13 29.951C175.361 29.8163 175.544 29.672 175.678 29.5181C175.832 29.3449 175.909 29.1621 175.909 28.9697C175.909 28.7581 175.823 28.5849 175.649 28.4503C175.476 28.3156 175.255 28.2098 174.986 28.1328C174.736 28.0366 174.457 27.9693 174.149 27.9308C173.86 27.8731 173.581 27.8154 173.312 27.7576C173.042 27.6999 172.677 27.623 172.215 27.5268C171.773 27.4113 171.33 27.2382 170.888 27.0073C170.464 26.7764 170.089 26.4686 169.762 26.0838C169.454 25.699 169.3 25.1891 169.3 24.5542C169.3 23.8231 169.483 23.1882 169.849 22.6495C170.233 22.0915 170.695 21.6298 171.234 21.2642C171.792 20.8794 172.379 20.5908 172.994 20.3984C173.61 20.206 174.158 20.1098 174.639 20.1098C174.889 20.1098 175.159 20.1483 175.447 20.2253C175.736 20.283 176.005 20.3984 176.255 20.5716C176.506 20.7255 176.708 20.9372 176.862 21.2065C177.035 21.4759 177.121 21.8222 177.121 22.2455C177.121 22.6687 177.083 23.015 177.006 23.2844C176.948 23.5345 176.852 23.7365 176.717 23.8905C176.602 24.0251 176.458 24.1117 176.284 24.1502C176.111 24.1887 175.909 24.2079 175.678 24.2079C175.524 24.2079 175.38 24.1887 175.245 24.1502C175.13 24.1117 175.005 24.0732 174.87 24.0347C174.736 23.9963 174.61 23.9289 174.495 23.8327C174.687 23.6019 174.832 23.3806 174.928 23.169C175.043 22.9573 175.101 22.6976 175.101 22.3898C175.101 22.1204 175.024 21.8799 174.87 21.6683C174.736 21.4566 174.505 21.3508 174.178 21.3508C173.831 21.3508 173.495 21.4181 173.168 21.5528C172.86 21.6875 172.581 21.8703 172.331 22.1012C172.1 22.332 171.907 22.6014 171.753 22.9092C171.619 23.1978 171.551 23.5153 171.551 23.8616C171.551 24.3811 171.744 24.8717 172.129 25.3334C172.533 25.7952 173.158 26.1896 174.004 26.5167Z" fill="#090720"/>
<defs>
<linearGradient id="paint0_linear_103_226" x1="28.7373" y1="4.60948" x2="28.7373" y2="44" gradientUnits="userSpaceOnUse">
<stop stop-color="#4CB6CE"/>
<stop offset="1" stop-color="#3D9FCA"/>
</linearGradient>
</defs>
</svg>
