<svg width="181" height="44" viewBox="0 0 181 44" fill="none" xmlns="http://www.w3.org/2000/svg">
<path fill-rule="evenodd" clip-rule="evenodd" d="M43.0186 5.51922C44.1461 5.55126 46.5749 5.90363 47.2708 7.05685C48.1405 8.49838 54.4221 23.0098 49.7834 32.3317C46.0724 39.7892 40.7959 42.3263 40.7959 42.3263C39.0564 42.9029 30.1656 44.2483 27.363 43.96C25.8157 43.8008 18.5688 40.8847 16.5394 37.8095C16.1379 37.2011 15.8196 36.698 15.5576 36.2838C14.4952 34.6047 14.358 34.3878 13.3503 34.542C12.094 34.7342 3.58967 35.2147 0.593843 27.6227C-2.40198 20.0306 6.68214 16.2826 11.2242 18.3969C11.2242 17.2437 11.3208 12.5347 12.6738 10.8048C14.0267 9.075 25.5268 2.15566 43.0186 5.51922ZM11.2242 21.8566C9.06592 21.4081 4.59472 21.4721 3.97623 25.3162C3.20311 30.1213 11.6108 33.7732 13.3503 31.7551C12.8671 30.4417 11.7654 26.6232 11.2242 21.8566Z" fill="url(#paint0_linear_110_171)"/>
<path d="M44.2245 6.27278C43.5274 6.19468 43.4823 5.65449 43.5468 5.39417C44.595 5.45925 46.8321 5.86276 47.3942 6.95615C47.1588 7.66971 46.99 8.42885 45.5894 9.31752C36.9735 14.7844 20.8681 14.7892 17.5766 14.4964C14.2851 14.2035 12.006 12.4277 12.1624 11.75C12.3978 10.7299 13.8102 9.39599 17.1058 8.06205C17.2027 9.33115 13.9233 13.3017 26.1212 12.6183C38.3191 11.9349 43.5468 7.93238 44.5149 7.44426C45.483 6.95614 45.0957 6.3704 44.2245 6.27278Z" fill="#3179AC"/>
<path d="M43.3231 6.21834C42.6695 6.14508 42.6271 5.63837 42.6876 5.39417C43.6707 5.45522 45.7685 5.83373 46.2956 6.85937C46.0749 7.52872 45.9166 8.24083 44.6032 9.07444C36.5233 14.2026 21.4201 14.2071 18.3334 13.9324C15.2467 13.6577 13.1825 11.4381 13.1825 11.0718C13.1825 10.7055 14.1811 9.97292 14.3627 9.78977C14.4535 10.9802 14.9074 12.8117 26.3463 12.1707C37.7852 11.5297 42.6876 7.77512 43.5955 7.31724C44.5033 6.85937 44.1402 6.30992 43.3231 6.21834Z" fill="#5D3B49"/>
<path d="M16.1872 8.74603C16.0419 8.96505 15.3741 8.0866 15.0945 8.54919C15.0896 8.55724 15.0837 8.56602 15.0777 8.57329C12.6188 11.5653 16.4467 12.5086 18.5315 12.0692C18.5578 12.0637 18.5844 12.0648 18.6102 12.0725L20.3824 12.6065C20.3971 12.6109 20.4123 12.6131 20.4277 12.6131H28.0894C28.1002 12.6131 28.1111 12.612 28.1217 12.6098L38.1762 10.4985C38.1857 10.4964 38.1951 10.4935 38.2041 10.4898L43.4737 8.29993C43.4963 8.29056 43.5163 8.27604 43.5323 8.25754L44.6795 6.92813C44.693 6.91257 44.7032 6.89453 44.7097 6.87503L44.8352 6.49671C44.862 6.41617 44.8199 6.32864 44.7437 6.29127C44.4072 6.12617 43.9471 5.79968 43.6914 5.79968C43.398 5.79968 43.5997 5.15517 43.508 4.87894C43.4164 4.60272 41.7661 4.23443 41.1243 3.40576C40.4826 2.5771 38.649 3.77405 38.1906 3.40576C37.7322 3.03748 36.4486 1.84051 35.5318 1.65636C34.615 1.47222 33.3315 2.85331 32.8731 2.85331C32.4147 2.85331 32.1397 0.827688 29.5726 1.01184C27.0055 1.19598 26.4555 2.85331 25.0803 2.85331C23.705 2.85331 23.155 3.12953 22.5132 3.77405C21.8714 4.41856 19.5794 5.7076 18.846 5.98382C18.1125 6.26004 16.3706 8.46981 16.1872 8.74603Z" fill="#F4F7F2"/>
<mask id="mask0_110_171" style="mask-type:alpha" maskUnits="userSpaceOnUse" x="14" y="1" width="31" height="12">
<path d="M16.1872 8.74603C16.0419 8.96505 15.3741 8.0866 15.0945 8.54919C15.0896 8.55724 15.0837 8.56602 15.0777 8.57329C12.6188 11.5653 16.4467 12.5086 18.5315 12.0692C18.5578 12.0637 18.5844 12.0648 18.6102 12.0725L20.3824 12.6065C20.3971 12.6109 20.4123 12.6131 20.4277 12.6131H28.0894C28.1002 12.6131 28.1111 12.612 28.1217 12.6098L38.1762 10.4985C38.1857 10.4964 38.1951 10.4935 38.2041 10.4898L43.4737 8.29993C43.4963 8.29056 43.5163 8.27604 43.5323 8.25754L44.6795 6.92813C44.693 6.91257 44.7032 6.89453 44.7097 6.87503L44.8352 6.49671C44.862 6.41617 44.8199 6.32864 44.7437 6.29127C44.4072 6.12617 43.9471 5.79968 43.6914 5.79968C43.398 5.79968 43.5997 5.15517 43.508 4.87894C43.4164 4.60272 41.7661 4.23443 41.1243 3.40576C40.4826 2.5771 38.649 3.77405 38.1906 3.40576C37.7322 3.03748 36.4486 1.84051 35.5318 1.65636C34.615 1.47222 33.3315 2.85331 32.8731 2.85331C32.4147 2.85331 32.1397 0.827688 29.5726 1.01184C27.0055 1.19598 26.4555 2.85331 25.0803 2.85331C23.705 2.85331 23.155 3.12953 22.5132 3.77405C21.8714 4.41856 19.5794 5.7076 18.846 5.98382C18.1125 6.26004 16.3706 8.46981 16.1872 8.74603Z" fill="#F4F7F2"/>
</mask>
<g mask="url(#mask0_110_171)">
<path opacity="0.37" fill-rule="evenodd" clip-rule="evenodd" d="M42.5829 6.7543C43.7481 6.75439 44.5698 7.61176 44.835 8.04044C44.1358 9.43862 42.6869 9.99174 42.0498 10.0935C41.6875 9.92935 41.141 9.69498 40.564 9.47089C39.734 9.14858 38.8407 8.84756 38.3412 8.80729C37.2826 8.72195 35.2576 9.46781 34.8242 9.87276C34.4775 10.1967 34.1255 10.3345 33.9929 10.3629C33.3298 10.0195 31.9624 9.23738 31.7976 8.85655C31.5916 8.38051 32.6788 6.17099 33.9719 5.894L33.6097 4.20302C33.4819 3.60621 34.5973 3.4713 35.9899 3.173C37.3085 2.89053 39.8948 3.73573 40.2019 3.99518C39.4012 3.00118 36.98 2.39208 35.6719 2.1762C35.7716 2.25452 35.7623 2.42291 35.6418 2.51932C35.4641 2.6614 35.2865 2.8035 34.9881 2.86742C34.6897 2.93134 33.6737 3.04494 33.2971 3.22964C32.9959 3.3774 31.9116 4.53209 31.4071 5.09097C31.3077 5.11228 30.0643 4.65037 29.6239 4.53666C29.1834 4.42296 27.4783 3.74786 26.9383 3.65545C26.3983 3.56304 26.5689 2.90231 26.7039 2.56129C26.3036 2.95913 25.4718 3.80312 25.3468 3.99637C25.1905 4.23793 25.3823 5.13318 24.7499 5.58072C24.1175 6.02825 23.1797 6.02111 22.867 6.50421C22.6169 6.89069 22.7154 7.09152 22.7959 7.14362C22.5544 6.9873 21.9704 6.59224 21.5669 6.26255C21.0625 5.85043 21.5101 5.02628 21.8228 4.54318C22.0729 4.1567 22.6612 3.60067 22.9241 3.37096C22.1639 3.7072 20.5809 4.47629 20.3308 4.86278C20.0181 5.3459 19.7268 5.92851 19.5705 6.17004C19.4141 6.41157 18.9736 6.29788 18.4763 6.40442C17.979 6.51095 16.8848 6.74533 16.4371 7.56946C15.9895 8.39359 15.3713 8.42194 15.2363 8.76296C15.1013 9.10398 15.0871 9.52317 14.7531 9.9068C14.4192 10.2904 13.4032 10.404 13.3676 10.7238C13.3321 11.0435 13.9573 11.5337 14.618 11.7043C15.2787 11.8749 19.5202 12.7349 19.7405 12.7917C19.9607 12.8486 23.4776 13.2396 23.8968 13.2538C24.3159 13.2681 25.3319 13.1545 25.6303 13.0906C25.9288 13.0266 27.7975 11.0658 28.2948 10.9593C28.7922 10.8528 29.794 9.7019 30.5542 9.85113C31.3144 10.0004 32.9271 11.2154 33.0905 11.4925C33.2212 11.7142 33.2491 12.3948 33.2467 12.7074L35.4351 12.2387C35.3972 11.9 35.5034 11.1005 36.2309 10.6117C37.1404 10.0008 40.6573 10.3918 41.4814 10.8395C42.3055 11.2871 44.707 10.3566 44.9628 10.0937C45.2186 9.83086 46.6193 8.59911 46.5757 8.39578C46.5321 8.19245 45.8297 7.82736 45.6663 7.55026C45.503 7.27316 43.9471 5.83783 43.4853 5.62468C43.0235 5.41152 42.1496 5.70275 41.5457 5.31195C40.9418 4.92114 40.7927 4.22488 40.2314 4.03299C40.274 4.23193 40.139 4.57295 40.2455 5.07029C40.3308 5.46817 40.5415 5.80448 40.6362 5.9229C40.3781 6.01288 39.795 6.26955 39.5278 6.57646C39.2607 6.88337 39.3352 7.41531 39.4059 7.64292C39.7966 8.20226 40.2847 8.9979 40.564 9.47089C41.141 9.69498 41.6875 9.92935 42.0498 10.0935C41.6804 9.82589 40.879 9.09593 40.629 8.31722C40.3164 7.34384 41.1264 6.7542 42.5829 6.7543ZM31.9399 6.12121C31.542 6.69193 30.732 7.96127 30.6751 8.47281C30.604 9.11224 30.4051 9.15485 30.0072 9.24008C29.6093 9.32531 27.4636 9.99301 26.9094 10.3198C26.6541 10.4703 26.5577 10.5684 26.5359 10.6282C26.5497 10.6543 26.5629 10.6794 26.5754 10.7034C26.5443 10.6954 26.5199 10.6722 26.5359 10.6282C26.2279 10.0435 25.633 8.95961 25.4317 8.76372C25.1689 8.50793 24.4442 8.03896 24.4585 7.61978C24.4727 7.20059 24.4017 6.38354 25.1548 6.01414C25.908 5.64475 27.8121 4.82073 28.6718 4.94868C29.5315 5.07662 31.8973 5.92227 31.9399 6.12121ZM21.7159 8.4153C21.1404 8.64259 19.8898 10.575 19.7122 10.7171C20.0461 11.79 22.8311 12.6498 23.0087 12.5078C23.1863 12.3657 25.0764 10.5044 24.6714 10.071C24.2665 9.63753 22.2914 8.18801 21.7159 8.4153ZM18.2631 6.8662C19.0375 6.59625 20.0038 7.22156 20.1032 7.20026C19.7692 9.04037 17.9431 11.2001 17.7584 10.8236C17.5737 10.447 16.3446 9.56589 16.4939 8.80568C16.6431 8.04548 17.4887 7.13615 18.2631 6.8662Z" fill="#F4A898"/>
<path opacity="0.37" d="M31.073 5.23723C32.0078 4.92563 32.5559 3.5056 32.7173 2.81966C32.7197 2.80947 32.7229 2.80003 32.7273 2.79054C32.8601 2.50415 33.1132 2.12553 33.1132 2.80474C33.1132 3.66788 31.5438 5.55109 31.3084 5.62956C31.1608 5.67878 30.4246 6.11714 29.8488 6.46805C29.7178 6.54786 29.5858 6.42438 29.6753 6.29981C29.9503 5.91686 30.4162 5.45615 31.073 5.23723Z" fill="#F4A898"/>
</g>
<path fill-rule="evenodd" clip-rule="evenodd" d="M35.6799 24.8499C36.5177 24.111 37.0461 23.0295 37.0461 21.8246C37.0461 19.5974 35.2407 17.792 33.0135 17.792C31.0947 17.792 29.4889 19.1322 29.0811 20.9276C28.3781 20.3314 27.4682 19.9718 26.4742 19.9718C24.2471 19.9718 22.4416 21.7772 22.4416 24.0044C22.4416 25.9962 23.8858 27.6508 25.7842 27.9781V34.9859H37.991V31.4982L41.5876 34.9859V25.3948L37.991 28.5555V24.8499H36.4651H35.6799ZM34.8663 21.9336C34.8663 23.017 33.988 23.8954 32.9045 23.8954C31.8211 23.8954 30.9427 23.017 30.9427 21.9336C30.9427 20.8501 31.8211 19.9718 32.9045 19.9718C33.988 19.9718 34.8663 20.8501 34.8663 21.9336ZM28.327 23.8954C28.327 24.9788 27.4487 25.8572 26.3652 25.8572C25.2817 25.8572 24.4034 24.9788 24.4034 23.8954C24.4034 22.8119 25.2817 21.9336 26.3652 21.9336C27.4487 21.9336 28.327 22.8119 28.327 23.8954Z" fill="white"/>
<path d="M66.5223 33.2987H66.4934L66.5223 33.3275C66.3491 33.5392 66.176 33.7027 66.0028 33.8182C65.8489 33.9336 65.695 34.0298 65.541 34.1068C65.3679 34.1837 65.214 34.2414 65.0793 34.2799C64.9639 34.2991 64.8484 34.3088 64.733 34.3088C64.6175 34.3088 64.4829 34.2991 64.3289 34.2799C64.1943 34.2799 64.05 34.2607 63.896 34.2222C63.5305 33.0678 63.213 31.8653 62.9437 30.6147C62.6743 29.3449 62.4434 28.1809 62.251 27.1227C62.0394 25.8914 61.8566 24.6697 61.7027 23.4576C61.5488 22.2839 61.4237 21.1103 61.3275 19.9367C61.2891 19.4365 61.241 18.917 61.1832 18.3783C61.1448 17.8396 61.1063 17.3008 61.0678 16.7621C61.0486 16.2042 61.0293 15.6655 61.0101 15.146C61.0101 14.6073 61.0197 14.107 61.0389 13.6453C61.4237 13.3759 61.8085 13.1739 62.1933 13.0392C62.5974 12.9046 62.9533 12.7987 63.2611 12.7218C63.6075 12.6448 63.9441 12.5967 64.2712 12.5775C64.1365 12.7314 64.0307 12.9911 63.9538 13.3567C63.896 13.703 63.8672 14.2032 63.8672 14.8574C63.8672 15.5115 63.896 16.3485 63.9538 17.3682C64.0115 18.3879 64.1077 19.6288 64.2424 21.0911C64.3001 21.6105 64.3578 22.1781 64.4155 22.7938C64.4925 23.4095 64.5694 24.054 64.6464 24.7274C64.7234 25.3815 64.8003 26.0453 64.8773 26.7187C64.9735 27.3728 65.0601 27.9981 65.137 28.5946C65.3102 27.5556 65.5218 26.3435 65.7719 24.9583C66.0413 23.573 66.3684 22.1396 66.7531 20.6582C67.0225 19.5807 67.2726 18.5803 67.5035 17.6568C67.7151 16.8487 67.9172 16.0695 68.1095 15.3191C68.3212 14.5496 68.4847 13.982 68.6002 13.6164C68.9657 13.4625 69.2832 13.3567 69.5525 13.299C69.7064 13.2605 69.8411 13.2316 69.9566 13.2124H70.3606C70.4953 13.2124 70.6396 13.222 70.7935 13.2413C70.9474 13.2605 71.1109 13.299 71.2841 13.3567C71.438 14.9921 71.6016 16.5505 71.7747 18.0319C71.9479 19.4942 72.1114 20.8025 72.2653 21.9569C72.4577 23.3036 72.6405 24.5446 72.8137 25.6797C72.9099 26.4493 73.0157 27.1516 73.1311 27.7865C73.2658 28.4214 73.3812 29.0082 73.4774 29.5469C73.5736 29.0275 73.6987 28.3925 73.8526 27.6422C74.0258 26.8726 74.1797 25.9395 74.3144 24.8428C74.5068 23.6692 74.6799 22.4571 74.8338 21.2065C74.9685 20.1291 75.0936 18.9362 75.209 17.6279C75.3437 16.3004 75.4495 14.9728 75.5265 13.6453C75.6804 13.5106 75.8343 13.3952 75.9882 13.299C76.1614 13.2028 76.3249 13.1162 76.4788 13.0392C76.652 12.9623 76.8252 12.8949 76.9983 12.8372C77.1715 12.7795 77.3542 12.7314 77.5466 12.6929C77.7006 12.6544 77.8737 12.6256 78.0661 12.6063C78.2585 12.5871 78.4317 12.5871 78.5856 12.6063C78.4894 13.626 78.3547 14.7516 78.1816 15.9829C78.0084 17.195 77.8352 18.3302 77.6621 19.3884C77.4504 20.6389 77.2388 21.8799 77.0272 23.1112C76.7963 24.3426 76.5366 25.5932 76.248 26.863C75.9978 27.9597 75.7092 29.1429 75.3822 30.4127C75.0743 31.6633 74.7376 32.8465 74.3721 33.9625C74.2566 34.0779 74.122 34.1549 73.9681 34.1933C73.8141 34.251 73.6602 34.2991 73.5063 34.3376C73.3331 34.3761 73.1696 34.3953 73.0157 34.3953C72.7078 34.3953 72.4674 34.3569 72.2942 34.2799C72.121 34.2222 71.9864 34.126 71.8902 33.9913C71.8132 33.8759 71.7555 33.7316 71.717 33.5584C71.6785 33.3853 71.64 33.1929 71.6016 32.9812L69.5525 18.4071L66.5223 33.2987ZM79.6823 21.7837C79.6823 21.6683 79.8362 21.5432 80.144 21.4085C80.4518 21.2738 80.7885 21.168 81.1541 21.0911C81.5389 20.9949 81.8852 20.9468 82.193 20.9468C82.5201 20.9275 82.6837 20.9949 82.6837 21.1488C82.6837 21.4374 82.6644 21.851 82.6259 22.3898C82.5875 22.9092 82.5394 23.4672 82.4816 24.0636C82.4239 24.6408 82.3662 25.2276 82.3085 25.824C82.2508 26.4012 82.2123 26.8918 82.193 27.2959C82.1546 27.7192 82.1161 28.1809 82.0776 28.6811C82.0391 29.1044 82.0103 29.5758 81.991 30.0953C81.9718 30.6147 81.9718 31.1438 81.991 31.6825C81.991 31.7787 81.8948 31.8749 81.7024 31.9711C81.51 32.0673 81.2984 32.1347 81.0675 32.1732C80.8366 32.2309 80.6154 32.2597 80.4037 32.2597C80.1921 32.2597 80.0767 32.2213 80.0574 32.1443C80.0189 32.0673 79.9805 31.9327 79.942 31.7403C79.9035 31.5479 79.865 31.2785 79.8265 30.9322C79.7881 30.5666 79.7592 30.1049 79.74 29.5469C79.7207 28.9697 79.7304 28.2771 79.7688 27.469C79.8458 25.8721 79.8554 24.6408 79.7977 23.775C79.74 22.89 79.7015 22.2262 79.6823 21.7837ZM81.7024 16.0406C82.0872 16.0406 82.4528 16.1561 82.7991 16.387C83.1454 16.6178 83.3186 16.9257 83.3186 17.3105C83.3186 17.5991 83.2416 17.878 83.0877 18.1474C82.953 18.4167 82.7798 18.6572 82.5682 18.8689C82.3566 19.0805 82.1161 19.2537 81.8467 19.3884C81.5774 19.5038 81.3272 19.5615 81.0964 19.5615C80.7885 19.5615 80.5384 19.5134 80.346 19.4172C80.1536 19.3018 79.9997 19.1767 79.8843 19.042C79.7881 18.8881 79.7207 18.7246 79.6823 18.5514C79.6438 18.3783 79.6245 18.2147 79.6245 18.0608C79.6245 17.8684 79.6534 17.6568 79.7111 17.4259C79.7688 17.1758 79.8746 16.9545 80.0286 16.7621C80.1825 16.5505 80.3941 16.3773 80.6635 16.2427C80.9328 16.108 81.2791 16.0406 81.7024 16.0406ZM80.9809 18.7246C81.0964 18.7246 81.2214 18.6861 81.3561 18.6091C81.51 18.5129 81.6447 18.4071 81.7601 18.2917C81.8948 18.1762 82.0006 18.0512 82.0776 17.9165C82.1738 17.7818 82.2219 17.6664 82.2219 17.5702C82.2219 17.4163 82.1449 17.3393 81.991 17.3393C81.8948 17.3393 81.7698 17.3778 81.6158 17.4548C81.4812 17.5317 81.3465 17.6279 81.2118 17.7434C81.0771 17.8396 80.9617 17.955 80.8655 18.0897C80.7885 18.2051 80.7501 18.3205 80.7501 18.436C80.7501 18.6284 80.827 18.7246 80.9809 18.7246ZM87.6764 31.2208C87.6571 31.3362 87.5513 31.4613 87.3589 31.596C87.1858 31.7114 86.9741 31.8172 86.724 31.9134C86.4931 32.0096 86.2719 32.0673 86.0602 32.0866C85.8486 32.1251 85.7043 32.1058 85.6273 32.0289C85.5504 31.9519 85.4253 31.8076 85.2522 31.596C85.079 31.3843 84.9732 31.038 84.9347 30.557C84.8962 30.0568 84.877 29.4315 84.877 28.6811C84.877 27.9116 84.8674 27.065 84.8481 26.1415V24.9871C84.8481 24.6408 84.8385 24.2368 84.8193 23.775C84.8193 23.3133 84.8096 22.8323 84.7904 22.332C84.9636 22.2358 85.1367 22.1493 85.3099 22.0723C85.5023 21.9761 85.6754 21.8991 85.8293 21.8414C86.0025 21.7645 86.166 21.7067 86.32 21.6683C86.724 21.5528 87.0318 21.4855 87.2435 21.4662C87.4551 21.447 87.5802 21.5143 87.6186 21.6683C87.6379 21.7837 87.6283 22.0627 87.5898 22.5052C87.5513 22.89 87.5032 23.4768 87.4455 24.2656C87.3878 25.0352 87.2916 26.1126 87.1569 27.4979C87.407 26.8822 87.609 26.3531 87.7629 25.9106C87.9361 25.4681 88.0804 25.1122 88.1958 24.8428C88.3113 24.5157 88.4171 24.256 88.5133 24.0636C88.6095 23.8135 88.7345 23.5345 88.8885 23.2267C89.0424 22.9188 89.1963 22.6302 89.3502 22.3609C89.5234 22.0915 89.6773 21.851 89.812 21.6394C89.9659 21.4278 90.0813 21.3027 90.1583 21.2642C90.216 21.2257 90.3892 21.2257 90.6778 21.2642C90.9664 21.3027 91.2742 21.3989 91.6013 21.5528C91.9283 21.6875 92.2458 21.8895 92.5536 22.1589C92.8615 22.409 93.0635 22.7168 93.1597 23.0824C93.2751 23.5057 93.3136 24.0636 93.2751 24.7562C93.2559 25.4489 93.2078 26.1607 93.1308 26.8918C93.0731 27.623 93.025 28.3156 92.9865 28.9697C92.9481 29.6239 92.9865 30.1241 93.102 30.4704C93.1404 30.6628 93.1982 30.836 93.2751 30.9899C93.3136 31.1438 93.3617 31.2881 93.4194 31.4228C93.4964 31.5382 93.5733 31.6248 93.6503 31.6825C93.1885 31.8942 92.8134 32.0481 92.5248 32.1443C92.2362 32.2405 92.0149 32.3078 91.861 32.3463C91.6686 32.404 91.5339 32.4233 91.457 32.404C91.2838 32.3463 91.1299 32.202 90.9952 31.9711C90.8798 31.7403 90.774 31.3747 90.6778 30.8745C90.6393 30.7206 90.62 30.4704 90.62 30.1241C90.6393 29.7586 90.6681 29.3545 90.7066 28.912C90.7451 28.4503 90.7836 27.9789 90.8221 27.4979C90.8798 26.9977 90.9183 26.5359 90.9375 26.1126C90.976 25.6701 91.0048 25.295 91.0241 24.9871C91.0433 24.66 91.0433 24.4388 91.0241 24.3233C90.9279 23.977 90.7932 23.7365 90.62 23.6019C90.4469 23.4479 90.3122 23.4287 90.216 23.5441C89.9659 23.8327 89.6965 24.3041 89.4079 24.9583C89.1386 25.5932 88.8788 26.2954 88.6287 27.065C88.3786 27.8154 88.167 28.5657 87.9938 29.3161C87.8207 30.0664 87.7148 30.7013 87.6764 31.2208ZM106.175 19.1575C105.964 19.119 105.675 19.0805 105.31 19.042C104.963 19.0036 104.607 18.9747 104.242 18.9555C103.819 18.9362 103.366 18.9266 102.885 18.9266C102.404 18.8881 101.798 18.8881 101.067 18.9266C100.355 18.9458 99.605 18.9555 98.8162 18.9555C98.7969 19.4557 98.7585 19.9655 98.7007 20.485C98.6623 21.0045 98.6238 21.5143 98.5853 22.0146C98.4891 22.9381 98.4025 23.8808 98.3256 24.8428C98.2678 25.8048 98.239 26.7187 98.239 27.5845C98.239 28.4503 98.2871 29.2391 98.3833 29.951C98.4987 30.6436 98.7007 31.1919 98.9893 31.596C98.7585 31.7691 98.5083 31.9038 98.239 32C97.9696 32.077 97.7291 32.1347 97.5175 32.1732C97.2674 32.2309 97.0173 32.2597 96.7671 32.2597C96.5363 32.2597 96.3439 32.1828 96.1899 32.0289C96.036 31.8749 95.9494 31.6056 95.9302 31.2208C95.8917 30.5666 95.8821 29.9125 95.9013 29.2583C95.9398 28.5849 95.9783 27.8827 96.0168 27.1516C96.0745 26.4205 96.1322 25.6413 96.1899 24.814C96.2477 23.9674 96.3054 23.0439 96.3631 22.0434C96.4208 21.0045 96.4497 19.9944 96.4497 19.0132C95.7186 19.0324 95.1029 19.042 94.6027 19.042C94.1024 19.042 93.8235 19.0324 93.7657 19.0132C93.708 18.9747 93.6407 18.8881 93.5637 18.7534C93.4868 18.638 93.3906 18.4648 93.2751 18.234C93.1404 18.0031 92.9769 17.676 92.7845 17.2527C93.1501 17.2527 93.5541 17.2527 93.9966 17.2527C94.4199 17.2527 94.8143 17.2431 95.1799 17.2239C95.6031 17.2046 96.0264 17.1854 96.4497 17.1662C96.4304 16.8583 96.4208 16.5313 96.4208 16.1849C96.4016 15.9156 96.392 15.6174 96.392 15.2903C96.392 14.944 96.3823 14.6265 96.3631 14.3379C96.3631 14.2225 96.4978 14.0878 96.7671 13.9339C97.0557 13.7607 97.3636 13.6068 97.6906 13.4721C98.0177 13.3375 98.3159 13.2509 98.5853 13.2124C98.8739 13.1739 99.0182 13.2413 99.0182 13.4144C99.0182 13.5876 99.0086 14.0108 98.9893 14.6842C98.9893 15.3384 98.9701 16.1368 98.9316 17.0796C99.124 17.0796 99.2683 17.07 99.3645 17.0507C100.384 17.0122 101.202 16.9738 101.818 16.9353C102.452 16.8776 102.972 16.8679 103.376 16.9064C103.78 16.9449 104.136 17.0411 104.444 17.195C104.752 17.3489 105.098 17.5991 105.483 17.9454C105.617 18.0608 105.733 18.1859 105.829 18.3205C105.925 18.436 106.002 18.5707 106.06 18.7246C106.137 18.8593 106.175 19.0036 106.175 19.1575ZM105.194 32.3175C103.847 32.3175 102.808 31.8653 102.077 30.9611C101.346 30.0568 100.981 28.8735 100.981 27.4113C100.981 26.3916 101.125 25.4392 101.414 24.5542C101.721 23.65 102.125 22.8707 102.626 22.2166C103.126 21.5624 103.703 21.0526 104.357 20.687C105.031 20.3022 105.733 20.1098 106.464 20.1098C107.176 20.1098 107.782 20.3696 108.282 20.8891C108.782 21.3893 109.032 22.1108 109.032 23.0535C109.032 23.6692 108.898 24.2849 108.628 24.9005C108.359 25.497 108.003 26.0357 107.561 26.5167C107.137 26.9784 106.666 27.3536 106.147 27.6422C105.627 27.9308 105.127 28.0751 104.646 28.0751C104.338 28.0751 104.078 28.0366 103.867 27.9597C103.655 27.8827 103.463 27.7673 103.289 27.6133C103.347 28.71 103.588 29.4796 104.011 29.9221C104.434 30.3454 104.983 30.557 105.656 30.557C106.118 30.557 106.522 30.4608 106.868 30.2684C107.234 30.076 107.541 29.8548 107.792 29.6047C108.042 29.3545 108.244 29.1044 108.398 28.8543C108.551 28.5849 108.657 28.3829 108.715 28.2483C108.773 28.1328 108.869 28.0751 109.004 28.0751C109.158 28.0751 109.234 28.1905 109.234 28.4214C109.234 28.633 109.158 28.9601 109.004 29.4026C108.869 29.8259 108.638 30.2588 108.311 30.7013C107.984 31.1246 107.561 31.4998 107.041 31.8268C106.541 32.1539 105.925 32.3175 105.194 32.3175ZM106.522 21.3508C106.406 21.3508 106.185 21.4759 105.858 21.726C105.55 21.9569 105.213 22.3032 104.848 22.7649C104.502 23.2267 104.174 23.7846 103.867 24.4388C103.578 25.0737 103.395 25.7952 103.318 26.6033C104.473 26.3339 105.387 25.9106 106.06 25.3334C106.733 24.7562 107.07 23.9097 107.07 22.7938C107.07 22.2358 107.003 21.8607 106.868 21.6683C106.733 21.4566 106.618 21.3508 106.522 21.3508ZM118.729 23.1401C118.729 23.4095 118.652 23.6884 118.498 23.977C118.364 24.2464 118.191 24.5061 117.979 24.7562C117.767 25.0064 117.527 25.2276 117.257 25.42C117.007 25.5932 116.767 25.699 116.536 25.7375C116.69 25.141 116.738 24.6793 116.68 24.3522C116.623 24.0251 116.526 23.7846 116.392 23.6307C116.238 23.4576 116.045 23.3614 115.814 23.3421C115.468 23.3421 115.131 23.5441 114.804 23.9482C114.497 24.333 114.227 24.814 113.996 25.3911C113.765 25.9491 113.583 26.5552 113.448 27.2093C113.313 27.8442 113.246 28.4214 113.246 28.9409C113.227 29.3064 113.236 29.6624 113.275 30.0087C113.294 30.2973 113.323 30.5955 113.361 30.9033C113.419 31.2112 113.496 31.4517 113.592 31.6248C113.477 31.721 113.284 31.8365 113.015 31.9711C112.765 32.1058 112.496 32.1924 112.207 32.2309C111.938 32.2694 111.688 32.2213 111.457 32.0866C111.245 31.9519 111.13 31.6633 111.11 31.2208C111.072 30.7975 111.043 30.3261 111.024 29.8067C111.024 29.268 111.024 28.7389 111.024 28.2194C111.043 27.6807 111.062 27.1516 111.082 26.6321C111.101 26.1126 111.13 25.6316 111.168 25.1891C111.207 24.3426 111.226 23.6884 111.226 23.2267C111.226 22.7649 111.216 22.3224 111.197 21.8991C111.197 21.8222 111.322 21.7164 111.572 21.5817C111.841 21.4278 112.13 21.2931 112.438 21.1776C112.765 21.0622 113.063 20.9949 113.333 20.9756C113.602 20.9564 113.737 21.0141 113.737 21.1488C113.737 21.3604 113.708 21.7837 113.65 22.4186C113.612 23.0343 113.554 23.6788 113.477 24.3522C113.612 23.9866 113.785 23.5922 113.996 23.169C114.227 22.7457 114.487 22.3513 114.776 21.9857C115.064 21.6202 115.391 21.3219 115.757 21.0911C116.122 20.841 116.526 20.7159 116.969 20.7159C117.315 20.7159 117.594 20.8217 117.806 21.0333C118.037 21.245 118.219 21.4855 118.354 21.7548C118.489 22.0242 118.585 22.2936 118.643 22.5629C118.7 22.8323 118.729 23.0247 118.729 23.1401ZM126.618 16.0406C126.503 15.9252 126.416 15.8001 126.359 15.6655C126.301 15.5115 126.253 15.3576 126.214 15.2037C126.176 15.0306 126.147 14.8574 126.128 14.6842C126.109 14.5303 126.109 14.3764 126.128 14.2225C126.128 13.9339 126.185 13.7126 126.301 13.5587C126.513 13.5202 126.743 13.4818 126.994 13.4433C127.244 13.3856 127.484 13.3375 127.715 13.299C127.984 13.2605 128.263 13.222 128.552 13.1835C128.706 13.0296 128.908 12.8661 129.158 12.6929C129.427 12.5005 129.726 12.3274 130.053 12.1734C130.303 12.058 130.476 12.058 130.572 12.1734C130.668 12.2889 130.736 12.5294 130.774 12.8949C131.255 12.8565 131.755 12.818 132.275 12.7795C132.794 12.741 133.333 12.7218 133.891 12.7218C134.641 12.7025 135.344 12.6833 135.998 12.6641C136.556 12.6448 137.114 12.6448 137.672 12.6641C138.249 12.6641 138.691 12.6737 138.999 12.6929C139.153 12.7122 139.268 12.8276 139.345 13.0392C139.442 13.2316 139.471 13.4914 139.432 13.8184C139.413 14.1263 139.317 14.463 139.143 14.8285C138.97 15.1941 138.711 15.55 138.364 15.8963C137.902 15.8001 137.412 15.7232 136.892 15.6655C136.392 15.6077 135.93 15.5596 135.507 15.5212C135.007 15.4827 134.526 15.4731 134.064 15.4923C133.506 15.4923 132.948 15.5115 132.39 15.55C131.832 15.5693 131.303 15.5981 130.803 15.6366C130.784 16.5024 130.765 17.5125 130.745 18.6669C130.745 19.802 130.736 21.0622 130.716 22.4475C130.986 22.409 131.246 22.3898 131.496 22.3898C131.746 22.3705 132.005 22.3513 132.275 22.332C132.967 22.2936 133.641 22.2551 134.295 22.2166C134.949 22.1781 135.517 22.1974 135.998 22.2743C136.498 22.332 136.873 22.4763 137.123 22.7072C137.373 22.9381 137.431 23.3036 137.296 23.8039L136.892 25.1891C136.854 25.0929 136.748 25.016 136.575 24.9583C136.421 24.8813 136.238 24.8236 136.027 24.7851C135.796 24.7274 135.536 24.6793 135.247 24.6408C134.574 24.5638 133.833 24.5542 133.025 24.6119C132.217 24.6697 131.438 24.7562 130.688 24.8717C130.688 25.8337 130.697 26.7476 130.716 27.6133C130.755 28.4599 130.793 29.2295 130.832 29.9221C130.89 30.6147 130.938 31.2112 130.976 31.7114C131.015 32.2116 131.044 32.5868 131.063 32.8369C131.082 33.0101 131.063 33.1448 131.005 33.241C130.909 33.3564 130.793 33.4911 130.659 33.645C130.524 33.7989 130.351 33.9528 130.139 34.1068C129.928 34.2607 129.668 34.3857 129.36 34.4819C129.071 34.5974 128.735 34.6647 128.35 34.6839C128.177 34.6839 128.09 34.5974 128.09 34.4242V25.4777C127.763 25.4585 127.465 25.2084 127.196 24.7274C126.926 24.2464 126.801 23.7077 126.82 23.1112C126.955 23.0728 127.09 23.0439 127.224 23.0247C127.378 23.0054 127.523 22.9766 127.657 22.9381C127.811 22.8996 127.956 22.8707 128.09 22.8515C128.09 21.4662 128.1 20.1772 128.119 18.9843C128.138 17.7722 128.167 16.7333 128.206 15.8675C128.032 15.8867 127.85 15.906 127.657 15.9252C127.503 15.9444 127.33 15.9637 127.138 15.9829C126.945 16.0022 126.772 16.0214 126.618 16.0406ZM139.057 21.7837C139.057 21.6683 139.211 21.5432 139.519 21.4085C139.826 21.2738 140.163 21.168 140.529 21.0911C140.913 20.9949 141.26 20.9468 141.568 20.9468C141.895 20.9275 142.058 20.9949 142.058 21.1488C142.058 21.4374 142.039 21.851 142.001 22.3898C141.962 22.9092 141.914 23.4672 141.856 24.0636C141.799 24.6408 141.741 25.2276 141.683 25.824C141.625 26.4012 141.587 26.8918 141.568 27.2959C141.529 27.7192 141.491 28.1809 141.452 28.6811C141.414 29.1044 141.385 29.5758 141.366 30.0953C141.346 30.6147 141.346 31.1438 141.366 31.6825C141.366 31.7787 141.269 31.8749 141.077 31.9711C140.885 32.0673 140.673 32.1347 140.442 32.1732C140.211 32.2309 139.99 32.2597 139.778 32.2597C139.567 32.2597 139.451 32.2213 139.432 32.1443C139.394 32.0673 139.355 31.9327 139.317 31.7403C139.278 31.5479 139.24 31.2785 139.201 30.9322C139.163 30.5666 139.134 30.1049 139.115 29.5469C139.095 28.9697 139.105 28.2771 139.143 27.469C139.22 25.8721 139.23 24.6408 139.172 23.775C139.115 22.89 139.076 22.2262 139.057 21.7837ZM141.077 16.0406C141.462 16.0406 141.827 16.1561 142.174 16.387C142.52 16.6178 142.693 16.9257 142.693 17.3105C142.693 17.5991 142.616 17.878 142.462 18.1474C142.328 18.4167 142.154 18.6572 141.943 18.8689C141.731 19.0805 141.491 19.2537 141.221 19.3884C140.952 19.5038 140.702 19.5615 140.471 19.5615C140.163 19.5615 139.913 19.5134 139.721 19.4172C139.528 19.3018 139.374 19.1767 139.259 19.042C139.163 18.8881 139.095 18.7246 139.057 18.5514C139.018 18.3783 138.999 18.2147 138.999 18.0608C138.999 17.8684 139.028 17.6568 139.086 17.4259C139.143 17.1758 139.249 16.9545 139.403 16.7621C139.557 16.5505 139.769 16.3773 140.038 16.2427C140.307 16.108 140.654 16.0406 141.077 16.0406ZM140.356 18.7246C140.471 18.7246 140.596 18.6861 140.731 18.6091C140.885 18.5129 141.019 18.4071 141.135 18.2917C141.269 18.1762 141.375 18.0512 141.452 17.9165C141.548 17.7818 141.597 17.6664 141.597 17.5702C141.597 17.4163 141.52 17.3393 141.366 17.3393C141.269 17.3393 141.144 17.3778 140.99 17.4548C140.856 17.5317 140.721 17.6279 140.586 17.7434C140.452 17.8396 140.336 17.955 140.24 18.0897C140.163 18.2051 140.125 18.3205 140.125 18.436C140.125 18.6284 140.202 18.7246 140.356 18.7246ZM147.801 13.299C147.763 13.9916 147.695 14.7901 147.599 15.6943C147.503 16.5986 147.397 17.5702 147.282 18.6091C147.186 19.6481 147.08 20.7351 146.964 21.8703C146.868 23.0054 146.782 24.1502 146.705 25.3046C146.628 26.459 146.589 27.4017 146.589 28.1328C146.608 28.8447 146.657 29.4315 146.734 29.8932C146.81 30.355 146.916 30.7206 147.051 30.9899C147.186 31.2593 147.359 31.519 147.57 31.7691C147.32 31.923 147.089 32.0385 146.878 32.1154C146.666 32.1924 146.483 32.2501 146.329 32.2886C146.137 32.3463 145.964 32.3752 145.81 32.3752C145.521 32.3752 145.271 32.2405 145.06 31.9711C144.848 31.6825 144.675 31.317 144.54 30.8745C144.425 30.432 144.329 29.9413 144.252 29.4026C144.194 28.8447 144.165 28.2964 144.165 27.7576C144.165 27.1804 144.184 26.5167 144.223 25.7663C144.261 24.9967 144.3 24.1887 144.338 23.3421C144.396 22.4763 144.454 21.5817 144.511 20.6582C144.569 19.7154 144.617 18.7823 144.656 17.8588C144.694 17.1469 144.733 16.5024 144.771 15.9252C144.81 15.425 144.838 14.9728 144.858 14.5688C144.877 14.1455 144.867 13.8954 144.829 13.8184C144.944 13.6645 145.089 13.5491 145.262 13.4721C145.435 13.3952 145.598 13.3278 145.752 13.2701C145.945 13.2124 146.137 13.1643 146.329 13.1258H146.878C147.032 13.1258 147.195 13.1451 147.368 13.1835C147.542 13.2028 147.686 13.2413 147.801 13.299ZM155.536 22.9958C155.382 22.9958 155.209 23.0824 155.016 23.2555C154.843 23.4095 154.67 23.6307 154.497 23.9193C154.324 24.1887 154.15 24.4965 153.977 24.8428C153.804 25.1699 153.65 25.5066 153.516 25.8529C153.188 26.661 152.871 27.4883 152.563 28.3348C152.255 29.1814 152.073 29.9125 152.015 30.5282C151.996 30.5859 151.986 30.6436 151.986 30.7013C151.986 30.7398 151.986 30.7783 151.986 30.8168C151.967 30.8552 151.957 30.913 151.957 30.9899C151.919 31.2593 151.861 31.4805 151.784 31.6537C151.726 31.8076 151.592 31.9134 151.38 31.9711C151.149 32.0096 150.918 32.0385 150.687 32.0577C150.456 32.077 150.235 32.0577 150.024 32C149.889 31.9615 149.783 31.8942 149.706 31.798C149.648 31.6825 149.6 31.5575 149.562 31.4228C149.543 31.2689 149.523 31.1246 149.504 30.9899C149.504 30.8552 149.504 30.7398 149.504 30.6436C149.504 30.5282 149.514 30.1722 149.533 29.5758C149.552 28.9601 149.571 28.2675 149.591 27.4979C149.61 26.7283 149.619 25.978 149.619 25.2469C149.619 24.4965 149.61 23.9289 149.591 23.5441C149.552 23.2748 149.514 23.0247 149.475 22.7938C149.437 22.5821 149.389 22.3705 149.331 22.1589C149.292 21.9472 149.225 21.7645 149.129 21.6105C149.34 21.4951 149.552 21.3989 149.764 21.3219C149.975 21.245 150.168 21.1873 150.341 21.1488C150.553 21.0911 150.745 21.0526 150.918 21.0333C151.38 20.9949 151.736 20.9949 151.986 21.0333C152.255 21.0718 152.39 21.2738 152.39 21.6394C152.39 21.9665 152.361 22.4763 152.303 23.169C152.265 23.8424 152.217 24.7851 152.159 25.9972C152.371 25.5162 152.621 24.9775 152.909 24.3811C153.198 23.7654 153.506 23.1978 153.833 22.6783C154.16 22.1396 154.497 21.6971 154.843 21.3508C155.189 20.9852 155.516 20.8025 155.824 20.8025C156.036 20.8025 156.276 20.8506 156.546 20.9468C156.834 21.0237 157.104 21.1392 157.354 21.2931C157.604 21.4278 157.825 21.5817 158.018 21.7548C158.229 21.928 158.374 22.1012 158.451 22.2743C158.527 22.4667 158.576 22.7649 158.595 23.169C158.614 23.573 158.614 24.0251 158.595 24.5254C158.749 24.1598 158.922 23.8039 159.114 23.4576C159.307 23.1112 159.499 22.7938 159.691 22.5052C159.903 22.1974 160.115 21.9376 160.326 21.726C160.538 21.5143 160.73 21.37 160.904 21.2931C161.134 21.1969 161.413 21.1776 161.741 21.2354C162.068 21.2931 162.385 21.3989 162.693 21.5528C163.02 21.6875 163.299 21.851 163.53 22.0434C163.78 22.2358 163.934 22.4186 163.992 22.5918C164.049 22.7842 164.097 23.0824 164.136 23.4864C164.174 23.8905 164.203 24.333 164.222 24.814C164.242 25.295 164.251 25.7952 164.251 26.3147C164.251 26.8149 164.242 27.2574 164.222 27.6422C164.184 28.7581 164.194 29.6431 164.251 30.2973C164.309 30.9322 164.54 31.4036 164.944 31.7114C164.675 31.8846 164.424 32.0096 164.194 32.0866C163.963 32.1828 163.761 32.2501 163.588 32.2886C163.376 32.3463 163.193 32.3752 163.039 32.3752C162.828 32.3752 162.654 32.3175 162.52 32.202C162.385 32.1058 162.279 31.9711 162.202 31.798C162.125 31.6248 162.077 31.4324 162.058 31.2208C162.039 31.0092 162.029 30.7975 162.029 30.5859C162.029 30.3935 162.039 30.076 162.058 29.6335C162.096 29.1718 162.125 28.6523 162.145 28.0751C162.164 27.4979 162.164 26.9111 162.145 26.3147C162.125 25.699 162.077 25.141 162 24.6408C161.943 24.1213 161.837 23.6981 161.683 23.371C161.529 23.0439 161.317 22.8804 161.048 22.8804C160.817 22.8804 160.596 23.0247 160.384 23.3133C160.172 23.5826 159.97 23.9482 159.778 24.4099C159.586 24.8524 159.412 25.3527 159.259 25.9106C159.124 26.4493 158.999 26.988 158.883 27.5268C158.768 28.0655 158.681 28.5657 158.624 29.0275C158.566 29.47 158.537 29.8259 158.537 30.0953L158.508 29.8355C158.508 30.2011 158.508 30.5378 158.508 30.8456C158.527 31.1535 158.547 31.4613 158.566 31.7691C158.585 31.8846 158.479 31.9808 158.248 32.0577C158.018 32.1539 157.758 32.1924 157.469 32.1732C157.2 32.1732 156.95 32.1154 156.719 32C156.488 31.8846 156.373 31.6922 156.373 31.4228C156.373 31.2304 156.373 30.9418 156.373 30.557C156.373 30.1722 156.363 29.7393 156.344 29.2583C156.344 28.7773 156.334 28.2771 156.315 27.7576C156.315 27.2189 156.305 26.7091 156.286 26.2281C156.286 25.8625 156.276 25.4873 156.257 25.1026C156.257 24.7178 156.238 24.3714 156.199 24.0636C156.161 23.7365 156.084 23.4768 155.969 23.2844C155.872 23.092 155.728 22.9958 155.536 22.9958ZM171.004 26.5167C171.428 26.6706 171.832 26.8149 172.217 26.9496C172.601 27.0842 172.938 27.2478 173.227 27.4402C173.515 27.6326 173.746 27.8635 173.919 28.1328C174.092 28.3829 174.179 28.7004 174.179 29.0852C174.179 29.5469 174.073 29.9798 173.862 30.3839C173.669 30.7879 173.381 31.1438 172.996 31.4517C172.611 31.7595 172.14 32 171.582 32.1732C171.043 32.3656 170.437 32.4618 169.763 32.4618C169.013 32.4618 168.407 32.3848 167.945 32.2309C167.484 32.0962 167.128 31.9327 166.878 31.7403C166.627 31.5479 166.464 31.3555 166.387 31.1631C166.31 30.9707 166.271 30.8168 166.271 30.7013C166.271 30.4704 166.32 30.2203 166.416 29.951C166.512 29.6624 166.695 29.3545 166.964 29.0275C167.08 28.8928 167.205 28.7677 167.339 28.6523C167.609 28.4214 167.878 28.2771 168.147 28.2194C168.109 28.6619 168.157 29.0275 168.292 29.3161C168.446 29.5854 168.638 29.797 168.869 29.951C169.119 30.1049 169.388 30.2107 169.677 30.2684C169.985 30.3261 170.273 30.355 170.543 30.355C170.812 30.355 171.081 30.3165 171.351 30.2396C171.639 30.1626 171.899 30.0664 172.13 29.951C172.361 29.8163 172.544 29.672 172.678 29.5181C172.832 29.3449 172.909 29.1621 172.909 28.9697C172.909 28.7581 172.823 28.5849 172.649 28.4503C172.476 28.3156 172.255 28.2098 171.986 28.1328C171.736 28.0366 171.457 27.9693 171.149 27.9308C170.86 27.8731 170.581 27.8154 170.312 27.7576C170.042 27.6999 169.677 27.623 169.215 27.5268C168.773 27.4113 168.33 27.2382 167.888 27.0073C167.464 26.7764 167.089 26.4686 166.762 26.0838C166.454 25.699 166.3 25.1891 166.3 24.5542C166.3 23.8231 166.483 23.1882 166.849 22.6495C167.233 22.0915 167.695 21.6298 168.234 21.2642C168.792 20.8794 169.379 20.5908 169.994 20.3984C170.61 20.206 171.158 20.1098 171.639 20.1098C171.889 20.1098 172.159 20.1483 172.447 20.2253C172.736 20.283 173.005 20.3984 173.255 20.5716C173.506 20.7255 173.708 20.9372 173.862 21.2065C174.035 21.4759 174.121 21.8222 174.121 22.2455C174.121 22.6687 174.083 23.015 174.006 23.2844C173.948 23.5345 173.852 23.7365 173.717 23.8905C173.602 24.0251 173.458 24.1117 173.284 24.1502C173.111 24.1887 172.909 24.2079 172.678 24.2079C172.524 24.2079 172.38 24.1887 172.245 24.1502C172.13 24.1117 172.005 24.0732 171.87 24.0347C171.736 23.9963 171.61 23.9289 171.495 23.8327C171.687 23.6019 171.832 23.3806 171.928 23.169C172.043 22.9573 172.101 22.6976 172.101 22.3898C172.101 22.1204 172.024 21.8799 171.87 21.6683C171.736 21.4566 171.505 21.3508 171.178 21.3508C170.831 21.3508 170.495 21.4181 170.168 21.5528C169.86 21.6875 169.581 21.8703 169.331 22.1012C169.1 22.332 168.907 22.6014 168.753 22.9092C168.619 23.1978 168.551 23.5153 168.551 23.8616C168.551 24.3811 168.744 24.8717 169.129 25.3334C169.533 25.7952 170.158 26.1896 171.004 26.5167Z" fill="#090720"/>
<defs>
<linearGradient id="paint0_linear_110_171" x1="25.7372" y1="4.60948" x2="25.7372" y2="44" gradientUnits="userSpaceOnUse">
<stop stop-color="#4CB6CE"/>
<stop offset="1" stop-color="#3D9FCA"/>
</linearGradient>
</defs>
</svg>
