<svg width="774" height="337" viewBox="0 0 774 337" fill="none" xmlns="http://www.w3.org/2000/svg">
<path d="M263.571 160.46C270.107 164.795 265.488 174.533 272.8 179.166C272.8 177.284 272.8 176.126 272.8 174.876C276.742 174.023 277.739 176.59 278.979 179.211C279.816 180.979 281.261 182.45 282.433 184.05C283.438 182.305 284.625 180.644 285.378 178.8C286.085 177.07 285.918 174.861 286.93 173.405C287.615 172.415 289.662 172.361 291.092 171.889C290.902 173.184 291.168 174.914 290.43 175.706C287.668 178.693 287.196 182.282 288.604 185.543C289.35 187.273 292.165 188.751 294.257 189.117C298.168 189.803 301.402 187.86 303.533 184.484C304.4 183.105 304.666 181.337 305.595 180.012C306.432 178.823 307.794 178 308.927 177.025C309.27 178.51 310.342 180.354 309.825 181.413C308.25 184.629 306.097 187.562 304.065 190.542C303.533 191.327 302.627 191.86 301.052 193.247C305.8 193.46 309.62 193.643 313.439 193.81C317 193.963 318.149 195.433 316.437 198.527C315.433 200.348 313.47 201.834 311.613 202.916C310.038 203.838 307.969 203.876 306.173 204.47C302.909 205.552 302.277 207.312 303.806 210.391C305.777 214.36 307.832 218.3 309.582 222.368C313.98 232.571 313.371 242.141 304.879 251.163C320.675 251.132 335.376 248.488 349.985 244.259C347.892 244.084 345.807 243.901 343.083 243.665C343.958 242.4 344.316 241.288 344.894 241.158C348.28 240.381 349.247 237.646 350.388 234.948C353.781 226.933 360.226 223.313 368.558 222.742C375.847 222.239 382.923 220.989 389.201 217.05C395.714 212.966 400.979 207.838 399.762 199.274C399.313 196.112 397.768 193.056 396.467 190.062C394.466 185.459 392.237 180.956 390.03 176.255C385.168 179.707 380.679 177.23 375.763 173.68C378.221 172.552 380.222 171.638 382.193 170.739C381.234 167.035 379.02 165.428 375.292 165.031C370.658 164.544 365.994 163.751 361.535 162.433C353.835 160.163 348.105 155.233 344.171 148.314C344.362 148.009 344.552 147.697 344.742 147.392C346.378 148.352 348.06 149.229 349.627 150.288C350.776 151.065 351.636 152.444 352.861 152.863C354.033 153.267 355.501 152.772 356.848 152.673C356.536 151.476 356.582 149.93 355.828 149.145C353.865 147.088 351.415 145.404 354.474 141.358C356.3 143.788 358.111 145.922 359.595 148.253C361.01 150.486 361.892 153.069 363.407 155.225C364.206 156.353 365.849 156.886 367.105 157.686C367.31 157.435 367.508 157.183 367.713 156.924C367.371 155.903 367.036 154.89 366.283 152.627C368.626 153.198 370.376 153.282 371.731 154.067C372.842 154.715 373.329 156.338 374.341 157.26C375.535 158.342 376.988 159.134 378.328 160.048C378.86 158.463 379.644 156.909 379.857 155.279C380.047 153.808 379.431 152.254 379.492 150.752C379.537 149.549 379.75 148.078 380.481 147.263C381.173 146.493 382.634 146.425 383.76 146.051C383.89 147.187 384.247 148.36 384.095 149.457C383.928 150.661 382.992 151.781 382.901 152.977C382.467 158.38 384.643 161.687 388.698 162.113C393.157 162.578 398.088 158.814 398.948 154.242C399.275 152.497 399.313 150.676 399.853 149.008C400.188 147.987 401.23 147.194 401.953 146.303C402.577 147.141 403.756 148.002 403.726 148.825C403.635 151.659 403.452 154.578 402.653 157.267C402.029 159.37 400.447 161.184 398.78 163.988C403.406 162.967 407.393 162.205 411.312 161.191C414.127 160.467 415.048 161.679 415.04 164.224C415.033 167.493 413.252 169.611 410.589 171.234C402.501 176.171 402.44 176.255 408.74 183.25C414.203 189.323 419.727 195.327 420.61 203.967C420.861 206.451 420.648 208.989 420.648 212.265C426.507 211.404 432.518 210.939 438.308 209.568C446.777 207.564 455.086 204.851 463.494 202.565C465.921 201.902 466.568 200.76 465.282 198.321C463.372 198.321 461.378 198.321 458.053 198.321C459.659 196.691 460.488 195.853 461.31 195.007C462.322 193.963 463.897 193.071 464.254 191.837C467.557 180.431 475.972 176.476 486.838 175.486C495.169 174.724 502.451 171.302 508.333 165.245C513.781 159.637 514.815 153.137 511.46 146.044C510.646 144.329 509.634 142.714 508.683 141.06C507.48 138.973 506.096 136.976 505.084 134.805C504.148 132.793 503.592 130.599 502.786 128.252C497.551 132.45 492.932 130.134 487.895 126.759C490.223 125.593 492.179 124.602 494.172 123.604C492.887 119.771 490.604 118.385 486.602 118.202C478.765 117.851 470.798 117.036 464.209 112.137C460.83 109.622 457.97 106.407 454.873 103.511C455.147 103.085 455.421 102.65 455.695 102.224C457.034 102.788 458.464 103.199 459.689 103.938C461.196 104.852 462.406 106.376 463.996 107.001C465.099 107.435 466.628 106.803 467.968 106.651C467.618 105.454 467.618 103.915 466.849 103.115C463.554 99.7016 463.471 99.7854 464.749 95.4118C466.834 97.6367 468.728 99.2825 470.136 101.271C471.665 103.42 472.518 106.056 474.085 108.167C475.082 109.508 476.847 110.285 478.415 111.42C478.696 109.211 478.879 107.801 479.061 106.392C480.735 107.032 482.592 107.413 484.03 108.403C485.217 109.218 485.772 110.918 486.883 111.908C487.621 112.563 488.922 113.036 489.843 112.868C490.398 112.769 491.053 111.299 491.06 110.438C491.076 108.167 490.657 105.889 490.634 103.618C490.627 102.429 490.764 100.959 491.456 100.128C492.088 99.3664 493.549 99.2902 494.637 98.9168C494.804 100.029 495.139 101.142 495.116 102.254C495.055 104.807 494.287 107.466 494.789 109.874C495.664 114.08 499.658 115.878 503.6 114.148C507.427 112.472 510.007 109.706 510.235 105.226C510.318 103.588 510.486 101.911 510.927 100.342C511.163 99.5035 512.069 98.8482 512.677 98.1091C513.301 98.8101 514.229 99.4121 514.496 100.227C515.957 104.654 514.724 108.693 512.419 112.518C511.848 113.47 511.277 114.423 510.25 116.145C514.861 114.925 518.703 113.935 522.538 112.891C525.582 112.061 527.37 113.257 526.708 116.259C526.251 118.331 524.851 120.32 523.474 122.027C522.576 123.147 520.971 123.696 519.693 124.526C515.493 127.254 515.348 128.907 518.741 132.443C522.333 136.192 526.122 139.818 529.265 143.933C534.804 151.194 536.151 159.241 532.559 167.942C532.027 169.237 532.186 171.112 532.742 172.415C532.955 172.918 535.222 172.849 536.447 172.56C551.383 169.07 564.882 162.212 578.304 154.524C578.174 153.816 578.053 153.115 577.916 152.414C577.779 151.69 577.634 150.966 577.421 149.876C575.329 149.876 573.274 149.876 570.725 149.876C571.273 148.741 571.456 147.689 571.874 147.583C575.732 146.6 576.5 143.24 577.733 140.238C580.807 132.755 586.742 129.105 594.427 128.244C602.713 127.322 610.618 125.616 617.504 120.511C626.308 113.981 628.18 105.965 622.998 96.2423C620.343 91.2515 617.763 86.2227 615.062 81.049C610.39 84.2263 605.756 82.6339 600.948 78.7174C603.261 77.5897 605.231 76.6297 607.156 75.7001C605.81 71.6922 603.268 70.5112 599.342 70.2521C589.519 69.6045 579.901 67.8672 572.696 60.1258C571.083 58.3961 569.706 56.4455 568.214 54.6016C568.427 54.2968 568.64 53.992 568.853 53.6796C570.284 54.3959 571.775 55.013 573.114 55.8664C574.393 56.6741 575.389 58.0913 576.744 58.5714C578.007 59.0133 579.582 58.579 581.028 58.5257C580.662 57.2608 580.7 55.5236 579.863 54.8226C577.824 53.1082 576.447 51.4547 577.969 47.7288C579.757 49.3289 581.598 50.5099 582.785 52.1633C584.246 54.1977 584.916 56.8036 586.369 58.8457C587.632 60.6134 589.511 61.9392 591.117 63.4631C591.467 63.1659 591.817 62.8764 592.159 62.5792C591.771 61.4896 591.383 60.4001 590.919 59.0819C594.153 57.0627 595.933 59.1733 597.934 61.2077C599.395 62.6859 601.221 63.806 602.88 65.0861C603.245 62.8688 603.717 60.6591 603.938 58.4266C604.09 56.8036 603.413 54.9216 604.014 53.5653C604.539 52.3919 606.342 51.7824 607.575 50.929C607.773 52.2167 608.503 53.7253 608.077 54.7616C606.259 59.1428 607.575 64.8499 611.067 66.3814C615.252 68.2177 621.332 65.1318 622.869 60.1943C623.424 58.4114 623.173 56.3769 623.713 54.5863C624.147 53.1691 625.22 51.95 626.011 50.6394C626.757 51.9271 628.104 53.2072 628.126 54.5178C628.172 56.9713 627.731 59.5314 626.962 61.8706C626.262 63.9889 624.855 65.8709 623.401 68.4996C627.807 67.3643 631.695 66.389 635.568 65.3604C638.748 64.5146 640.057 65.2918 639.555 68.4996C639.228 70.5721 637.98 72.6599 636.656 74.359C635.705 75.5858 633.962 76.1953 632.57 77.0716C628.629 79.5327 628.347 81.3462 631.413 84.6149C633.498 86.8322 635.636 89.0038 637.691 91.2516C644.873 99.1378 650.595 108.175 643.922 123.025C659.817 118.971 673.681 111.588 688.229 103.001C685.041 103.001 682.918 103.001 680.247 103.001C680.833 101.843 681.038 100.646 681.586 100.471C684.927 99.374 685.52 96.4709 686.357 93.6974C688.921 85.1635 695.16 80.9195 703.477 79.5175C711.383 78.1764 718.695 75.6772 724.797 70.3055C733.669 62.4878 734.544 54.5711 727.932 44.7572C724.995 40.4064 722.423 35.8118 719.562 31.1258C715.157 34.6841 710.363 33.3812 705.28 29.9524C707.395 28.7333 709.267 27.6513 711.177 26.5465C709.754 22.6681 707.182 21.7233 703.317 21.4719C696.819 21.0528 690.238 20.1461 683.968 18.4317C678.398 16.9154 674.213 12.8237 670.957 8.05385C671.132 7.73383 671.314 7.42143 671.489 7.10141C673.49 8.11481 675.522 9.09011 677.485 10.1721C678.482 10.7131 679.304 11.856 680.316 12.0008C681.457 12.1684 682.72 11.5284 683.922 11.2312C683.557 10.0883 683.534 8.58722 682.773 7.86336C680.818 6.00419 677.866 4.78507 680.46 0.213347C682.644 2.49159 684.691 4.33552 686.387 6.46137C688.039 8.52626 689.157 11.0178 690.846 13.037C691.691 14.0428 693.273 14.4238 695.389 15.5439C694.772 13.3875 694.453 12.2675 694.08 10.9721C697.299 8.95295 699.147 10.9645 701.248 12.8999C702.678 14.2181 704.55 15.0486 706.231 16.1001C706.49 14.0885 706.909 12.077 706.954 10.0654C706.992 8.191 706.148 6.17944 706.597 4.46505C706.886 3.36783 708.818 2.70493 710.013 1.84393C710.256 3.04781 711.055 4.51076 710.644 5.40987C708.91 9.18916 709.998 12.7094 712.394 15.2162C713.772 16.6563 717.18 17.2506 719.25 16.6792C722.91 15.6734 725.436 12.7551 726.075 8.76247C726.357 7.02521 726.014 5.17366 726.349 3.45165C726.585 2.23252 727.49 1.15055 728.099 0C728.982 1.07435 730.351 2.01918 730.656 3.2383C731.736 7.54334 730.344 11.4979 728.213 15.2238C727.841 15.8715 727.475 16.5268 726.608 18.0583C731.302 16.5115 735.267 15.4067 739.056 13.8828C742.13 12.6484 743.309 13.9971 743.013 16.6334C742.777 18.7441 741.841 20.9232 740.684 22.7367C739.855 24.0396 738.15 24.7863 736.834 25.7693C732.809 28.7942 732.748 30.3486 736.378 33.7469C739.893 37.0386 743.576 40.193 746.771 43.7742C753.254 51.028 755.461 59.3257 751.999 68.7815C750.72 72.2713 752.075 73.9171 755.757 73.4447C759.394 72.9799 762.986 72.0656 766.63 71.8294C771.873 71.4865 774.772 75.0219 773.821 80.2566C772.931 85.2016 772.444 90.2915 770.853 95.008C769.004 100.509 764.728 104.372 759.988 107.74C757.195 102.932 757.644 101.424 762.035 99.1911C762.765 98.8178 763.617 98.132 763.853 97.4158C765.413 92.5316 767.285 87.678 768.137 82.6567C768.799 78.7555 766.22 77.3154 763.039 79.708C757.743 83.693 751.945 86.1922 745.508 87.4037C744.785 87.5408 744.017 87.8761 743.439 88.3333C735.936 94.2384 727.148 97.3167 718.284 100.456C715.453 101.462 712.364 104.418 711.299 107.214C707.959 115.946 701.491 120.526 693.083 122.911C690.253 123.718 688.708 124.899 687.727 127.818C684.927 136.153 681.289 144.108 674.358 150.006C673.886 150.41 673.361 150.745 672.882 151.103C669.435 147.301 669.952 144.466 674.114 142.424C675.37 141.815 676.61 140.71 677.31 139.514C680.582 133.921 681.373 127.795 680.255 121.501C679.654 118.118 679.988 116.297 684.044 115.985C688.655 115.634 690.154 110.849 687.94 106.27C673.658 112.563 659.399 118.857 644.775 125.303C646.274 125.471 647.993 125.898 649.682 125.799C653.076 125.6 656.469 124.686 659.825 124.861C664.192 125.082 667.076 129.54 665.942 133.791C664.55 139.003 663.5 144.428 661.248 149.259C658.942 154.197 654.491 157.587 649.758 160.513C647.559 155.606 648.13 154.059 652.498 152.017C653.16 151.705 653.989 151.255 654.248 150.661C656.218 146.051 658.668 141.533 659.787 136.71C660.806 132.306 657.968 130.53 654.232 132.976C649.34 136.184 644.158 138.173 638.376 138.782C637.135 138.912 635.773 139.194 634.761 139.849C626.78 145.053 617.969 147.949 608.724 149.914C605.49 150.6 602.606 152.406 601.298 155.85C597.782 165.062 590.227 169.039 581.286 170.792C578.616 171.318 577.451 172.453 576.477 174.739C573.236 182.374 569.302 189.589 562.858 195.091C562.188 195.662 561.465 196.188 560.735 196.683C560.438 196.881 560.042 196.934 559.708 197.041C556.641 193.277 557.455 190.168 561.724 188.553C562.903 188.103 564.159 187.281 564.866 186.275C568.831 180.621 569.964 174.198 569.371 167.447C569.127 164.689 569.622 163.218 572.909 163.188C576.934 163.142 578.258 161.336 578.501 157.023C567.75 161.93 556.9 166.875 546.567 171.592C553.59 173.078 555.454 177.063 552.456 184.538C551.163 187.761 550.729 191.319 549.725 194.679C549.268 196.203 548.69 197.879 547.64 198.999C544.703 202.154 541.492 205.057 538.106 208.326C535.717 202.619 536.242 201.255 540.708 199.22C541.256 198.969 541.85 198.596 542.184 198.116C545.372 193.452 547.952 188.538 547.648 182.655C547.465 179.227 545.7 177.931 543.014 179.76C537.315 183.654 531.06 185.658 524.372 186.755C523.177 186.953 522.105 187.806 520.948 188.286C514.092 191.121 507.359 194.359 500.313 196.607C494.834 198.359 490.672 200.5 488.215 206.261C484.905 213.995 477.753 217.294 469.915 218.924C467.465 219.435 466.027 220.258 465.008 222.772C462.048 230.079 458.472 237.089 452.582 242.583C451.304 243.779 449.813 244.747 448.42 245.821C445.141 241.181 445.841 238.933 450.642 237.105C451.806 236.663 452.902 235.558 453.602 234.484C457.193 228.937 458.274 222.757 457.642 216.273C457.33 213.073 457.886 211.274 461.744 211.305C465.632 211.335 467.146 208.592 466.583 203.586C459.682 205.514 452.872 207.785 445.887 209.263C438.247 210.878 430.464 211.815 422.718 212.905C419.979 213.294 416.722 217.766 417.939 220.266C418.403 221.218 419.971 222.178 421.036 222.178C424.064 222.17 427.078 221.553 430.106 221.378C437.859 220.936 441.215 225.919 438.308 233.127C436.764 236.952 435.561 240.93 434.39 244.892C433.241 248.785 425.906 255.475 421.637 256.268C420.412 250.812 420.427 250.797 425.449 248.504C426.005 248.252 426.659 247.833 426.887 247.322C428.995 242.644 431.59 238.072 432.898 233.165C434.002 229.028 431.316 227.253 427.625 229.531C422.17 232.899 416.319 234.468 410.079 235.086C409.212 235.169 408.276 235.398 407.553 235.847C399.777 240.64 391.232 243.177 382.315 244.77C378.039 245.532 374.805 247.742 372.887 252.054C369.288 260.161 361.969 263.202 353.911 264.802C351.156 265.35 349.52 266.333 348.037 269.076C344.879 274.928 340.961 280.399 337.042 285.794C335.619 287.752 333.283 289.039 331.381 290.624C328.246 287.096 328.398 283.462 331.769 282.746C337.765 281.466 338.784 276.521 340.154 272.155C341.257 268.634 341.075 264.687 341.288 260.923C341.402 258.897 341.356 257.197 344.164 257.037C350.175 256.695 351.849 254.325 350.829 248.336C335.718 250.226 320.622 252.115 305.518 254.005C305.412 254.165 305.298 254.325 305.191 254.485C307.558 255.079 309.916 255.734 312.306 256.26C314.398 256.717 316.597 256.809 318.613 257.472C323.628 259.102 325.454 263.697 322.745 268.269C319.998 272.901 317.518 277.991 313.721 281.618C310.046 285.131 304.841 287.043 300.078 289.786C298.587 284.102 299.956 282.007 304.385 281.679C305.108 281.626 305.983 281.549 306.508 281.138C310.913 277.625 314.9 273.724 316.49 268.086C317.419 264.802 316.163 263.08 312.899 263.941C306.127 265.739 299.454 265.343 292.591 264.931C288.429 264.68 284.183 266.684 279.93 266.958C274.261 267.324 268.517 266.592 262.878 267.118C259.987 267.385 256.426 268.634 254.592 270.707C248.193 277.938 240.234 279.843 231.256 278.875C228.661 278.593 227.277 279.385 225.435 281.1C219.919 286.258 214.106 291.112 208.209 295.851C206.74 297.032 204.549 297.299 202.631 298C201.285 292.102 202.205 290.96 207.813 290.434C208.833 290.342 209.928 289.702 210.758 289.032C215.742 284.963 218.952 279.736 220.254 273.435C220.946 270.074 221.707 267.766 226.15 269.191C229.62 270.303 232.709 267.293 233.158 263.095C233.333 261.472 233.189 259.819 233.189 257.868C232.245 257.609 231.157 257.388 230.122 257.015C229.232 256.695 228.403 256.199 226.386 255.224C229.536 254.012 231.659 253.19 233.782 252.367C233.714 252.092 233.645 251.818 233.577 251.544C229.049 252.176 224.545 253.075 219.995 253.38C203.704 254.485 187.406 255.46 171.1 256.306C168.894 256.42 167.486 257.037 165.957 258.645C155.38 269.815 142.727 277.778 127.935 282.075C121.658 283.896 115.251 285.938 108.807 286.365C100.034 286.952 91.0856 286.715 82.3354 285.733C56.1458 282.784 30.4735 277.092 5.11315 269.945C4.90011 269.884 4.73271 269.693 4.24574 269.358C8.02735 266.432 11.4742 263.796 16.7623 265.571C21.0537 267.011 25.7255 267.301 30.0398 268.711C33.8138 269.945 35.716 268.931 36.6671 265.266C36.9486 264.185 37.5345 263.171 38.1052 261.83C36.5758 261.091 35.1605 260.314 33.6768 259.704C26.5853 256.809 21.8831 251.567 20.2852 244.237C18.2917 235.101 17.0438 225.805 15.5905 216.555C14.609 210.284 14.3275 203.678 8.37735 199.678C5.82838 197.963 2.8305 196.904 0 195.54C4.23813 184.598 12.9274 181.954 26.631 188.446C24.7973 185.993 23.4657 184.278 22.2026 182.511C20.0265 179.486 20.5591 177.078 24.2266 176.476C28.2136 175.821 32.3985 176.331 36.8649 176.331C36.7432 178.51 36.6443 180.194 36.5301 182.137C38.7595 180.873 40.7074 179.768 42.9292 178.503C42.427 177.177 41.94 175.783 41.3922 174.411C39.0867 168.658 39.0334 168.308 44.839 166.738C48.6815 165.694 50.2717 162.913 51.8315 159.393C49.4347 160.201 47.038 160.993 44.6488 161.824C42.1531 162.692 39.6726 163.599 37.2301 164.475C36.8801 170.571 35.1225 172.392 30.9909 171.081C28.2365 170.205 27.0343 168.247 27.7419 165.55C28.4495 162.852 30.9376 161.885 33.1594 162.829C35.6779 163.904 37.0704 162.982 38.8432 161.603C51.4131 151.796 51.4359 151.819 67.3688 151.926C68.6395 151.934 69.9102 151.865 71.1733 151.972C78.8506 152.604 78.006 153.061 79.0789 159.18C79.9463 164.11 80.3039 170.159 86.4823 172.956C89.7389 174.426 92.4172 177.169 95.8716 179.714C96.1684 178.32 96.7999 177.185 96.5107 176.377C94.6314 171.142 92.5465 165.984 90.553 160.795C90.2334 159.972 89.9367 159.111 89.8226 158.243C89.4878 155.614 90.7889 154.616 93.14 155.804C94.6998 156.597 96.0923 157.717 97.4542 158.616C99.7217 157.343 101.822 155.888 104.127 154.951C107.551 153.556 111.051 153.8 113.524 156.78C116.02 159.789 113.829 162.456 112.124 164.993C111.919 165.306 111.751 165.641 111.493 166.083C115.731 168.476 116.994 171.714 115.586 176.606C114.673 179.783 115.373 183.41 115.213 186.831C114.917 193.277 113.113 195.624 107.041 197.613C105.017 198.276 102.948 198.801 101.038 199.35C102.499 208.623 97.1803 215.442 93.2998 223.214C102.24 226.788 111.363 229.188 121.072 229.005C123.606 228.959 126.17 228.845 128.666 229.188C131.496 229.577 133.315 230.925 132.166 234.377C130.629 239.025 129.351 243.764 127.768 249.121C133.908 250.226 140.071 251.445 146.28 252.397C149.773 252.938 153.364 252.862 156.864 253.388C159.558 253.791 161.08 252.649 162.502 250.591C167.395 243.513 171.1 236.152 168.551 227.184C167.03 221.82 164.115 217.522 158.744 215.343C155.982 214.223 153.897 214.528 152.862 217.873C152.398 219.382 151.371 220.807 150.321 222.018C147.163 225.675 143.891 226.635 140.635 225.096C137.393 223.565 135.491 219.671 135.932 215.48C136.876 206.627 145.314 199.929 154.216 200.973C166.718 202.443 175.704 212.433 176.936 226.239C177.804 235.908 176.959 239.436 170.21 253.875C173.49 253.875 176.586 254.111 179.645 253.837C198.051 252.169 216.449 250.401 234.84 248.618C235.677 248.534 236.719 248.26 237.252 247.696C244.024 240.503 252.378 241.059 260.953 242.766C268.524 244.275 275.829 243.406 282.844 240.313C291.092 236.678 294.638 229.676 292.918 220.852C291.784 215.054 290.689 209.248 289.502 203.045C284.191 204.341 280.052 201.758 276.681 196.5C279.108 196.173 281.17 195.898 283.392 195.601C283.415 191.898 282.251 189.681 278.636 188.37C269.62 185.094 261.029 180.956 256.008 172.08C254.547 169.504 253.542 166.67 252.333 163.95C252.652 163.721 252.972 163.485 253.291 163.256C254.425 164.277 255.65 165.214 256.654 166.342C257.575 167.371 258.039 168.895 259.089 169.695C260.307 170.624 262.323 171.874 263.312 171.44C265.633 170.411 264.332 168.46 263.274 167.02C261.547 164.689 260.953 162.555 263.571 160.46ZM90.2334 271.918C90.7356 278.89 90.8421 279.005 96.9368 279.111C114.901 279.424 131.405 274.265 146.752 265.305C150.785 262.95 154.125 259.422 158.006 256.253C147.011 254.371 136.838 252.626 126.429 250.843C118.736 264.748 108.244 274.608 90.2334 271.918ZM41.202 271.553C55.6816 274.143 69.8721 276.673 84.0627 279.21C85.204 273.465 84.8844 272.901 79.7789 271.819C73.2429 270.433 66.7069 269.076 60.1632 267.728C54.6392 266.592 49.1076 265.495 43.4161 264.352C42.64 266.867 41.9933 268.992 41.202 271.553Z" fill="#185E74" fill-opacity="0.22"/>
<g clip-path="url(#clip0_112_196)">
<mask id="mask0_112_196" style="mask-type:alpha" maskUnits="userSpaceOnUse" x="160" y="6" width="384" height="332">
<path d="M434.416 75.5001V11.5001L383.931 6C356.606 10 300.857 18 296.458 18C290.96 18 224.98 46 217.982 53.5C210.985 61 169.497 180 161 215.5C152.503 251 279.964 326 284.962 326C288.961 326 429.917 333.667 499.896 337.5L543.882 234.5H499.896L492.398 200L499.896 180H475.403L512.392 109.5L462.907 104L448.412 75.5001H434.416Z" fill="#D9D9D9"/>
</mask>
<g mask="url(#mask0_112_196)">
<path d="M258.502 94.0274C198.595 177.955 231.716 231.495 271.539 278.388C334.874 352.969 580.706 347.019 544.101 153.825C507.496 -39.3688 333.387 -10.882 258.502 94.0274Z" fill="url(#paint0_linear_112_196)"/>
<path d="M230.49 218.668C218.712 222.887 217.881 206.793 218.937 198.218C224.901 187.885 223.504 180.19 232.262 185.248C241.021 190.306 245.213 213.393 230.49 218.668Z" fill="#5D3B49"/>
<path d="M421.581 255.714C438.985 243.657 447.391 269.6 449.419 284.079C444.195 303.582 449.848 315.549 433.317 311.118C416.786 306.687 399.826 270.787 421.581 255.714Z" fill="#5D3B49"/>
<path d="M353.759 135.935C340.194 139.571 346.999 155.927 352.096 163.651C376.626 187.375 402.966 150.016 402.006 135.124C401.046 120.231 370.716 131.391 353.759 135.935Z" fill="#5D3B49"/>
<path d="M313.343 222.516C318.441 230.24 332.22 247.756 338.426 237.003C344.633 226.249 332.922 205.149 313.343 222.516Z" fill="#5D3B49"/>
<path d="M324.202 319.593C313.503 324.885 309.179 312.51 308.354 305.662C313.046 289.254 331.517 290.363 336.615 298.086C341.713 305.81 337.575 312.979 324.202 319.593Z" fill="#5D3B49"/>
<path d="M283.607 100.199C270.042 103.835 267.759 86.2673 268.314 77.0289C272.452 69.8594 277.144 53.4528 291.477 61.7307C305.81 70.0086 300.564 95.6542 283.607 100.199Z" fill="#5D3B49"/>
<path d="M273.52 175.621C272.966 184.859 273.401 202.316 279.578 198.237C287.299 193.137 289.517 156.184 273.52 175.621Z" fill="#5D3B49"/>
<path d="M412.865 232.2C401.006 244.468 389.296 223.368 387.782 217.714C384.753 206.406 399.141 198.033 407.361 200.346C415.582 202.659 424.724 219.932 412.865 232.2Z" fill="#5D3B49"/>
<path d="M494.897 254C508.825 238.147 478.644 215.938 472.437 226.691C466.231 237.444 472.694 284.191 494.897 254Z" fill="#5D3B49"/>
<path d="M461.923 279.649C461.553 285.808 462.772 296.389 470.604 289.442C480.394 280.759 473.227 276.62 461.923 279.649Z" fill="#5D3B49"/>
<path d="M479.902 156.866C488.461 148.305 476.336 139.03 469.204 135.463C440.675 128.329 437.109 167.567 444.241 178.269C451.374 188.97 469.204 167.567 479.902 156.866Z" fill="#5D3B49"/>
<path d="M441.914 84.0693C434.782 80.5021 416.951 73.3678 416.951 84.0693C416.951 94.7707 434.782 105.472 441.914 84.0693Z" fill="#5D3B49"/>
<path d="M390.661 30.808C396.367 22.2468 404.926 29.6189 408.492 34.3751C412.058 48.6435 397.794 55.7783 390.661 52.2111C383.529 48.6439 383.529 41.5094 390.661 30.808Z" fill="#5D3B49"/>
<path d="M522.017 146.164C530.575 137.603 539.847 149.732 543.413 156.866C543.413 164.001 546.979 178.269 532.715 178.269C518.451 178.269 511.319 156.866 522.017 146.164Z" fill="#5D3B49"/>
<path d="M497.054 85.5227C493.488 78.3884 485.643 65.5466 482.79 71.2541C479.224 78.3884 493.488 106.926 497.054 85.5227Z" fill="#5D3B49"/>
<path d="M354.847 84.0693C358.413 69.8007 376.244 80.5021 379.81 84.0693C386.942 91.2036 379.81 103.655 372.678 105.472C365.545 107.289 351.281 98.3379 354.847 84.0693Z" fill="#5D3B49"/>
<path d="M344.623 265.472C341.057 283.308 373.151 286.875 373.151 276.174C373.151 265.472 348.189 233.368 344.623 265.472Z" fill="#5D3B49"/>
<path d="M311.619 89.0899C309.242 84.3337 303.774 76.9616 300.921 85.5227C297.355 96.2242 304.487 96.2242 311.619 89.0899Z" fill="#5D3B49"/>
</g>
<path d="M433.916 75.5V15.5L445.412 32L440.914 68.5H454.41L465.406 98L526.388 103C515.058 124 490.599 167.9 493.398 169.5C496.197 171.1 506.727 174.667 511.392 177.5C509.06 183.333 502.995 200.4 501.395 202C499.796 203.6 502.228 215.167 504.394 221.5L533.885 226L540.883 236H499.896L491.398 200.5L499.896 181H474.404L511.392 110.5L462.907 105.5L447.912 75.5H433.916Z" fill="#C57E56"/>
<path d="M500.81 5.8426C492.701 3.51836 485.881 11.8696 483.484 16.3358C476.569 24.471 463.551 42.1773 466.796 47.9203C470.852 55.099 509.461 37.1695 520.758 33.0107C532.055 28.8519 510.947 8.7479 500.81 5.8426Z" fill="#DFA786"/>
<path d="M518.89 153L554.379 118C575.972 127.6 574.706 180 571.374 205L527.387 211.5L537.884 160L518.89 153Z" fill="#DFA786"/>
<path d="M433.916 75.5L440.914 68.5H454.41L447.912 75.5H433.916Z" fill="#A5613C"/>
<path d="M526.387 103L511.392 110.5L474.404 181.5H499.896C504.061 180.667 512.192 178.8 511.392 178C510.592 177.2 499.062 172 493.398 169.5C492.198 165.9 514.891 123.667 526.387 103Z" fill="#A5613C"/>
<path d="M564.7 190.123C555.754 199.378 546.92 183.46 545.778 179.195C543.493 170.664 554.347 164.347 560.549 166.093C566.75 167.838 573.647 180.868 564.7 190.123Z" fill="#5D3B49"/>
<path d="M485.441 40.7057C481.222 37.0365 487.922 32.8384 489.745 32.2448C493.392 31.0577 496.38 35.6223 495.765 38.353C495.151 41.0837 489.659 44.3749 485.441 40.7057Z" fill="#5D3B49"/>
<path d="M491.364 20.6032C485.61 15.5982 494.749 9.87173 497.236 9.06207C502.21 7.44274 506.286 13.6691 505.447 17.394C504.609 21.1188 497.118 25.6082 491.364 20.6032Z" fill="#5D3B49"/>
</g>
<defs>
<linearGradient id="paint0_linear_112_196" x1="286.961" y1="290" x2="544.948" y2="73.0781" gradientUnits="userSpaceOnUse">
<stop stop-color="#DEA585"/>
<stop offset="1" stop-color="#EDC596"/>
</linearGradient>
<clipPath id="clip0_112_196">
<rect width="358" height="333" fill="white" transform="translate(217 4)"/>
</clipPath>
</defs>
</svg>
