<svg width="748" height="838" viewBox="0 0 748 838" fill="none" xmlns="http://www.w3.org/2000/svg">
<rect x="130" y="74" width="468" height="645" fill="#6BC5DA" fill-opacity="0.2"/>
<path fill-rule="evenodd" clip-rule="evenodd" d="M533.907 28.052L581.36 70.6147L609.553 70.8074L609.376 95.7394L655.783 137.354L622.986 173.922L608.928 161.307L605.017 728.094L121.95 724.761L125.757 172.681L120.455 178.087L85.398 143.686L126.247 102.055L126.487 67.4818L159.94 67.7109L200.055 26.8309L235.112 61.2269L228.289 68.1853L507.223 70.1072L501.113 64.6332L533.907 28.052ZM593.808 81.776L598.371 85.8645L598.397 81.8072L593.808 81.776ZM136.915 161.303L133.102 713.756L594.022 716.933L597.923 151.44L519.678 81.2677L217.491 79.1844L136.915 161.303ZM137.488 78.6307L137.404 90.6723L149.144 78.7087L137.488 78.6307Z" fill="#1A5769"/>
<path d="M556 225.938L537.315 207L186 563.063L204.685 582L231.114 555.214H503.143C510.149 555.204 516.865 552.378 521.819 547.357C526.773 542.336 529.561 535.529 529.571 528.429V252.723L556 225.938ZM503.143 528.429H257.542L360.521 424.058L391.958 455.92C396.914 460.941 403.635 463.762 410.643 463.762C417.651 463.762 424.372 460.941 429.328 455.92L450.286 434.679L503.143 488.21V528.429ZM503.143 450.321L468.971 415.688C464.015 410.666 457.294 407.845 450.286 407.845C443.278 407.845 436.557 410.666 431.601 415.688L410.643 436.929L379.232 405.094L503.143 279.509V450.321ZM238.857 474.857V434.679L304.929 367.754L323.072 386.156L341.783 367.192L323.614 348.777C318.657 343.755 311.936 340.934 304.929 340.934C297.921 340.934 291.2 343.755 286.244 348.777L238.857 396.804V260.571H450.286V233.786H238.857C231.85 233.793 225.132 236.617 220.177 241.639C215.222 246.661 212.436 253.47 212.429 260.571V474.857H238.857Z" fill="#1A5769"/>
</svg>
